SplineFontDB: 3.2
FontName: Purisa-BoldOblique
FullName: Purisa Bold Oblique
FamilyName: Purisa
Weight: Bold
Copyright: Purisa, Thai handwriting outline font.\n\nCopyright (C) 2003, 2004 Poonlap Veerathanabutr <poonlap@linux.thai.net>
UComments: "2003-11-27: Created.+AAoACgAA-Acknowlegement:+AAoA-Hanwriting by Ms.Purisa Cholasueksa. +AAoA-Co-operated by Mr.Teeratep Sosakul.+AAoACgAA-2004-02-14:+AAoA-Modified most characters. Make numbers bigger."
Version: 004.003
ItalicAngle: -12
UnderlinePosition: -100
UnderlineWidth: 50
Ascent: 800
Descent: 200
InvalidEm: 0
LayerCount: 3
Layer: 0 0 "Back" 1
Layer: 1 0 "Fore" 0
Layer: 2 1 "Quad" 0
FSType: 8
OS2Version: 4
OS2_WeightWidthSlopeOnly: 0
OS2_UseTypoMetrics: 1
CreationTime: 1153666222
ModificationTime: 1587960991
PfmFamily: 65
TTFWeight: 700
TTFWidth: 5
LineGap: 0
VLineGap: 0
OS2TypoAscent: 1109
OS2TypoAOffset: 0
OS2TypoDescent: -503
OS2TypoDOffset: 0
OS2TypoLinegap: 0
OS2WinAscent: 0
OS2WinAOffset: 1
OS2WinDescent: 0
OS2WinDOffset: 1
HheadAscent: 0
HheadAOffset: 1
HheadDescent: 0
HheadDOffset: 1
OS2Vendor: 'PfEd'
Lookup: 4 8 1 "'liga' Standard Ligatures lookup 2" { "'liga' Standard Ligatures lookup 2 subtable"  } ['liga' ('latn' <'dflt' > ) ]
Lookup: 6 0 0 "'ccmp' Thai Tone Tilde Reordering" { "'ccmp' Thai Tone Tilde Reordering"  } ['ccmp' ('DFLT' <'dflt' > 'latn' <'dflt' > 'thai' <'KUY ' 'MLY ' 'PAL ' 'SAN ' 'THA ' 'dflt' > ) ]
Lookup: 6 0 0 "'ccmp' Thai Tone Macron Reordering" { "'ccmp' Thai Tone Macron Reordering"  } ['ccmp' ('DFLT' <'dflt' > 'latn' <'dflt' > 'thai' <'KUY ' 'MLY ' 'PAL ' 'SAN ' 'THA ' 'dflt' > ) ]
Lookup: 6 0 0 "'ccmp' Thai Below Vowel Macron Reordering" { "'ccmp' Thai Below Vowel Macron Reordering"  } ['ccmp' ('DFLT' <'dflt' > 'latn' <'dflt' > 'thai' <'KUY ' 'MLY ' 'PAL ' 'SAN ' 'THA ' 'dflt' > ) ]
Lookup: 4 0 0 "'ccmp' Patani Malay Ligatures" { "'ccmp' Patani Malay Ligatures"  } ['ccmp' ('DFLT' <'dflt' > 'thai' <'KUY ' 'MLY ' 'PAL ' 'SAN ' 'THA ' 'dflt' > ) ]

StartChar: uni0E34
Encoding: 3636 3636 0
Width: 0
Flags: W
HStem: 553 21G<27 48.5> 566 76<-233.719 -16.6141> 713 66<-179.883 -59.3574>
AnchorPoint: "AboveMark" 22 560 mark 0
AnchorPoint: "AboveMark" 69 780 basemark 0
AnchorPoint: "AboveBase" 57 560 mark 0
LayerCount: 3
Fore
SplineSet
71 585 m 0x60
 71 565 63 553 34 553 c 0xa0
 20 553 8 558 5 566 c 1
 -48 578 -277 563 -331 591 c 0
 -342 596 -347 604 -347 614 c 0
 -347 653 -235 779 -89 779 c 0
 -26 779 38 745 38 716 c 0
 38 696 71 659 71 585 c 0x60
-244 647 m 1
 -234 645 -222 642 -197 642 c 0x60
 -178 642 -181 644 -155 644 c 0
 -111 644 -49 636 -15 633 c 1
 -50 695 -80 713 -117 713 c 0
 -143 713 -170 701 -210 672 c 2
 -244 647 l 1
EndSplineSet
Validated: 1
Layer: 2
SplineSet
71 585 m 0,0,1
 71 553 71 553 34 553 c 0,2,3
 10 553 10 553 5 566 c 1,4,5
 -12 570 -12 570 -156 572.5 c 128,-1,6
 -300 575 -300 575 -331 591 c 0,7,8
 -347 598 -347 598 -347 614 c 0,9,10
 -347 629 -347 629 -326.5 656 c 128,-1,11
 -306 683 -306 683 -273 711 c 128,-1,12
 -240 739 -240 739 -190 759 c 128,-1,13
 -140 779 -140 779 -89 779 c 0,14,15
 -42 779 -42 779 -2 758.5 c 128,-1,16
 38 738 38 738 38 716 c 0,17,18
 38 713 38 713 54.5 671 c 128,-1,19
 71 629 71 629 71 585 c 0,0,1
-244 647 m 1,20,21
 -219 642 -219 642 -197 642 c 0,22,23
 -188 642 -188 642 -178.5 643 c 128,-1,24
 -169 644 -169 644 -155 644 c 0,25,26
 -140 644 -140 644 -15 633 c 1,27,28
 -40 678 -40 678 -64 695.5 c 128,-1,29
 -88 713 -88 713 -117 713 c 0,30,31
 -153 713 -153 713 -210 672 c 2,32,-1
 -244 647 l 1,20,21
EndSplineSet
EndChar

StartChar: uni0E35
Encoding: 3637 3637 1
Width: 0
Flags: W
HStem: 628 83<-193.18 -123> 718 65<-199.462 -125.165>
AnchorPoint: "AboveMark" 36 560 mark 0
AnchorPoint: "AboveMark" 83 780 basemark 0
AnchorPoint: "AboveBase" 57 560 mark 0
LayerCount: 3
Fore
SplineSet
-393 666 m 0
 -393 701 -327 744 -309 744 c 0
 -299 744 -300 762 -213 777 c 0
 -188 781 -167 783 -148 783 c 0
 -29 783 -4 714 20 697 c 1
 39 750 34 827 102 827 c 2
 138 827 l 1
 109 724 l 1
 84 639 68 578 29 578 c 0
 5 578 -26 609 -44 628 c 1
 -333 638 -393 632 -393 666 c 0
-200 711 m 1
 -189 711 -178 711 -167 711 c 0
 -149 711 -133 712 -123 712 c 1
 -135 715 -148 718 -164 718 c 0
 -181 718 -191 715 -200 711 c 1
EndSplineSet
Validated: 1
Layer: 2
SplineSet
-393 666 m 0,0,1
 -393 690 -393 690 -359.5 717 c 128,-1,2
 -326 744 -326 744 -309 744 c 0,3,4
 -306 744 -306 744 -301.5 747 c 128,-1,5
 -297 750 -297 750 -290 754.5 c 128,-1,6
 -283 759 -283 759 -263 765.5 c 128,-1,7
 -243 772 -243 772 -213 777 c 0,8,9
 -176 783 -176 783 -148 783 c 0,10,11
 -107 783 -107 783 -75 771.5 c 128,-1,12
 -43 760 -43 760 -28.5 747 c 128,-1,13
 -14 734 -14 734 0.5 717.5 c 128,-1,14
 15 701 15 701 20 697 c 1,15,16
 25 710 25 710 31.5 738.5 c 128,-1,17
 38 767 38 767 43 783 c 128,-1,18
 48 799 48 799 63 813 c 128,-1,19
 78 827 78 827 102 827 c 2,20,-1
 138 827 l 1,21,-1
 109 724 l 2,22,23
 78.865120162 621.541408551 78.865120162 621.541408551 62.8143737934 598.752766267 c 0,24,25
 48.1975579403 578 48.1975579403 578 29 578 c 0,26,27
 3 578 3 578 -44 628 c 1,28,29
 -97 630 -97 630 -181.891913193 632.260042242 c 0,30,31
 -320 636 -320 636 -356.5 641 c 128,-1,32
 -393 646 -393 646 -393 666 c 0,0,1
-200 711 m 1,33,-1
 -167 711 l 2,34,35
 -157 711 -157 711 -142 711.5 c 128,-1,36
 -127 712 -127 712 -123 712 c 1,37,38
 -147 718 -147 718 -164 718 c 0,39,40
 -184 718 -184 718 -200 711 c 1,33,-1
EndSplineSet
EndChar

StartChar: uni0E36
Encoding: 3638 3638 2
Width: 0
Flags: W
HStem: 533 21G<-147 -119.5> 583 55<-351 -169.104> 695 66<-304.34 -177.106>
VStem: -162 229<579 685>
AnchorPoint: "AboveMark" -29 560 mark 0
AnchorPoint: "AboveMark" 18 780 basemark 0
AnchorPoint: "AboveBase" 27 560 mark 0
LayerCount: 3
Fore
SplineSet
67 685 m 0
 67 628 -4 558 -41 558 c 0
 -59 558 -69 576 -83 577 c 1
 -90 569 -104 533 -135 533 c 1
 -159 536 -162 553 -162 567 c 2
 -162 579 l 2
 -162 582 -162 583 -170 583 c 0
 -186 583 -202 581 -330 578 c 2
 -442 576 l 1
 -439 612 l 1
 -432 635 -437 640 -393 684 c 0
 -380 697 -347 717 -324 729 c 0
 -272 757 -254 761 -218 761 c 0
 -116 761 -113 687 -96 661 c 1
 -78 671 -25 721 17 721 c 0
 43 721 67 718 67 685 c 0
-20 633 m 1
 -15 637 -11 645 -7 650 c 1
 -19 650 -24 641 -20 633 c 1
-168 659 m 1
 -169 662 -172 667 -181 678 c 0
 -194 694 -201 695 -218 695 c 0
 -281 695 -292 690 -332 655 c 2
 -351 638 l 1
 -312 638 -190 649 -168 659 c 1
EndSplineSet
Validated: 1
Layer: 2
SplineSet
67 685 m 0,0,1
 67 644 67 644 28 601 c 128,-1,2
 -11 558 -11 558 -41 558 c 0,3,4
 -51 558 -51 558 -64 567.5 c 128,-1,5
 -77 577 -77 577 -83 577 c 0,6,7
 -84 576 -84 576 -89.5 567 c 128,-1,8
 -95 558 -95 558 -100 551.5 c 128,-1,9
 -105 545 -105 545 -114.5 539 c 128,-1,10
 -124 533 -124 533 -135 533 c 0,11,12
 -162 536 -162 536 -162 567 c 2,13,-1
 -162 579 l 2,14,15
 -162 583 -162 583 -170 583 c 0,16,17
 -175 583 -175 583 -187.5 582.5 c 128,-1,18
 -200 582 -200 582 -237.5 580.5 c 128,-1,19
 -275 579 -275 579 -330 578 c 2,20,-1
 -442 576 l 1,21,-1
 -439 612 l 2,22,23
 -438 615 -438 615 -436 623.5 c 128,-1,24
 -434 632 -434 632 -432.5 635 c 128,-1,25
 -431 638 -431 638 -426.5 645.5 c 128,-1,26
 -422 653 -422 653 -414 662 c 128,-1,27
 -406 671 -406 671 -393 684 c 0,28,29
 -374 703 -374 703 -324 729 c 0,30,31
 -286 749 -286 749 -266 755 c 128,-1,32
 -246 761 -246 761 -218 761 c 0,33,34
 -183 761 -183 761 -158.5 748 c 128,-1,35
 -134 735 -134 735 -125.5 721.5 c 128,-1,36
 -117 708 -117 708 -108 687 c 128,-1,37
 -99 666 -99 666 -96 661 c 1,38,39
 -93 663 -93 663 -70.5 680 c 128,-1,40
 -48 697 -48 697 -25 709 c 128,-1,41
 -2 721 -2 721 17 721 c 0,42,43
 33 721 33 721 42.5 719 c 128,-1,44
 52 717 52 717 59.5 709 c 128,-1,45
 67 701 67 701 67 685 c 0,0,1
-20 633 m 1,46,47
 -17 635 -17 635 -12.5 642 c 128,-1,48
 -8 649 -8 649 -7 650 c 1,49,50
 -16 650 -16 650 -19.5 644.5 c 128,-1,51
 -23 639 -23 639 -20 633 c 1,46,47
-168 659 m 1,52,53
 -170 664 -170 664 -181 678 c 0,54,55
 -195 695 -195 695 -218 695 c 0,56,57
 -265 695 -265 695 -283 688.5 c 128,-1,58
 -301 682 -301 682 -332 655 c 2,59,-1
 -351 638 l 1,60,61
 -317 638 -317 638 -250 645 c 128,-1,62
 -183 652 -183 652 -168 659 c 1,52,53
EndSplineSet
EndChar

StartChar: uni0E37
Encoding: 3639 3639 3
Width: 0
Flags: W
HStem: 574 290<-108 -27> 601 56<-304.317 -169.199> 711 68<-310.765 -188.515>
VStem: 9 111<698.253 813.706>
AnchorPoint: "AboveMark" -37 560 mark 0
AnchorPoint: "AboveMark" 10 780 basemark 0
AnchorPoint: "AboveBase" 57 560 mark 0
LayerCount: 3
Fore
SplineSet
-246 711 m 0x70
 -282 711 -333 679 -341 667 c 1
 -330 661 -265 657 -218 657 c 0
 -193 657 -173 657 -169 659 c 1
 -169 677 -200 711 -246 711 c 0x70
-427 636 m 0
 -427 689 -342 779 -226 779 c 0x70
 -163 779 -134 755 -111 734 c 1
 -100 773 l 1
 -86 813 -69 864 -27 864 c 0
 -19 864 6 856 6 825 c 0
 6 793 -39 696 -50 646 c 0
 -60 601 -76 574 -108 574 c 0x90
 -147 574 -139 599 -153 601 c 1
 -178 601 -229 586 -308 586 c 0
 -353 586 -427 590 -427 636 c 0
120 808 m 0
 120 758 94 633 40 633 c 0
 20 633 9 641 9 687 c 0
 9 774 37 863 79 863 c 0
 95 863 120 855 120 808 c 0
EndSplineSet
Validated: 1
Layer: 2
SplineSet
-246 711 m 0,0,1
 -270 711 -270 711 -302 694.5 c 128,-1,2
 -334 678 -334 678 -341 667 c 1,3,4
 -323 657 -323 657 -218 657 c 0,5,6
 -173 657 -173 657 -169 659 c 1,7,8
 -169 675 -169 675 -191.5 693 c 128,-1,9
 -214 711 -214 711 -246 711 c 0,0,1
-427 636 m 0,10,11
 -427 681 -427 681 -367 730 c 128,-1,12
 -307 779 -307 779 -226 779 c 0,13,14
 -160 779 -160 779 -111 734 c 1,15,-1
 -100 773 l 2,16,17
 -92 795 -92 795 -88 805.5 c 128,-1,18
 -84 816 -84 816 -74.5 832.5 c 128,-1,19
 -65 849 -65 849 -53.5 856.5 c 128,-1,20
 -42 864 -42 864 -27 864 c 0,21,22
 -17 864 -17 864 -5.5 854.5 c 128,-1,23
 6 845 6 845 6 825 c 0,24,25
 6 807 6 807 -19.5 737 c 128,-1,26
 -45 667 -45 667 -50 646 c 0,27,28
 -66 574 -66 574 -108 574 c 0,29,30
 -121 574 -121 574 -129.5 578 c 128,-1,31
 -138 582 -138 582 -140 587 c 128,-1,32
 -142 592 -142 592 -145.5 596 c 128,-1,33
 -149 600 -149 600 -153 601 c 0,34,35
 -159 601 -159 601 -210.5 593.5 c 128,-1,36
 -262 586 -262 586 -308 586 c 0,37,38
 -427 586 -427 586 -427 636 c 0,10,11
120 808 m 0,39,40
 120 758 120 758 98 695.5 c 128,-1,41
 76 633 76 633 40 633 c 0,42,43
 24 633 24 633 16.5 644 c 128,-1,44
 9 655 9 655 9 687 c 0,45,46
 9 756 9 756 29 809.5 c 128,-1,47
 49 863 49 863 79 863 c 0,48,49
 120 863 120 863 120 808 c 0,39,40
EndSplineSet
EndChar

StartChar: uni0E38
Encoding: 3640 3640 4
Width: 0
Flags: W
HStem: -146 52<-293 -264.125> -81 56<-292.396 -238>
VStem: -259 60<-158.672 -81.9797>
DStem2: -298.531 -306 -234 -306 0.207912 0.978148<37.2356 164.545>
AnchorPoint: "BelowMark" -190 -38 mark 0
AnchorPoint: "BelowMark" -252 -327 basemark 0
AnchorPoint: "BelowBase" -190 -38 mark 0
LayerCount: 3
Fore
SplineSet
-360 -117 m 0
 -360 -78 -292 -25 -251 -25 c 0
 -225 -25 -199 -41 -199 -85 c 0
 -199 -106 -204 -138 -214 -191 c 2
 -234 -306 l 1
 -264 -297 l 2
 -280 -292 -287 -289 -287 -271 c 0
 -287 -258 -284 -236 -276 -200 c 2
 -264 -145 l 1
 -298 -146 l 2
 -305 -146 -312 -146 -319 -146 c 0
 -353 -146 -360 -130 -360 -117 c 0
-259 -85 m 0
 -259 -83 -261 -81 -268 -81 c 0
 -275 -81 -285 -83 -293 -94 c 1
 -279 -94 l 2
 -266 -94 -259 -93 -259 -85 c 0
EndSplineSet
Validated: 1
Layer: 2
SplineSet
-360 -117 m 128,-1,1
 -360 -88 -360 -88 -321.5 -56.5 c 128,-1,2
 -283 -25 -283 -25 -251 -25 c 0,3,4
 -229 -25 -229 -25 -214 -39.5 c 128,-1,5
 -199 -54 -199 -54 -199 -85 c 0,6,7
 -199 -112 -199 -112 -214 -191 c 2,8,-1
 -234 -306 l 1,9,-1
 -264 -297 l 2,10,11
 -277 -293 -277 -293 -282 -288.5 c 128,-1,12
 -287 -284 -287 -284 -287 -271 c 0,13,14
 -287 -250 -287 -250 -276 -200 c 2,15,-1
 -264 -145 l 1,16,-1
 -298 -146 l 1,17,-1
 -319 -146 l 2,18,0
 -360 -146 -360 -146 -360 -117 c 128,-1,1
-259 -85 m 0,19,20
 -259 -81 -259 -81 -268 -81 c 0,21,22
 -284 -81 -284 -81 -293 -94 c 1,23,-1
 -279 -94 l 2,24,25
 -259 -94 -259 -94 -259 -85 c 0,19,20
EndSplineSet
Substitution2: "Thai Sara U Macron Reordering" macronbelowcmb
Substitution2: "Thai Sara U Phinthu Reordering" uni0E3A
Substitution2: "Thai Sara U Mai Ek Reordering" uni0E48.low
Substitution2: "Thai Sara U Mai Tho Reordering" uni0E49.low
Substitution2: "Thai Sara U Mai Tri Reordering" uni0E4A.low
Substitution2: "Thai Sara U Mai Chattawa Reordering" uni0E4B.low
Substitution2: "Thai Sara U Thanthakhat Reordering" uni0E4C.low
Substitution2: "Thai Sara U Nikhahit Reordering" uni0E4D
EndChar

StartChar: uni0E39
Encoding: 3641 3641 5
Width: 0
Flags: W
HStem: -137 43<-376.719 -312.362> -82 44<-338.11 -288.5>
VStem: -304 4<-224.5 -159.5> -247 79<-126.792 -71.2438>
AnchorPoint: "BelowMark" -190 -38 mark 0
AnchorPoint: "BelowMark" -242 -280 basemark 0
AnchorPoint: "BelowBase" -190 -38 mark 0
LayerCount: 3
Fore
SplineSet
-404 -108 m 0
 -404 -78 -341 -38 -304 -38 c 0
 -273 -38 -251 -60 -251 -81 c 1
 -246 -83 -244 -89 -244 -97 c 0
 -244 -107 -246 -114 -247 -127 c 1
 -233 -90 -220 -40 -193 -40 c 0
 -173 -40 -168 -55 -168 -68 c 0
 -168 -72 -168 -77 -169 -80 c 0
 -172 -94 -228 -255 -275 -255 c 0
 -293 -255 -304 -233 -304 -216 c 0
 -304 -202 -300 -186 -300 -165 c 0
 -300 -154 -301 -142 -304 -129 c 1
 -321 -134 -337 -137 -351 -137 c 0
 -382 -137 -404 -125 -404 -108 c 0
-339 -91 m 1
 -336 -93 -334 -94 -330 -94 c 0
 -322 -94 -313 -90 -312 -88 c 1
 -313 -83 -316 -82 -320 -82 c 0
 -327 -82 -337 -89 -339 -91 c 1
EndSplineSet
Validated: 1
Layer: 2
SplineSet
-404 -108 m 0,0,1
 -404 -86 -404 -86 -368.5 -62 c 128,-1,2
 -333 -38 -333 -38 -304 -38 c 0,3,4
 -282 -38 -282 -38 -266.5 -51.5 c 128,-1,5
 -251 -65 -251 -65 -251 -81 c 1,6,7
 -244 -84 -244 -84 -244 -97 c 0,8,9
 -244 -103 -244 -103 -245.5 -112.5 c 128,-1,10
 -247 -122 -247 -122 -247 -127 c 1,11,12
 -246 -123 -246 -123 -239 -104.5 c 128,-1,13
 -232 -86 -232 -86 -229 -79.5 c 128,-1,14
 -226 -73 -226 -73 -220 -61 c 128,-1,15
 -214 -49 -214 -49 -207.5 -44.5 c 128,-1,16
 -201 -40 -201 -40 -193 -40 c 0,17,18
 -168 -40 -168 -40 -168 -68 c 0,19,20
 -168 -77 -168 -77 -169 -80 c 0,21,22
 -176 -111 -176 -111 -210.5 -183 c 128,-1,23
 -245 -255 -245 -255 -275 -255 c 0,24,25
 -288 -255 -288 -255 -296 -242.5 c 128,-1,26
 -304 -230 -304 -230 -304 -216 c 0,27,28
 -304 -210 -304 -210 -302 -193 c 128,-1,29
 -300 -176 -300 -176 -300 -165 c 0,30,31
 -300 -146 -300 -146 -304 -129 c 1,32,33
 -331 -137 -331 -137 -351 -137 c 0,34,35
 -374 -137 -374 -137 -389 -129 c 128,-1,36
 -404 -121 -404 -121 -404 -108 c 0,0,1
-339 -91 m 1,37,38
 -334 -94 -334 -94 -330 -94 c 0,39,40
 -315 -94 -315 -94 -312 -88 c 0,41,42
 -313 -82 -313 -82 -320 -82 c 0,43,44
 -330 -82 -330 -82 -339 -91 c 1,37,38
EndSplineSet
Substitution2: "Thai Sara UU Macron Reordering" macronbelowcmb
Substitution2: "Thai Sara UU Phinthu Reordering" uni0E3A
Substitution2: "Thai Sara UU Mai Ek Reordering" uni0E48.low
Substitution2: "Thai Sara UU Mai Tho Reordering" uni0E49.low
Substitution2: "Thai Sara UU Mai Tri Reordering" uni0E4A.low
Substitution2: "Thai Sara UU Mai Chattawa Reordering" uni0E4B.low
Substitution2: "Thai Sara UU Thanthakhat Reordering" uni0E4C.low
Substitution2: "Thai Sara UU Nikhahit Reordering" uni0E4D
EndChar

StartChar: uni0E3A
Encoding: 3642 3642 6
Width: 0
Flags: W
HStem: -212 171<-319.04 -266.5>
VStem: -388 184<-149.574 -106.528>
AnchorPoint: "BelowMark" -190 -38 mark 0
AnchorPoint: "BelowMark" -232 -237 basemark 0
AnchorPoint: "BelowBase" -190 -38 mark 0
LayerCount: 3
Fore
SplineSet
-254 -41 m 0
 -223 -41 -204 -59 -204 -89 c 0
 -204 -144 -262 -212 -334 -212 c 0
 -372 -212 -388 -192 -388 -166 c 0
 -388 -109 -318 -41 -254 -41 c 0
EndSplineSet
Validated: 1
Layer: 2
SplineSet
-254 -41 m 0,0,1
 -231 -41 -231 -41 -217.5 -54 c 128,-1,2
 -204 -67 -204 -67 -204 -89 c 0,3,4
 -204 -133 -204 -133 -243 -172.5 c 128,-1,5
 -282 -212 -282 -212 -334 -212 c 0,6,7
 -388 -212 -388 -212 -388 -166 c 0,8,9
 -388 -123 -388 -123 -345 -82 c 128,-1,10
 -302 -41 -302 -41 -254 -41 c 0,0,1
EndSplineSet
Substitution2: "Thai Phinthu Macron Reordering" macronbelowcmb
Substitution2: "Thai Sara UU Phinthu Reordering" uni0E39
Substitution2: "Thai Sara U Phinthu Reordering" uni0E38
Substitution2: "Thai Phinthu Maitaikhu Reordering" uni0E47
Substitution2: "Thai Phinthu Mai Ek Reordering" uni0E48.low
Substitution2: "Thai Phinthu Mai Tho Reordering" uni0E49.low
Substitution2: "Thai Phinthu Mai Tri Reordering" uni0E4A.low
Substitution2: "Thai Phinthu Mai Chattawa Reordering" uni0E4B.low
Substitution2: "Thai Phinthu Thanthakhat Reordering" uni0E4C.low
Substitution2: "Thai Phinthu Nikhahit Reordering" uni0E4D
EndChar

StartChar: uni0E48
Encoding: 3656 3656 7
Width: 0
Flags: W
HStem: 830 153<76 103.31>
VStem: 35 98
DStem2: 35 830 100.348 830 0.207912 0.978148<12.3625 158.181>
AnchorPoint: "AboveMark" 113 1038 basemark 0
AnchorPoint: "AboveMark" 58 780 mark 0
LayerCount: 3
Fore
SplineSet
76 983 m 1
 133 983 l 1
 108 866 l 2
 104 847 96 830 49 830 c 2
 35 830 l 1
 76 983 l 1
EndSplineSet
Validated: 1
Layer: 2
SplineSet
76 983 m 1,0,-1
 133 983 l 1,1,-1
 108 866 l 2,2,3
 106 855 106 855 101.5 848 c 128,-1,4
 97 841 97 841 84 835.5 c 128,-1,5
 71 830 71 830 49 830 c 2,6,-1
 35 830 l 1,7,-1
 76 983 l 1,0,-1
EndSplineSet
Substitution2: "Thai Mai Ek Macron Reordering" macronbelowcmb
Substitution2: "Thai Mai Ek Tilde Reordering" tildecomb
MultipleSubs2: "Thai Tone Nikhahit Attachment" uni0E4D uni0E48
Substitution2: "Thai Tone Low Variant" uni0E48.low
Substitution2: "Thai Sara U Mai Ek Reordering" uni0E38
Substitution2: "Thai Sara UU Mai Ek Reordering" uni0E39
Substitution2: "Thai Phinthu Mai Ek Reordering" uni0E3A
EndChar

StartChar: uni0E49
Encoding: 3657 3657 8
Width: 0
Flags: W
HStem: 773 245
VStem: 16 113<942.559 999.738>
AnchorPoint: "AboveMark" 121 1038 basemark 0
AnchorPoint: "AboveMark" 66 780 mark 0
LayerCount: 3
Fore
SplineSet
125 942 m 1
 200 1010 201 1018 222 1018 c 0
 238 1018 243 1008 243 999 c 0
 243 997 242 995 242 993 c 0
 230 957 170 920 155 902 c 1
 149 890 35 802 16 800 c 1
 7 797 -17 773 -36 773 c 0
 -47 773 -57 779 -57 790 c 0
 -57 807 -39 832 7 873 c 1
 26 891 l 1
 21 909 16 916 16 930 c 0
 16 937 17 945 20 957 c 0
 29 997 36 1010 76 1010 c 0
 103 1010 104 1007 117 991 c 0
 125 981 129 977 129 967 c 0
 129 961 127 954 125 942 c 1
EndSplineSet
Validated: 1
Layer: 2
SplineSet
125 942 m 1,0,1
 141 956 141 956 156.5 971 c 128,-1,2
 172 986 172 986 179 992.5 c 128,-1,3
 186 999 186 999 193.5 1005.5 c 128,-1,4
 201 1012 201 1012 204.5 1014 c 128,-1,5
 208 1016 208 1016 212 1017 c 128,-1,6
 216 1018 216 1018 222 1018 c 0,7,8
 243 1018 243 1018 243 999 c 0,9,10
 243 998 243 998 242.5 996 c 128,-1,11
 242 994 242 994 242 993 c 0,12,13
 237 977 237 977 219 959 c 128,-1,14
 201 941 201 941 180.5 924.5 c 128,-1,15
 160 908 160 908 155 902 c 0,16,17
 150 892 150 892 89.5 846.5 c 128,-1,18
 29 801 29 801 16 800 c 0,19,20
 15 800 15 800 -5 786.5 c 128,-1,21
 -25 773 -25 773 -36 773 c 0,22,23
 -57 773 -57 773 -57 790 c 0,24,25
 -57 816 -57 816 7 873 c 2,26,-1
 26 891 l 1,27,28
 16 927 16 927 16 930 c 0,29,30
 16 941 16 941 20 957 c 0,31,32
 27 989 27 989 37 999.5 c 128,-1,33
 47 1010 47 1010 76 1010 c 0,34,35
 95 1010 95 1010 100.5 1007 c 128,-1,36
 106 1004 106 1004 117 991 c 0,37,38
 129 976 129 976 129 967 c 0,39,40
 129 966 129 966 125 942 c 1,0,1
EndSplineSet
Substitution2: "Thai Mai Tho Macron Reordering" macronbelowcmb
Substitution2: "Thai Mai Tho Tilde Reordering" tildecomb
MultipleSubs2: "Thai Tone Nikhahit Attachment" uni0E4D uni0E49
Substitution2: "Thai Tone Low Variant" uni0E49.low
Substitution2: "Thai Sara U Mai Tho Reordering" uni0E38
Substitution2: "Thai Sara UU Mai Tho Reordering" uni0E39
Substitution2: "Thai Phinthu Mai Tho Reordering" uni0E3A
EndChar

StartChar: uni0E4B
Encoding: 3659 3659 9
Width: 0
Flags: W
HStem: 884 55<139 190>
VStem: 81 60<939.657 1007.26>
AnchorPoint: "AboveMark" 118 1038 basemark 0
AnchorPoint: "AboveMark" 63 780 mark 0
LayerCount: 3
Fore
SplineSet
141 983 m 0
 141 968 137 953 134 939 c 1
 200 937 l 1
 190 887 l 1
 144 884 l 1
 139 884 l 1
 104 838 l 1
 95 808 l 1
 41 808 l 1
 50 842 l 2
 55 863 58 875 61 883 c 1
 34 880 6 864 -11 864 c 0
 -24 864 -27 874 -27 885 c 0
 -27 889 -27 894 -26 898 c 0
 -21 922 25 936 62 938 c 2
 80 939 l 1
 81 957 l 2
 84 1006 101 1010 120 1010 c 0
 134 1010 141 1002 141 983 c 0
EndSplineSet
Validated: 1
Layer: 2
SplineSet
141 983 m 0,0,1
 141 972 141 972 134 939 c 1,2,-1
 200 937 l 1,3,-1
 190 887 l 1,4,-1
 144 884 l 1,5,-1
 139 884 l 1,6,-1
 104 838 l 1,7,-1
 95 808 l 1,8,-1
 41 808 l 1,9,-1
 50 842 l 2,10,11
 58 874 58 874 61 883 c 1,12,13
 47 881 47 881 22 872.5 c 128,-1,14
 -3 864 -3 864 -11 864 c 0,15,16
 -27 864 -27 864 -27 885 c 0,17,18
 -27 894 -27 894 -26 898 c 0,19,20
 -23 915 -23 915 4 925.5 c 128,-1,21
 31 936 31 936 62 938 c 2,22,-1
 80 939 l 1,23,-1
 81 957 l 2,24,25
 83 990 83 990 92.5 1000 c 128,-1,26
 102 1010 102 1010 120 1010 c 0,27,28
 141 1010 141 1010 141 983 c 0,0,1
EndSplineSet
Substitution2: "Thai Mai Chattawa Macron Reordering" macronbelowcmb
Substitution2: "Thai Mai Chattawa Tilde Reordering" tildecomb
MultipleSubs2: "Thai Tone Nikhahit Attachment" uni0E4D uni0E4B
Substitution2: "Thai Tone Low Variant" uni0E4B.low
Substitution2: "Thai Sara U Mai Chattawa Reordering" uni0E38
Substitution2: "Thai Sara UU Mai Chattawa Reordering" uni0E39
Substitution2: "Thai Phinthu Mai Chattawa Reordering" uni0E3A
EndChar

StartChar: uni0E4C
Encoding: 3660 3660 10
Width: 0
Flags: W
HStem: 928 59<62.7839 148.639>
VStem: -14 140<831.293 894.879>
AnchorPoint: "AboveMark" 126 1038 basemark 0
AnchorPoint: "AboveMark" 71 780 mark 0
LayerCount: 3
Fore
SplineSet
263 1044 m 0
 263 1022 192 898 167 898 c 0
 145 898 140 928 112 928 c 0
 90 928 67 911 59 903 c 1
 78 895 126 904 126 871 c 0
 126 829 75 811 41 811 c 0
 12 811 -14 839 -14 869 c 0
 -14 916 71 987 115 987 c 0
 135 987 156 982 167 977 c 1
 194 1016 207 1065 240 1065 c 0
 258 1065 263 1053 263 1044 c 0
EndSplineSet
Validated: 1
Layer: 2
SplineSet
263 1044 m 0,0,1
 263 1025 263 1025 223.5 961.5 c 128,-1,2
 184 898 184 898 167 898 c 0,3,4
 157 898 157 898 142 913 c 128,-1,5
 127 928 127 928 112 928 c 0,6,7
 84 928 84 928 59 903 c 1,8,9
 65 901 65 901 83.5 899 c 128,-1,10
 102 897 102 897 114 891.5 c 128,-1,11
 126 886 126 886 126 871 c 0,12,13
 126 842 126 842 98.5 826.5 c 128,-1,14
 71 811 71 811 41 811 c 0,15,16
 19 811 19 811 2.5 828.5 c 128,-1,17
 -14 846 -14 846 -14 869 c 0,18,19
 -14 903 -14 903 33.5 945 c 128,-1,20
 81 987 81 987 115 987 c 0,21,22
 145 987 145 987 167 977 c 1,23,24
 175 988 175 988 189 1015 c 128,-1,25
 203 1042 203 1042 214 1053.5 c 128,-1,26
 225 1065 225 1065 240 1065 c 0,27,28
 263 1065 263 1065 263 1044 c 0,0,1
EndSplineSet
Substitution2: "Thai Thanthakhat Macron Reordering" macronbelowcmb
MultipleSubs2: "Thai Tone Nikhahit Attachment" uni0E4D uni0E4C
Substitution2: "Thai Tone Low Variant" uni0E4C.low
Substitution2: "Thai Sara U Thanthakhat Reordering" uni0E38
Substitution2: "Thai Sara UU Thanthakhat Reordering" uni0E39
Substitution2: "Thai Phinthu Thanthakhat Reordering" uni0E3A
EndChar

StartChar: exclam
Encoding: 33 33 12
Width: 519
Flags: W
HStem: 6 130<234 310.245> 545 20G<336.5 360>
VStem: 198 153<34.1485 88.9152>
LayerCount: 3
Fore
SplineSet
317 503 m 0
 317 511 311 512 311 523 c 0
 311 526 312 530 313 535 c 0
 313 536 313 537 313 538 c 0
 315 547 321 565 352 565 c 0
 368 565 397 559 428 557 c 1
 475 551 l 1
 461 502 l 2
 443 442 397 379 345 249 c 0
 334 222 319 211 306 211 c 0
 289 211 283 223 283 248 c 0
 283 269 308 468 308 468 c 2
 310 479 317 496 317 503 c 0
351 97 m 0
 351 61 311 -11 274 -11 c 0
 255 -11 243 6 235 6 c 0
 233 6 232 6 230 4 c 1
 210 7 198 26 198 43 c 0
 198 72 242 120 266 131 c 0
 277 136 290 136 296 136 c 0
 340 136 351 117 351 97 c 0
EndSplineSet
Validated: 1
Layer: 2
SplineSet
317 503 m 128,-1,1
 317 507 317 507 314 512 c 128,-1,2
 311 517 311 517 311 523 c 0,3,4
 311 525 311 525 313 535 c 2,5,-1
 313 538 l 1,6,7
 319 565 319 565 352 565 c 0,8,9
 360 565 360 565 386 561.5 c 128,-1,10
 412 558 412 558 428 557 c 2,11,-1
 475 551 l 1,12,-1
 461 502 l 2,13,14
 452 473 452 473 412 394.5 c 128,-1,15
 372 316 372 316 345 249 c 0,16,17
 330 211 330 211 306 211 c 0,18,19
 283 211 283 211 283 248 c 1,20,-1
 308 468 l 2,21,22
 309 473 309 473 313 486 c 128,-1,0
 317 499 317 499 317 503 c 128,-1,1
351 97 m 0,23,24
 351 67 351 67 325.5 28 c 128,-1,25
 300 -11 300 -11 274 -11 c 0,26,27
 263 -11 263 -11 250.5 -2.5 c 128,-1,28
 238 6 238 6 235 6 c 128,-1,29
 232 6 232 6 230 4 c 0,30,31
 216 6 216 6 207 17.5 c 128,-1,32
 198 29 198 29 198 43 c 0,33,34
 198 63 198 63 222 92.5 c 128,-1,35
 246 122 246 122 266 131 c 0,36,37
 277 136 277 136 296 136 c 0,38,39
 351 136 351 136 351 97 c 0,23,24
EndSplineSet
EndChar

StartChar: quotedbl
Encoding: 34 34 13
Width: 572
Flags: W
HStem: 457 291<455.783 490.172>
VStem: 302 113<484.577 688.335> 419 105<513.313 683.216> 421 85<469.779 510.487>
LayerCount: 3
Fore
SplineSet
487 748 m 0xe0
 500 748 524 735 524 678 c 0xe0
 524 636 515 574 506 531 c 0
 497 487 487 457 458 457 c 0
 442 457 426 468 421 486 c 0xd0
 419 492 419 500 419 511 c 0
 419 555 430 633 439 676 c 0
 445 703 456 748 487 748 c 0xe0
302 555 m 0
 302 637 316 722 372 722 c 0
 405 722 415 687 415 576 c 0
 415 506 389 457 351 457 c 0
 304 457 302 513 302 555 c 0
EndSplineSet
Validated: 1
Layer: 2
SplineSet
487 748 m 0,0,1
 500 748 500 748 512 732 c 128,-1,2
 524 716 524 716 524 678 c 0,3,4
 524 617 524 617 506 531 c 0,5,6
 498 493 498 493 488 475 c 128,-1,7
 478 457 478 457 458 457 c 0,8,9
 429 457 429 457 421 486 c 0,10,11
 419 492 419 492 419 511 c 0,12,13
 419 580 419 580 439 676 c 0,14,15
 455 748 455 748 487 748 c 0,0,1
302 555 m 0,16,17
 302 722 302 722 372 722 c 0,18,19
 397 722 397 722 406 690.5 c 128,-1,20
 415 659 415 659 415 576 c 0,21,22
 415 523 415 523 397 490 c 128,-1,23
 379 457 379 457 351 457 c 0,24,25
 334 457 334 457 323.5 465.5 c 128,-1,26
 313 474 313 474 308.5 491 c 128,-1,27
 304 508 304 508 303 521.5 c 128,-1,28
 302 535 302 535 302 555 c 0,16,17
EndSplineSet
EndChar

StartChar: numbersign
Encoding: 35 35 14
Width: 655
Flags: W
HStem: 132 86<125.561 208.785>
VStem: 180 103<29.7917 102.617>
LayerCount: 3
Fore
SplineSet
359 236 m 2
 373 239 397 244 407 247 c 1
 424 256 458 355 465 388 c 0
 466 392 467 395 461 395 c 0
 457 395 449 392 436 389 c 0
 396 380 397 388 359 270 c 2
 347 233 l 1
 359 236 l 2
652 481 m 0
 652 447 602 409 578 409 c 0
 572 409 570 410 569 410 c 0
 564 402 554 379 526 303 c 2
 516 276 l 1
 565 280 l 2
 586 282 601 283 611 283 c 0
 626 283 638 279 638 266 c 0
 638 264 637 262 637 260 c 0
 627 211 587 204 548 194 c 0
 467 174 467 174 457 131 c 0
 440 55 420 23 378 18 c 2
 332 13 l 1
 376 152 l 1
 356 152 l 2
 313 152 309 148 283 80 c 0
 275 59 246 -22 210 -22 c 0
 194 -22 180 -12 180 15 c 0
 180 28 184 48 194 79 c 2
 211 132 l 1
 168 132 l 2
 127 132 95 134 95 156 c 0
 95 193 157 214 199 218 c 0
 273 225 250 238 308 363 c 1
 252 357 l 2
 231 355 212 353 199 353 c 0
 180 353 169 357 169 373 c 0
 169 418 205 429 237 438 c 0
 344 466 330 423 361 517 c 0
 372 550 383 585 421 585 c 0
 440 585 447 575 447 556 c 0
 447 548 445 537 443 526 c 2
 438 502 l 2
 435 489 434 479 440 479 c 0
 523 480 523 537 549 574 c 0
 558 587 575 596 589 596 c 0
 603 596 614 588 614 568 c 0
 614 563 613 558 612 552 c 1
 613 507 l 1
 624 507 652 506 652 481 c 0
EndSplineSet
Validated: 1
Layer: 2
SplineSet
359 236 m 2,0,1
 399 245 399 245 407 247 c 0,2,3
 419 253 419 253 439 305 c 128,-1,4
 459 357 459 357 465 388 c 0,5,6
 467 395 467 395 461 395 c 0,7,8
 459 395 459 395 456 394 c 128,-1,9
 453 393 453 393 447 391.5 c 128,-1,10
 441 390 441 390 436 389 c 0,11,12
 407.531474886 382.594581849 407.531474886 382.594581849 400.865889213 375.539358601 c 0,13,14
 388.320792911 361.005011986 388.320792911 361.005011986 359 270 c 2,15,-1
 347 233 l 1,16,-1
 359 236 l 2,0,1
652 481 m 0,17,18
 652 457 652 457 625 433 c 128,-1,19
 598 409 598 409 578 409 c 0,20,21
 574 409 574 409 570.194906092 409.796604061 c 2,22,-1
 569 410 l 1,23,24
 560 396 560 396 526 303 c 2,25,-1
 516 276 l 1,26,-1
 565 280 l 2,27,28
 596 283 596 283 611 283 c 0,29,30
 638 283 638 283 638 266 c 0,31,32
 638 265 638 265 637.5 263 c 128,-1,33
 637 261 637 261 637 260 c 0,34,35
 633 239 633 239 618.5 225 c 128,-1,36
 604 211 604 211 592.5 207 c 128,-1,37
 581 203 581 203 555.210095233 195.824055307 c 0,38,39
 553 195 553 195 551.5 194.5 c 128,-1,40
 550 194 550 194 548 194 c 0,41,42
 487 179 487 179 475.5 171 c 128,-1,43
 464 163 464 163 457 131 c 0,44,45
 444 73 444 73 426.5 47.5 c 128,-1,46
 409 22 409 22 378 18 c 2,47,-1
 332 13 l 1,48,-1
 376 152 l 1,49,-1
 356 152 l 2,50,51
 324 152 324 152 313.5 141.5 c 128,-1,52
 303 131 303 131 283 80 c 0,53,54
 244 -22 244 -22 210 -22 c 0,55,56
 180 -22 180 -22 180 15 c 0,57,58
 180 36 180 36 194 79 c 2,59,-1
 211 132 l 1,60,-1
 168 132 l 2,61,62
 131 132 131 132 113 136.5 c 128,-1,63
 95 141 95 141 95 156 c 0,64,65
 95 181 95 181 128 197.5 c 128,-1,66
 161 214 161 214 199 218 c 0,67,68
 222 220 222 220 233 223 c 128,-1,69
 244 226 244 226 253 237 c 128,-1,70
 262 248 262 248 266 259 c 128,-1,71
 270 270 270 270 282 301.5 c 128,-1,72
 294 333 294 333 308 363 c 1,73,-1
 252 357 l 2,74,75
 210 353 210 353 199 353 c 0,76,77
 169 353 169 353 169 373 c 0,78,79
 169 394 169 394 180.5 408 c 128,-1,80
 192 422 192 422 204 427 c 128,-1,81
 216 432 216 432 237 438 c 0,82,83
 264 445 264 445 287.5 448.5 c 128,-1,84
 311 452 311 452 318 450.5 c 128,-1,85
 325 449 325 449 334 457 c 128,-1,86
 343 465 343 465 346.5 475 c 128,-1,87
 350 485 350 485 361 517 c 0,88,89
 369 540 369 540 373.5 551 c 128,-1,90
 378 562 378 562 390.5 573.5 c 128,-1,91
 403 585 403 585 421 585 c 0,92,93
 447 585 447 585 447 556 c 0,94,95
 447 548 447 548 443 526 c 2,96,-1
 438 502 l 2,97,98
 433 479 433 479 440 479 c 0,99,100
 469 479 469 479 488.5 489.5 c 128,-1,101
 508 500 508 500 515.5 512 c 128,-1,102
 523 524 523 524 533 544.5 c 128,-1,103
 543 565 543 565 549 574 c 0,104,105
 564 596 564 596 589 596 c 128,-1,106
 614 596 614 596 614 568 c 0,107,108
 614 564 614 564 612 552 c 2,109,-1
 613 507 l 1,110,111
 652 507 652 507 652 481 c 0,17,18
EndSplineSet
EndChar

StartChar: dollar
Encoding: 36 36 15
Width: 706
Flags: W
VStem: 243 100<411.269 459.204> 498 84<200.972 302.097>
DStem2: 267 21 329 -48 0.334253 0.942483<-153.725 66.7903>
LayerCount: 3
Fore
SplineSet
394 112 m 1
 440 142 498 212 498 260 c 0
 498 291 471 308 457 315 c 1
 436 287 408 178 398 131 c 2
 394 112 l 1
343 439 m 0
 343 430 368 407 380 397 c 1
 388 414 402 454 410 491 c 0
 411 497 412 503 413 509 c 1
 397 492 l 2
 361 454 343 441 343 439 c 0
606 737 m 0
 606 716 572 646 555 591 c 2
 552 581 l 1
 572 573 635 508 635 485 c 0
 635 479 629 457 603 457 c 0
 572 457 544 490 523 503 c 1
 517 490 509 470 503 453 c 2
 485 396 l 1
 513 384 l 2
 560 364 582 321 582 277 c 0
 582 198 499 90 414 67 c 0
 368 55 361 47 329 -48 c 0
 307 -116 299 -132 291 -139 c 1
 287 -141 266 -147 249 -147 c 0
 228 -147 222 -139 222 -127 c 0
 222 -110 248 -25 267 21 c 2
 292 83 l 1
 267 109 l 2
 229 148 200 179 176 236 c 0
 173 243 172 248 172 253 c 0
 172 274 186 283 187 287 c 0
 188 293 196 294 203 294 c 0
 206 294 215 294 224 286 c 0
 245 267 294 232 324 183 c 1
 328 193 l 1
 347 246 351 311 353 320 c 1
 352 326 347 329 334 331 c 0
 276 343 243 380 243 415 c 0
 243 460 318 556 408 580 c 1
 439 593 443 591 468 649 c 0
 507 737 509 745 540 753 c 0
 547 755 560 757 572 757 c 0
 589 757 606 753 606 737 c 0
EndSplineSet
Validated: 1
Layer: 2
SplineSet
394 112 m 1,0,1
 431 136 431 136 464.5 181 c 128,-1,2
 498 226 498 226 498 260 c 128,-1,3
 498 294 498 294 457 315 c 1,4,5
 429 278 429 278 398 131 c 2,6,-1
 394 112 l 1,0,1
343 439 m 0,7,8
 343 428 343 428 380 397 c 1,9,10
 398 435 398 435 410 491 c 2,11,12
 413 509 l 1,13,-1
 397 492 l 2,14,15
 382 476 382 476 368 462.5 c 128,-1,16
 354 449 354 449 348.5 444.5 c 128,-1,17
 343 440 343 440 343 439 c 0,7,8
606 737 m 0,18,19
 606 728 606 728 597 704 c 128,-1,20
 588 680 588 680 575 646.5 c 128,-1,21
 562 613 562 613 555 591 c 2,22,-1
 552 581 l 1,23,24
 569 574 569 574 602 537.5 c 128,-1,25
 635 501 635 501 635 485 c 0,26,27
 635 477 635 477 627.5 467 c 128,-1,28
 620 457 620 457 603 457 c 0,29,30
 589 457 589 457 574.5 465 c 128,-1,31
 560 473 560 473 544.5 486 c 128,-1,32
 529 499 529 499 523 503 c 1,33,34
 513 481 513 481 503 453 c 2,35,-1
 485 396 l 1,36,-1
 513 384 l 2,37,38
 547 370 547 370 564.5 341 c 128,-1,39
 582 312 582 312 582 277 c 0,40,41
 582 217 582 217 529.5 150.5 c 128,-1,42
 477 84 477 84 414 67 c 0,43,44
 379 58 379 58 366 40.5 c 128,-1,45
 353 23 353 23 329 -48 c 0,46,47
 303 -129 303 -129 291 -139 c 0,48,49
 275 -147 275 -147 249 -147 c 0,50,51
 222 -147 222 -147 222 -127 c 0,52,53
 222 -114 222 -114 237.5 -64 c 128,-1,54
 253 -14 253 -14 267 21 c 2,55,-1
 292 83 l 1,56,-1
 267 109 l 2,57,58
 244 133 244 133 231 147.5 c 128,-1,59
 218 162 218 162 202.5 185.5 c 128,-1,60
 187 209 187 209 176 236 c 0,61,62
 172 245 172 245 172 253 c 0,63,64
 172 262 172 262 175.5 269.5 c 128,-1,65
 179 277 179 277 183 281.5 c 128,-1,66
 187 286 187 286 187 287 c 0,67,68
 188 294 188 294 203 294 c 0,69,70
 215 294 215 294 224 286 c 0,71,72
 227 283 227 283 243.5 269.5 c 128,-1,73
 260 256 260 256 271.5 245.5 c 128,-1,74
 283 235 283 235 298.5 217.5 c 128,-1,75
 314 200 314 200 324 183 c 1,76,-1
 328 193 l 2,77,78
 336 217 336 217 342 245.5 c 128,-1,79
 348 274 348 274 350.5 296.5 c 128,-1,80
 353 319 353 319 353 320 c 0,81,82
 352 328 352 328 334 331 c 0,83,84
 292 340 292 340 267.5 364 c 128,-1,85
 243 388 243 388 243 415 c 0,86,87
 243 452 243 452 294 507.5 c 128,-1,88
 345 563 345 563 408 580 c 1,89,90
 435.806983336 591.660993012 435.806983336 591.660993012 443.355469713 601.210076436 c 0,91,92
 452.804493532 613.874950977 452.804493532 613.874950977 468 649 c 0,93,94
 499 719 499 719 508.5 733 c 128,-1,95
 518 747 518 747 540 753 c 0,96,97
 554 757 554 757 572 757 c 0,98,99
 606 757 606 757 606 737 c 0,18,19
EndSplineSet
EndChar

StartChar: percent
Encoding: 37 37 16
Width: 786
Flags: W
HStem: 544 20G<760 783.5>
VStem: 238 136<376.296 455.088>
LayerCount: 3
Fore
SplineSet
775 564 m 0
 792 564 798 554 798 541 c 0
 798 471 609 359 449 203 c 0
 415 170 319 95 260 52 c 0
 183 -5 130 -47 103 -47 c 0
 87 -47 72 -36 72 -19 c 0
 72 5 100 37 185 101 c 0
 298 187 466 329 558 416 c 0
 628 482 745 564 775 564 c 0
238 382 m 0
 238 441 281 499 318 499 c 0
 340 499 374 476 374 436 c 0
 374 391 328 329 277 329 c 0
 252 329 238 351 238 382 c 0
662 147 m 0
 662 118 595 29 528 29 c 0
 502 29 475 47 475 71 c 0
 475 103 561 208 613 208 c 0
 650 208 662 167 662 147 c 0
EndSplineSet
Validated: 1
Layer: 2
SplineSet
775 564 m 0,0,1
 798 564 798 564 798 541 c 0,2,3
 798 517 798 517 764.5 479.5 c 128,-1,4
 731 442 731 442 685.5 405.5 c 128,-1,5
 640 369 640 369 569.5 310.5 c 128,-1,6
 499 252 499 252 449 203 c 0,7,8
 394 150 394 150 260 52 c 0,9,10
 251 46 251 46 235.5 34 c 128,-1,11
 220 22 220 22 212 16.5 c 128,-1,12
 204 11 204 11 191 1.5 c 128,-1,13
 178 -8 178 -8 171.5 -13 c 128,-1,14
 165 -18 165 -18 154.5 -24.5 c 128,-1,15
 144 -31 144 -31 138 -34 c 128,-1,16
 132 -37 132 -37 125 -40.5 c 128,-1,17
 118 -44 118 -44 112.5 -45.5 c 128,-1,18
 107 -47 107 -47 103 -47 c 0,19,20
 90 -47 90 -47 81 -39 c 128,-1,21
 72 -31 72 -31 72 -19 c 0,22,23
 72 16 72 16 185 101 c 0,24,25
 389 257 389 257 558 416 c 0,26,27
 612 467 612 467 682.5 515.5 c 128,-1,28
 753 564 753 564 775 564 c 0,0,1
238 382 m 0,29,30
 238 425 238 425 264 462 c 128,-1,31
 290 499 290 499 318 499 c 0,32,33
 337 499 337 499 355.5 481.5 c 128,-1,34
 374 464 374 464 374 436 c 0,35,36
 374 400 374 400 344 364.5 c 128,-1,37
 314 329 314 329 277 329 c 0,38,39
 259 329 259 329 248.5 343.5 c 128,-1,40
 238 358 238 358 238 382 c 0,29,30
662 147 m 0,41,42
 662 120 662 120 617.5 74.5 c 128,-1,43
 573 29 573 29 528 29 c 0,44,45
 508 29 508 29 491.5 41.5 c 128,-1,46
 475 54 475 54 475 71 c 0,47,48
 475 98 475 98 526 153 c 128,-1,49
 577 208 577 208 613 208 c 0,50,51
 638 208 638 208 650 187.5 c 128,-1,52
 662 167 662 167 662 147 c 0,41,42
EndSplineSet
EndChar

StartChar: ampersand
Encoding: 38 38 17
Width: 734
Flags: W
HStem: -58 96<203.001 256.301> 21 108<551.801 652.105>
VStem: 113 90<-2 117.681> 241 96<411.176 506.593> 400 92<484.078 537>
DStem2: 192 217 260 176 0.572182 0.820127<-124.35 64.6756>
LayerCount: 3
Fore
SplineSet
260 176 m 2xb8
 225 128 203 84 203 55 c 0
 203 46 205 39 211 38 c 1
 234 38 344 110 387 119 c 0
 392 120 397 121 399 122 c 1
 395 138 329 172 301 214 c 1
 295 224 l 1
 260 176 l 2xb8
492 548 m 0
 492 475 364 339 364 309 c 0
 364 287 430 212 453 212 c 1
 495 216 571 365 637 365 c 0
 655 365 675 350 675 330 c 0
 675 293 561 204 532 160 c 1
 555 156 562 130 589 129 c 0
 639 128 678 93 678 67 c 0
 678 58 668 21 620 21 c 0x78
 583 21 534 44 493 79 c 2
 468 100 l 1
 410 57 l 2
 371 28 238 -58 196 -58 c 0
 170 -58 113 -37 113 33 c 0
 113 70 130 128 192 217 c 2
 252 303 l 1
 247 353 l 2
 244 381 241 405 241 427 c 0
 241 521 280 560 349 597 c 0
 374 610 411 626 429 626 c 1
 429 626 467 621 472 617 c 0
 487 606 492 572 492 548 c 0
337 411 m 1
 378 436 389 473 393 493 c 0
 398 515 400 529 400 537 c 1
 358 516 354 510 344 460 c 0
 341 446 337 423 337 411 c 1
EndSplineSet
Validated: 1
Layer: 2
SplineSet
260 176 m 2,0,1
 203 98 203 98 203 55 c 0,2,3
 203 39 203 39 211 38 c 0,4,5
 222 38 222 38 293.5 76 c 128,-1,6
 365 114 365 114 387 119 c 0,7,8
 397 121 397 121 399 122 c 0,9,10
 397 129 397 129 356.5 160 c 128,-1,11
 316 191 316 191 301 214 c 2,12,-1
 295 224 l 1,13,-1
 260 176 l 2,0,1
492 548 m 0,14,15
 492 516 492 516 460 463 c 128,-1,16
 428 410 428 410 396 365 c 128,-1,17
 364 320 364 320 364 309 c 0,18,19
 364 292 364 292 400 252 c 128,-1,20
 436 212 436 212 453 212 c 0,21,22
 467 213 467 213 490.5 237.5 c 128,-1,23
 514 262 514 262 536 290 c 128,-1,24
 558 318 558 318 586.5 341.5 c 128,-1,25
 615 365 615 365 637 365 c 0,26,27
 651 365 651 365 663 354.5 c 128,-1,28
 675 344 675 344 675 330 c 0,29,30
 675 314 675 314 646 281.5 c 128,-1,31
 617 249 617 249 580 213 c 128,-1,32
 543 177 543 177 532 160 c 1,33,34
 542 158 542 158 558.5 144 c 128,-1,35
 575 130 575 130 589 129 c 0,36,37
 625 128 625 128 651.5 108 c 128,-1,38
 678 88 678 88 678 67 c 0,39,40
 678 54 678 54 664.5 37.5 c 128,-1,41
 651 21 651 21 620 21 c 0,42,43
 561 21 561 21 493 79 c 2,44,-1
 468 100 l 1,45,-1
 410 57 l 2,46,47
 367 25 367 25 295.5 -16.5 c 128,-1,48
 224 -58 224 -58 196 -58 c 0,49,50
 169 -58 169 -58 141 -35.5 c 128,-1,51
 113 -13 113 -13 113 33 c 0,52,53
 113 104 113 104 192 217 c 2,54,-1
 252 303 l 1,55,-1
 247 353 l 2,56,57
 241 409 241 409 241 427 c 0,58,59
 241 493 241 493 267 530 c 128,-1,60
 293 567 293 567 349 597 c 0,61,62
 405 626 405 626 429 626 c 0,63,64
 467 621 467 621 472 617 c 0,65,66
 492 602 492 602 492 548 c 0,14,15
337 411 m 1,67,68
 382 438 382 438 393 493 c 0,69,70
 400 524 400 524 400 537 c 1,71,72
 369 521 369 521 360.5 509.5 c 128,-1,73
 352 498 352 498 344 460 c 0,74,75
 337 427 337 427 337 411 c 1,67,68
EndSplineSet
EndChar

StartChar: quotesingle
Encoding: 39 39 18
Width: 613
Flags: W
HStem: 440 274<387.9 455.428>
VStem: 357 99<458.566 507.793>
LayerCount: 3
Fore
SplineSet
357 614 m 0
 357 626 371 714 433 714 c 0
 471 714 547 701 556 696 c 1
 560 691 562 688 562 681 c 0
 562 658 539 610 517 590 c 0
 497 571 473 486 456 461 c 0
 444 443 430 440 417 440 c 0
 384 440 357 474 357 524 c 0
 357 548 362 559 362 583 c 0
 362 602 357 602 357 614 c 0
EndSplineSet
Validated: 1
Layer: 2
SplineSet
357 614 m 0,0,1
 357 621 357 621 360.5 635 c 128,-1,2
 364 649 364 649 371.5 668 c 128,-1,3
 379 687 379 687 395.5 700.5 c 128,-1,4
 412 714 412 714 433 714 c 0,5,6
 460 714 460 714 504.5 707 c 128,-1,7
 549 700 549 700 556 696 c 0,8,9
 562 689 562 689 562 681 c 0,10,11
 562 664 562 664 547.5 634.5 c 128,-1,12
 533 605 533 605 517 590 c 0,13,14
 506 579 506 579 484.5 525 c 128,-1,15
 463 471 463 471 456 461 c 0,16,17
 442 440 442 440 417 440 c 128,-1,18
 392 440 392 440 374.5 463.5 c 128,-1,19
 357 487 357 487 357 524 c 0,20,21
 357 536 357 536 359.5 553.5 c 128,-1,22
 362 571 362 571 362 583 c 0,23,24
 362 593 362 593 359.5 601 c 128,-1,25
 357 609 357 609 357 614 c 0,0,1
EndSplineSet
EndChar

StartChar: parenleft
Encoding: 40 40 19
Width: 651
Flags: W
VStem: 229 109<125.974 340.015>
LayerCount: 3
Fore
SplineSet
466 -101 m 0
 466 -143 423 -153 407 -153 c 0
 325 -153 229 89 229 245 c 0
 229 319 235 324 363 600 c 0
 409 698 446 753 507 805 c 0
 553 844 588 857 605 857 c 0
 616 857 628 852 628 837 c 0
 628 818 600 782 567 742 c 0
 493 653 338 364 338 232 c 0
 338 162 395 18 430 -24 c 0
 458 -58 466 -83 466 -101 c 0
EndSplineSet
Validated: 1
Layer: 2
SplineSet
466 -101 m 0,0,1
 466 -128 466 -128 446 -140.5 c 128,-1,2
 426 -153 426 -153 407 -153 c 0,3,4
 368 -153 368 -153 325.5 -86 c 128,-1,5
 283 -19 283 -19 256 74.5 c 128,-1,6
 229 168 229 168 229 245 c 0,7,8
 229 298 229 298 245 338.5 c 128,-1,9
 261 379 261 379 363 600 c 0,10,11
 398 675 398 675 430 721 c 128,-1,12
 462 767 462 767 507 805 c 0,13,14
 568 857 568 857 605 857 c 0,15,16
 628 857 628 857 628 837 c 0,17,18
 628 816 628 816 567 742 c 0,19,20
 502 664 502 664 420 493.5 c 128,-1,21
 338 323 338 323 338 232 c 0,22,23
 338 182 338 182 370 95.5 c 128,-1,24
 402 9 402 9 430 -24 c 0,25,26
 466 -68 466 -68 466 -101 c 0,0,1
EndSplineSet
EndChar

StartChar: parenright
Encoding: 41 41 20
Width: 636
Flags: W
VStem: 445 116<379.714 674.798>
LayerCount: 3
Fore
SplineSet
361 801 m 0
 361 840 388 850 406 850 c 0
 468 850 550 733 559 628 c 0
 561 613 561 598 561 580 c 0
 561 460 522 253 478 158 c 0
 403 -4 333 -62 292 -132 c 0
 270 -170 243 -181 221 -181 c 0
 208 -181 170 -175 170 -154 c 0
 170 -142 200 -90 259 -8 c 0
 312 64 383 156 426 356 c 0
 440 423 445 480 445 528 c 0
 445 682 389 745 383 752 c 1
 369 759 361 780 361 801 c 0
EndSplineSet
Validated: 1
Layer: 2
SplineSet
361 801 m 0,0,1
 361 827 361 827 375 838.5 c 128,-1,2
 389 850 389 850 406 850 c 0,3,4
 453 850 453 850 502.5 778 c 128,-1,5
 552 706 552 706 559 628 c 0,6,7
 561 613 561 613 561 580 c 0,8,9
 561 489 561 489 536 358.5 c 128,-1,10
 511 228 511 228 478 158 c 0,11,12
 445 87 445 87 408.5 31.5 c 128,-1,13
 372 -24 372 -24 339 -66 c 128,-1,14
 306 -108 306 -108 292 -132 c 0,15,16
 264 -181 264 -181 221 -181 c 0,17,18
 206 -181 206 -181 188 -174.5 c 128,-1,19
 170 -168 170 -168 170 -154 c 0,20,21
 170 -132 170 -132 259 -8 c 0,22,23
 289 33 289 33 303.5 54.5 c 128,-1,24
 318 76 318 76 344.5 123 c 128,-1,25
 371 170 371 170 391 227.5 c 128,-1,26
 411 285 411 285 426 356 c 0,27,28
 445 447 445 447 445 528 c 0,29,30
 445 680 445 680 383 752 c 1,31,32
 361 763 361 763 361 801 c 0,0,1
EndSplineSet
EndChar

StartChar: asterisk
Encoding: 42 42 21
Width: 772
Flags: W
HStem: 305 116<615.488 708.273>
VStem: 291 99<521.818 601.486>
LayerCount: 3
Fore
SplineSet
223 110 m 0
 223 168 324 229 327 245 c 1
 315 256 224 239 196 281 c 0
 193 285 190 291 190 297 c 0
 190 302 192 321 225 331 c 0
 286 349 351 377 373 389 c 1
 360 416 291 494 291 554 c 0
 291 596 326 616 349 616 c 0
 373 616 392 598 392 572 c 0
 392 563 390 560 390 551 c 0
 390 536 396 525 402 519 c 1
 402 519 431 644 487 644 c 0
 513 644 518 626 518 592 c 0
 518 570 516 542 515 509 c 1
 534 528 631 644 692 644 c 0
 711 644 727 631 727 611 c 0
 727 586 705 563 685 548 c 0
 661 529 598 449 581 419 c 1
 588 418 599 418 614 418 c 0
 646 418 661 421 693 421 c 0
 722 421 739 413 739 385 c 0
 739 326 702 319 632 305 c 2
 611 301 l 1
 629 283 l 2
 644 269 660 255 660 238 c 0
 660 221 624 160 590 160 c 0
 560 160 502 224 478 238 c 1
 477 233 477 228 477 224 c 0
 477 200 492 194 492 176 c 0
 492 140 443 113 408 113 c 0
 396 113 388 116 379 116 c 0
 332 116 314 72 264 72 c 0
 239 72 223 87 223 110 c 0
EndSplineSet
Validated: 1
Layer: 2
SplineSet
223 110 m 0,0,1
 223 135 223 135 248 165 c 128,-1,2
 273 195 273 195 299.5 217.5 c 128,-1,3
 326 240 326 240 327 245 c 1,4,5
 323 249 323 249 295.5 249.5 c 128,-1,6
 268 250 268 250 238 256.5 c 128,-1,7
 208 263 208 263 196 281 c 0,8,9
 190 289 190 289 190 297 c 0,10,11
 190 320 190 320 225 331 c 0,12,13
 316 358 316 358 373 389 c 1,14,15
 370 395 370 395 347.5 427.5 c 128,-1,16
 325 460 325 460 308 493.5 c 128,-1,17
 291 527 291 527 291 554 c 0,18,19
 291 583 291 583 310 599.5 c 128,-1,20
 329 616 329 616 349 616 c 0,21,22
 367 616 367 616 379.5 603.5 c 128,-1,23
 392 591 392 591 392 572 c 0,24,25
 392 568 392 568 391 562 c 128,-1,26
 390 556 390 556 390 551 c 0,27,28
 390 531 390 531 402 519 c 1,29,30
 403 524 403 524 405.5 532.5 c 128,-1,31
 408 541 408 541 416 562.5 c 128,-1,32
 424 584 424 584 433 600.5 c 128,-1,33
 442 617 442 617 456.5 630.5 c 128,-1,34
 471 644 471 644 487 644 c 0,35,36
 505 644 505 644 511.5 632 c 128,-1,37
 518 620 518 620 518 592 c 0,38,39
 518 580 518 580 516.5 550.5 c 128,-1,40
 515 521 515 521 515 509 c 1,41,42
 516 510 516 510 534 529.5 c 128,-1,43
 552 549 552 549 568.5 565.5 c 128,-1,44
 585 582 585 582 608 601.5 c 128,-1,45
 631 621 631 621 653 632.5 c 128,-1,46
 675 644 675 644 692 644 c 0,47,48
 707 644 707 644 717 635 c 128,-1,49
 727 626 727 626 727 611 c 0,50,51
 727 580 727 580 685 548 c 0,52,53
 668 534 668 534 631 488 c 128,-1,54
 594 442 594 442 581 419 c 1,55,56
 588 418 588 418 614 418 c 0,57,58
 630 418 630 418 653.5 419.5 c 128,-1,59
 677 421 677 421 693 421 c 0,60,61
 739 421 739 421 739 385 c 0,62,63
 739 345 739 345 716.5 331 c 128,-1,64
 694 317 694 317 632 305 c 2,65,-1
 611 301 l 1,66,-1
 629 283 l 2,67,68
 660 254 660 254 660 238 c 128,-1,69
 660 222 660 222 636.5 191 c 128,-1,70
 613 160 613 160 590 160 c 0,71,72
 572 160 572 160 526.5 198.5 c 128,-1,73
 481 237 481 237 478 238 c 1,74,75
 477 233 477 233 477 224 c 0,76,77
 477 211 477 211 484.5 197.5 c 128,-1,78
 492 184 492 184 492 176 c 0,79,80
 492 151 492 151 464.5 132 c 128,-1,81
 437 113 437 113 408 113 c 0,82,83
 402 113 402 113 392.5 114.5 c 128,-1,84
 383 116 383 116 379 116 c 0,85,86
 356 116 356 116 322.5 94 c 128,-1,87
 289 72 289 72 264 72 c 0,88,89
 245 72 245 72 234 82.5 c 128,-1,90
 223 93 223 93 223 110 c 0,0,1
EndSplineSet
EndChar

StartChar: plus
Encoding: 43 43 22
Width: 715
Flags: W
VStem: 408 94<503.69 583.994>
DStem2: 273 396 301 296 0.982155 0.188072<-98.2445 64.4043>
LayerCount: 3
Fore
SplineSet
678 432 m 0
 703 430 713 411 713 391 c 0
 713 318 620 336 489 310 c 2
 464 305 l 1
 392 7 l 1
 300 7 l 1
 356 305 l 1
 301 296 l 2
 254 288 219 285 193 285 c 0
 161 285 144 292 144 315 c 0
 144 378 200 382 273 396 c 2
 367 414 l 1
 379 471 l 2
 385 499 396 549 408 565 c 0
 422 584 446 595 466 595 c 0
 494 595 502 577 502 550 c 0
 502 533 499 512 496 489 c 2
 487 409 l 1
 549 416 l 2
 626 425 666 432 678 432 c 0
EndSplineSet
Validated: 1
Layer: 2
SplineSet
678 432 m 0,0,1
 713 429 713 429 713 391 c 0,2,3
 713 370 713 370 703 357.5 c 128,-1,4
 693 345 693 345 670.5 338.5 c 128,-1,5
 648 332 648 332 625 329 c 128,-1,6
 602 326 602 326 561.5 321 c 128,-1,7
 521 316 521 316 489 310 c 2,8,-1
 464 305 l 1,9,-1
 392 7 l 1,10,-1
 300 7 l 1,11,-1
 356 305 l 1,12,-1
 301 296 l 2,13,14
 236 285 236 285 193 285 c 0,15,16
 144 285 144 285 144 315 c 0,17,18
 144 325 144 325 145.5 333.5 c 128,-1,19
 147 342 147 342 152 349 c 128,-1,20
 157 356 157 356 160.5 361 c 128,-1,21
 164 366 164 366 174 370.5 c 128,-1,22
 184 375 184 375 188.5 377.5 c 128,-1,23
 193 380 193 380 207.5 383 c 128,-1,24
 222 386 222 386 227 387 c 128,-1,25
 232 388 232 388 249.5 391.5 c 128,-1,26
 267 395 267 395 273 396 c 2,27,-1
 367 414 l 1,28,-1
 379 471 l 2,29,30
 396 548 396 548 408 565 c 0,31,32
 430 595 430 595 466 595 c 128,-1,33
 502 595 502 595 502 550 c 0,34,35
 502 535 502 535 496 489 c 2,36,-1
 487 409 l 1,37,-1
 549 416 l 2,38,39
 581 420 581 420 612.5 424 c 128,-1,40
 644 428 644 428 658.5 430 c 128,-1,41
 673 432 673 432 678 432 c 0,0,1
EndSplineSet
EndChar

StartChar: comma
Encoding: 44 44 23
Width: 496
Flags: W
VStem: 104 293
LayerCount: 3
Fore
SplineSet
362 209 m 0
 377 209 397 203 397 179 c 0
 397 147 357 87 294 2 c 0
 176 -158 162 -173 133 -173 c 0
 119 -173 104 -168 104 -147 c 0
 104 -113 147 -43 214 51 c 0
 305 178 332 209 362 209 c 0
EndSplineSet
Validated: 1
Layer: 2
SplineSet
362 209 m 0,0,1
 397 209 397 209 397 179 c 0,2,3
 397 141 397 141 294 2 c 0,4,5
 206 -118 206 -118 180.5 -145.5 c 128,-1,6
 155 -173 155 -173 133 -173 c 0,7,8
 104 -173 104 -173 104 -147 c 0,9,10
 104 -103 104 -103 214 51 c 0,11,12
 284 148 284 148 312 178.5 c 128,-1,13
 340 209 340 209 362 209 c 0,0,1
EndSplineSet
EndChar

StartChar: hyphen
Encoding: 45 45 24
Width: 931
Flags: W
HStem: 329 140<321.465 830.133>
LayerCount: 3
Fore
SplineSet
624 469 m 0
 866 469 908 463 922 430 c 0
 925 422 929 412 929 402 c 0
 929 343 831 336 529 329 c 2
 172 321 l 1
 192 386 l 2
 210 443 228 450 326 460 c 0
 377 465 505 469 624 469 c 0
EndSplineSet
Validated: 1
Layer: 2
SplineSet
624 469 m 0,0,1
 805 469 805 469 858 462 c 128,-1,2
 911 455 911 455 922 430 c 0,3,4
 929 411 929 411 929 402 c 0,5,6
 929 360 929 360 850 347.5 c 128,-1,7
 771 335 771 335 529 329 c 2,8,-1
 172 321 l 1,9,-1
 192 386 l 2,10,11
 205 428 205 428 228 440 c 128,-1,12
 251 452 251 452 326 460 c 0,13,14
 418 469 418 469 624 469 c 0,0,1
EndSplineSet
EndChar

StartChar: period
Encoding: 46 46 25
Width: 545
Flags: W
VStem: 125 322<9 76>
LayerCount: 3
Fore
SplineSet
125 -3 m 0
 125 76 270 170 291 170 c 0
 304 170 297 176 309 188 c 0
 319 198 332 202 344 202 c 0
 364 202 375 193 375 175 c 1
 377 173 382 170 390 170 c 0
 426 170 447 139 447 99 c 0
 447 9 325 -106 223 -106 c 0
 145 -106 125 -43 125 -3 c 0
270 25 m 1
 283 25 297 35 307 43 c 1
 286 41 272 31 270 25 c 1
EndSplineSet
Validated: 1
Layer: 2
SplineSet
125 -3 m 0,0,1
 125 33 125 33 162.5 75.5 c 128,-1,2
 200 118 200 118 239 144 c 128,-1,3
 278 170 278 170 291 170 c 0,4,5
 297 170 297 170 298.5 171.5 c 128,-1,6
 300 173 300 173 302 178 c 128,-1,7
 304 183 304 183 309 188 c 0,8,9
 323 202 323 202 344 202 c 0,10,11
 375 202 375 202 375 175 c 1,12,13
 380 170 380 170 390 170 c 0,14,15
 416 170 416 170 431.5 150 c 128,-1,16
 447 130 447 130 447 99 c 0,17,18
 447 31 447 31 373 -37.5 c 128,-1,19
 299 -106 299 -106 223 -106 c 0,20,21
 171 -106 171 -106 148 -74 c 128,-1,22
 125 -42 125 -42 125 -3 c 0,0,1
270 25 m 1,23,24
 284 25 284 25 307 43 c 1,25,26
 275 40 275 40 270 25 c 1,23,24
EndSplineSet
EndChar

StartChar: slash
Encoding: 47 47 26
Width: 772
Flags: W
DStem2: 280 155 211 -94 0.564684 0.825307<-251.47 875.935>
LayerCount: 3
Fore
SplineSet
120 -172 m 0
 103 -172 87 -165 87 -144 c 0
 87 -98 156 -27 280 155 c 2
 657 706 l 2
 722 801 720 879 790 879 c 0
 813 879 834 864 834 839 c 0
 834 803 794 766 731 657 c 0
 668 548 427 232 410 193 c 0
 404 178 365 121 334 78 c 2
 211 -94 l 2
 171 -149 149 -172 120 -172 c 0
EndSplineSet
Validated: 1
Layer: 2
SplineSet
120 -172 m 0,0,1
 87 -172 87 -172 87 -144 c 0,2,3
 87 -131 87 -131 94.5 -114 c 128,-1,4
 102 -97 102 -97 120 -70.5 c 128,-1,5
 138 -44 138 -44 158 -17 c 128,-1,6
 178 10 178 10 213 59 c 128,-1,7
 248 108 248 108 280 155 c 2,8,-1
 657 706 l 2,9,10
 680 739 680 739 702.5 789 c 128,-1,11
 725 839 725 839 742 859 c 128,-1,12
 759 879 759 879 790 879 c 0,13,14
 808 879 808 879 821 868 c 128,-1,15
 834 857 834 857 834 839 c 0,16,17
 834 823 834 823 823.5 803.5 c 128,-1,18
 813 784 813 784 784 741 c 128,-1,19
 755 698 755 698 731 657 c 0,20,21
 697 599 697 599 557.5 405 c 128,-1,22
 418 211 418 211 410 193 c 0,23,24
 401 171 401 171 334 78 c 2,25,-1
 211 -94 l 2,26,27
 179 -138 179 -138 160 -155 c 128,-1,28
 141 -172 141 -172 120 -172 c 0,0,1
EndSplineSet
EndChar

StartChar: zero
Encoding: 48 48 27
Width: 616
Flags: W
HStem: -4 87<222.124 329.114> 524 103<482.57 565.091>
VStem: 113 97<94.6135 206.702> 570 80<383.205 519.787>
LayerCount: 3
Fore
SplineSet
428 180 m 1
 437 214 535 295 566 441 c 0
 569 455 570 467 570 477 c 0
 570 513 552 524 525 524 c 0
 510 524 491 520 472 510 c 0
 383 466 210 221 210 140 c 0
 210 108 233 83 268 83 c 0
 295 83 316 93 365 127 c 0
 399 151 425 174 428 180 c 1
113 140 m 0
 113 219 284 423 293 467 c 0
 300 500 486 627 551 627 c 0
 591 627 650 582 650 486 c 0
 650 342 519 176 497 149 c 0
 470 116 370 -4 230 -4 c 0
 178 -4 142 22 123 89 c 0
 117 112 113 126 113 140 c 0
EndSplineSet
Validated: 1
Layer: 2
SplineSet
428 180 m 1,0,1
 431 191 431 191 459.5 227 c 128,-1,2
 488 263 488 263 520 320 c 128,-1,3
 552 377 552 377 566 441 c 0,4,5
 570 460 570 460 570 477 c 0,6,7
 570 524 570 524 525 524 c 0,8,9
 499 524 499 524 472 510 c 0,10,11
 429 489 429 489 366 415 c 128,-1,12
 303 341 303 341 256.5 260 c 128,-1,13
 210 179 210 179 210 140 c 0,14,15
 210 116 210 116 226 99.5 c 128,-1,16
 242 83 242 83 268 83 c 0,17,18
 302 83 302 83 365 127 c 0,19,20
 421 167 421 167 428 180 c 1,0,1
113 140 m 0,21,22
 113 174 113 174 156 246 c 128,-1,23
 199 318 199 318 244.5 384.5 c 128,-1,24
 290 451 290 451 293 467 c 0,25,26
 299 494 299 494 402 560.5 c 128,-1,27
 505 627 505 627 551 627 c 0,28,29
 586 627 586 627 618 589.5 c 128,-1,30
 650 552 650 552 650 486 c 0,31,32
 650 436 650 436 630.5 378.5 c 128,-1,33
 611 321 611 321 580.5 271.5 c 128,-1,34
 550 222 550 222 531.5 195.5 c 128,-1,35
 513 169 513 169 497 149 c 0,36,37
 372 -4 372 -4 230 -4 c 0,38,39
 149 -4 149 -4 123 89 c 0,40,41
 113 127 113 127 113 140 c 0,21,22
EndSplineSet
EndChar

StartChar: one
Encoding: 49 49 28
Width: 378
Flags: W
VStem: 147 269
LayerCount: 3
Fore
SplineSet
279 2 m 0
 259 2 248 12 248 49 c 0
 248 144 316 392 321 473 c 1
 288 444 216 357 175 357 c 0
 160 357 147 368 147 385 c 0
 147 417 179 431 220 472 c 2
 264 516 l 2
 310 561 344 631 388 631 c 0
 399 631 416 624 416 586 c 0
 416 536 338 78 313 21 c 1
 304 10 293 2 279 2 c 0
EndSplineSet
Validated: 1
Layer: 2
SplineSet
279 2 m 0,0,1
 263 2 263 2 255.5 12 c 128,-1,2
 248 22 248 22 248 49 c 0,3,4
 248 101 248 101 283.5 270 c 128,-1,5
 319 439 319 439 321 473 c 1,6,7
 315 468 315 468 281 433 c 128,-1,8
 247 398 247 398 220 377.5 c 128,-1,9
 193 357 193 357 175 357 c 0,10,11
 163 357 163 357 155 365 c 128,-1,12
 147 373 147 373 147 385 c 0,13,14
 147 400 147 400 154.5 410.5 c 128,-1,15
 162 421 162 421 185 440.5 c 128,-1,16
 208 460 208 460 220 472 c 2,17,-1
 264 516 l 2,18,19
 279 531 279 531 304.5 563.5 c 128,-1,20
 330 596 330 596 349 613.5 c 128,-1,21
 368 631 368 631 388 631 c 0,22,23
 416 631 416 631 416 586 c 0,24,25
 416 544 416 544 373 302.5 c 128,-1,26
 330 61 330 61 313 21 c 1,27,28
 297 2 297 2 279 2 c 0,0,1
EndSplineSet
EndChar

StartChar: two
Encoding: 50 50 29
Width: 850
Flags: W
HStem: 520 86<408.886 577.021>
VStem: 579 91<423.262 552.5>
LayerCount: 3
Fore
SplineSet
537 606 m 0
 600 606 670 588 670 517 c 0
 670 479 653 408 595 327 c 24
 520 222 439 128 375 75 c 1
 441 85 596 105 692 105 c 0
 741 105 780 101 780 73 c 0
 780 70 780 68 779 65 c 0
 767 8 715 44 522 12 c 0
 371 -13 302 -11 282 -24 c 0
 271 -31 257 -34 244 -34 c 0
 216 -34 189 -19 189 1 c 0
 189 36 317 128 330 136 c 0
 387 171 579 406 579 492 c 0
 579 512 564 520 510 520 c 0
 336 520 197 344 164 344 c 1
 160 349 152 344 152 361 c 0
 152 367 153 377 156 391 c 0
 170 458 215 446 226 472 c 1
 235 496 273 513 334 551 c 0
 358 567 442 606 537 606 c 0
EndSplineSet
Validated: 1
Layer: 2
SplineSet
537 606 m 0,0,1
 593 606 593 606 631.5 586 c 128,-1,2
 670 566 670 566 670 517 c 0,3,4
 670 432 670 432 595 327 c 0,5,6
 473 156 473 156 375 75 c 1,7,8
 573 105 573 105 692 105 c 0,9,10
 735 105 735 105 757.5 98.5 c 128,-1,11
 780 92 780 92 780 73 c 0,12,13
 780 68 780 68 779 65 c 0,14,15
 775 48 775 48 767 40.5 c 128,-1,16
 759 33 759 33 738.5 30.5 c 128,-1,17
 718 28 718 28 693.5 28 c 128,-1,18
 669 28 669 28 621 24 c 128,-1,19
 573 20 573 20 522 12 c 0,20,21
 461 2 461 2 401 -5 c 128,-1,22
 341 -12 341 -12 316 -15 c 128,-1,23
 291 -18 291 -18 282 -24 c 0,24,25
 266 -34 266 -34 244 -34 c 128,-1,26
 222 -34 222 -34 205.5 -24 c 128,-1,27
 189 -14 189 -14 189 1 c 0,28,29
 189 23 189 23 246 71 c 128,-1,30
 303 119 303 119 330 136 c 0,31,32
 380 167 380 167 479.5 300 c 128,-1,33
 579 433 579 433 579 492 c 0,34,35
 579 507 579 507 564.5 513.5 c 128,-1,36
 550 520 550 520 510 520 c 0,37,38
 451 520 451 520 388 492.5 c 128,-1,39
 325 465 325 465 283.5 432 c 128,-1,40
 242 399 242 399 208 371.5 c 128,-1,41
 174 344 174 344 164 344 c 0,42,43
 163 346 163 346 159.5 347 c 128,-1,44
 156 348 156 348 154 350.5 c 128,-1,45
 152 353 152 353 152 361 c 0,46,47
 152 372 152 372 156 391 c 0,48,49
 162 420 162 420 177 434.5 c 128,-1,50
 192 449 192 449 207 456 c 128,-1,51
 222 463 222 463 226 472 c 0,52,53
 229 479 229 479 234.5 485.5 c 128,-1,54
 240 492 240 492 251 499.5 c 128,-1,55
 262 507 262 507 271.5 513 c 128,-1,56
 281 519 281 519 300.5 530.5 c 128,-1,57
 320 542 320 542 334 551 c 0,58,59
 360 569 360 569 417.5 587.5 c 128,-1,60
 475 606 475 606 537 606 c 0,0,1
EndSplineSet
EndChar

StartChar: three
Encoding: 51 51 30
Width: 620
Flags: W
HStem: -10 82<230.5 371.67> 290 75<275.088 339.12>
VStem: 162 96<72 147.04> 521 99<215.328 330.841>
LayerCount: 3
Fore
SplineSet
204 510 m 1
 193 511 187 519 187 527 c 0
 187 534 191 542 200 547 c 0
 248 574 549 614 582 620 c 0
 610 625 625 629 635 629 c 0
 656 629 671 602 671 584 c 0
 671 557 611 515 502 423 c 1
 516 423 l 2
 563 423 620 363 620 311 c 0
 620 248 582 167 538 116 c 0
 472 39 344 -10 256 -10 c 0
 205 -10 162 7 162 69 c 0
 162 97 171 160 209 160 c 0
 239 160 258 127 258 97 c 0
 258 85 256 82 256 78 c 0
 256 72 261 72 279 72 c 0
 385 72 459 137 472 149 c 0
 516 191 521 272 521 288 c 0
 521 329 500 335 471 335 c 0
 380 335 360 290 313 290 c 0
 283 290 271 307 271 325 c 0
 271 345 285 365 305 365 c 1
 332 371 479 502 493 516 c 1
 407 510 238 480 225 480 c 0
 207 480 204 484 204 510 c 1
EndSplineSet
Validated: 1
Layer: 2
SplineSet
204 510 m 1,0,1
 187 512 187 512 187 527 c 0,2,3
 187 540 187 540 200 547 c 0,4,5
 217 556 217 556 276.5 569 c 128,-1,6
 336 582 336 582 395.5 591.5 c 128,-1,7
 455 601 455 601 516 610 c 128,-1,8
 577 619 577 619 582 620 c 0,9,10
 632 629 632 629 635 629 c 0,11,12
 650 629 650 629 660.5 614 c 128,-1,13
 671 599 671 599 671 584 c 0,14,15
 671 576 671 576 665 566.5 c 128,-1,16
 659 557 659 557 641.5 541 c 128,-1,17
 624 525 624 525 609.5 512.5 c 128,-1,18
 595 500 595 500 560 471.5 c 128,-1,19
 525 443 525 443 502 423 c 1,20,-1
 516 423 l 2,21,22
 551 423 551 423 585.5 386.5 c 128,-1,23
 620 350 620 350 620 311 c 0,24,25
 620 265 620 265 596 210.5 c 128,-1,26
 572 156 572 156 538 116 c 0,27,28
 490 60 490 60 407.5 25 c 128,-1,29
 325 -10 325 -10 256 -10 c 0,30,31
 162 -10 162 -10 162 69 c 0,32,33
 162 100 162 100 173 130 c 128,-1,34
 184 160 184 160 209 160 c 0,35,36
 230 160 230 160 244 140.5 c 128,-1,37
 258 121 258 121 258 97 c 0,38,39
 258 90 258 90 257 84.5 c 128,-1,40
 256 79 256 79 256 78 c 0,41,42
 256 72 256 72 279 72 c 0,43,44
 327 72 327 72 374 90.5 c 128,-1,45
 421 109 421 109 439.5 122.5 c 128,-1,46
 458 136 458 136 472 149 c 0,47,48
 492 168 492 168 504 200.5 c 128,-1,49
 516 233 516 233 518.5 253.5 c 128,-1,50
 521 274 521 274 521 288 c 0,51,52
 521 316 521 316 508.5 325.5 c 128,-1,53
 496 335 496 335 471 335 c 0,54,55
 420 335 420 335 375.5 312.5 c 128,-1,56
 331 290 331 290 313 290 c 0,57,58
 292 290 292 290 281.5 300 c 128,-1,59
 271 310 271 310 271 325 c 0,60,61
 271 341 271 341 280.5 353 c 128,-1,62
 290 365 290 365 305 365 c 0,63,64
 322 369 322 369 396.5 431.5 c 128,-1,65
 471 494 471 494 493 516 c 1,66,67
 456 513 456 513 391.5 504 c 128,-1,68
 327 495 327 495 278 487.5 c 128,-1,69
 229 480 229 480 225 480 c 0,70,71
 211 480 211 480 207.5 485.5 c 128,-1,72
 204 491 204 491 204 510 c 1,0,1
EndSplineSet
EndChar

StartChar: four
Encoding: 52 52 31
Width: 616
Flags: W
HStem: -17 21G<376 401.5> 255 83<511.781 616.686>
VStem: 356 88<-2.76538 190.618>
LayerCount: 3
Fore
SplineSet
236 255 m 1
 381 276 385 281 390 303 c 0
 394 324 397 345 401 384 c 2
 404 420 l 1
 373 393 l 2
 333 358 264 288 236 255 c 1
444 31 m 0
 444 12 414 -17 389 -17 c 0
 363 -17 356 15 356 55 c 0
 356 103 366 163 366 192 c 0
 366 197 366 201 365 204 c 1
 323 198 203 172 147 172 c 0
 117 172 105 182 105 198 c 0
 105 220 132 257 164 290 c 0
 273 402 468 585 494 585 c 1
 508 586 510 612 539 612 c 0
 560 612 570 595 570 581 c 0
 570 565 552 540 533 525 c 1
 510 504 506 497 491 425 c 0
 478 363 473 332 473 319 c 0
 473 312 474 310 476 310 c 0
 515 310 553 338 574 338 c 0
 605 338 625 320 625 299 c 0
 625 290 619 260 571 255 c 0
 558 254 522 245 497 238 c 2
 458 227 l 1
 447 155 l 2
 441 121 440 97 440 79 c 0
 440 52 444 40 444 31 c 0
EndSplineSet
Validated: 1
Layer: 2
SplineSet
236 255 m 1,0,1
 309 266 309 266 340 272.5 c 128,-1,2
 371 279 371 279 379 284.5 c 128,-1,3
 387 290 387 290 390 303 c 0,4,5
 396 334 396 334 401 384 c 2,6,-1
 404 420 l 1,7,-1
 373 393 l 2,8,9
 296 325 296 325 236 255 c 1,0,1
444 31 m 0,10,11
 444 16 444 16 425.5 -0.5 c 128,-1,12
 407 -17 407 -17 389 -17 c 0,13,14
 356 -17 356 -17 356 55 c 0,15,16
 356 81 356 81 361 130.5 c 128,-1,17
 366 180 366 180 366 192 c 0,18,19
 366 201 366 201 365 204 c 0,20,21
 354 202 354 202 306.5 193.5 c 128,-1,22
 259 185 259 185 215.5 178.5 c 128,-1,23
 172 172 172 172 147 172 c 0,24,25
 105 172 105 172 105 198 c 0,26,27
 105 229 105 229 164 290 c 0,28,29
 257 386 257 386 366.5 485.5 c 128,-1,30
 476 585 476 585 494 585 c 0,31,32
 499 585 499 585 511 598.5 c 128,-1,33
 523 612 523 612 539 612 c 0,34,35
 554 612 554 612 562 602.5 c 128,-1,36
 570 593 570 593 570 581 c 128,-1,37
 570 569 570 569 559 553 c 128,-1,38
 548 537 548 537 533 525 c 0,39,40
 515 509 515 509 508.5 493.5 c 128,-1,41
 502 478 502 478 491 425 c 0,42,43
 473 339 473 339 473 319 c 0,44,45
 473 310 473 310 476 310 c 0,46,47
 498 310 498 310 532 324 c 128,-1,48
 566 338 566 338 574 338 c 0,49,50
 597 338 597 338 611 326.5 c 128,-1,51
 625 315 625 315 625 299 c 0,52,53
 625 292 625 292 622 284.5 c 128,-1,54
 619 277 619 277 606 267 c 128,-1,55
 593 257 593 257 571 255 c 0,56,57
 553 254 553 254 497 238 c 2,58,-1
 458 227 l 1,59,-1
 447 155 l 2,60,61
 440 115 440 115 440 79 c 0,62,63
 440 63 440 63 442 48 c 128,-1,64
 444 33 444 33 444 31 c 0,10,11
EndSplineSet
EndChar

StartChar: five
Encoding: 53 53 32
Width: 549
Flags: W
HStem: -12 84<162.978 325.233> 355 77<350.546 448>
VStem: 88 52<94.8857 159.372> 443 82<212.834 354.927>
LayerCount: 3
Fore
SplineSet
361 507 m 2
 323 507 290 496 290 464 c 0
 290 456 292 450 292 439 c 0
 292 413 284 397 280 386 c 1
 291 391 l 2
 358 421 415 432 444 432 c 0
 452 432 470 432 482 426 c 0
 512 412 525 366 525 317 c 0
 525 272 516 237 503 206 c 0
 442 54 349 -12 198 -12 c 0
 146 -12 137 -7 114 32 c 0
 99 56 88 81 88 107 c 0
 88 130 100 162 118 162 c 0
 130 162 130 161 140 132 c 0
 155 85 184 72 255 72 c 0
 321 72 351 93 394 160 c 0
 422 203 443 263 443 307 c 0
 443 336 434 355 421 355 c 0
 395 355 314 322 279 292 c 0
 254 271 237 260 223 260 c 0
 212 260 203 266 193 279 c 0
 190 284 189 295 189 309 c 0
 189 377 226 558 254 571 c 0
 287 587 479 580 554 595 c 0
 575 600 593 601 605 601 c 0
 631 601 640 593 640 583 c 0
 640 579 638 570 630 563 c 0
 597 536 449 507 379 507 c 2
 361 507 l 2
EndSplineSet
Validated: 1
Layer: 2
SplineSet
361 507 m 2,0,1
 290 507 290 507 290 464 c 0,2,3
 290 460 290 460 291 452.5 c 128,-1,4
 292 445 292 445 292 439 c 0,5,6
 292 419 292 419 280 386 c 1,7,-1
 291 391 l 2,8,9
 383 432 383 432 444 432 c 0,10,11
 470 432 470 432 482 426 c 0,12,13
 525 406 525 406 525 317 c 0,14,15
 525 258 525 258 503 206 c 0,16,17
 457 92 457 92 384 40 c 128,-1,18
 311 -12 311 -12 198 -12 c 0,19,20
 159 -12 159 -12 145 -4.5 c 128,-1,21
 131 3 131 3 114 32 c 0,22,23
 88 74 88 74 88 107 c 0,24,25
 88 126 88 126 96.5 144 c 128,-1,26
 105 162 105 162 118 162 c 0,27,28
 127 162 127 162 129.5 158 c 128,-1,29
 132 154 132 154 140 132 c 0,30,31
 151 97 151 97 176 84.5 c 128,-1,32
 201 72 201 72 255 72 c 0,33,34
 304 72 304 72 332.5 90.5 c 128,-1,35
 361 109 361 109 394 160 c 0,36,37
 443 235 443 235 443 307 c 0,38,39
 443 355 443 355 421 355 c 0,40,41
 400 355 400 355 352 334.5 c 128,-1,42
 304 314 304 314 279 292 c 0,43,44
 241 260 241 260 223 260 c 0,45,46
 208 260 208 260 193 279 c 0,47,48
 189 286 189 286 189 309 c 0,49,50
 189 365 189 365 211.5 463.5 c 128,-1,51
 234 562 234 562 254 571 c 0,52,53
 271 579 271 579 394.5 583.5 c 128,-1,54
 518 588 518 588 554 595 c 0,55,56
 579 601 579 601 605 601 c 0,57,58
 640 601 640 601 640 583 c 0,59,60
 640 572 640 572 630 563 c 0,61,62
 606 544 606 544 520 525.5 c 128,-1,63
 434 507 434 507 379 507 c 2,64,-1
 361 507 l 2,0,1
EndSplineSet
EndChar

StartChar: six
Encoding: 54 54 33
Width: 495
Flags: W
HStem: -7 66<183.88 264.586> 249 76<278.119 386.296>
VStem: 88 90<61.0072 184.42> 396 84<164.104 236.956>
LayerCount: 3
Fore
SplineSet
303 98 m 0
 337 113 396 181 396 207 c 0
 396 236 351 249 334 249 c 0
 311 248 259 229 216 198 c 0
 198 185 178 174 178 114 c 0
 178 67 203 59 205 59 c 0
 211 59 222 61 303 98 c 0
243 286 m 1
 262 292 304 325 348 325 c 0
 390 325 446 302 466 275 c 0
 476 260 480 242 480 225 c 0
 480 168 450 151 423 111 c 0
 404 83 310 16 267 3 c 0
 252 -2 220 -7 190 -7 c 0
 124 -7 88 46 88 114 c 0
 88 128 90 142 93 157 c 0
 109 232 284 548 289 559 c 0
 302 583 323 619 361 619 c 0
 378 619 393 608 393 593 c 0
 393 548 256 346 243 286 c 1
EndSplineSet
Validated: 1
Layer: 2
SplineSet
303 98 m 0,0,1
 329 109 329 109 362.5 148.5 c 128,-1,2
 396 188 396 188 396 207 c 128,-1,3
 396 226 396 226 374 237.5 c 128,-1,4
 352 249 352 249 334 249 c 0,5,6
 315 248 315 248 280.5 234 c 128,-1,7
 246 220 246 220 216 198 c 0,8,9
 203 188 203 188 197.5 183 c 128,-1,10
 192 178 192 178 185 160 c 128,-1,11
 178 142 178 142 178 114 c 0,12,13
 178 93 178 93 185 79.5 c 128,-1,14
 192 66 192 66 197 62.5 c 128,-1,15
 202 59 202 59 205 59 c 0,16,17
 218 59 218 59 303 98 c 0,0,1
243 286 m 1,18,19
 249 288 249 288 267.5 298.5 c 128,-1,20
 286 309 286 309 307.5 317 c 128,-1,21
 329 325 329 325 348 325 c 0,22,23
 380 325 380 325 415.5 310 c 128,-1,24
 451 295 451 295 466 275 c 0,25,26
 480 254 480 254 480 225 c 0,27,28
 480 205 480 205 474.5 188 c 128,-1,29
 469 171 469 171 462.5 162 c 128,-1,30
 456 153 456 153 443 137 c 128,-1,31
 430 121 430 121 423 111 c 0,32,33
 408 89 408 89 353 51 c 128,-1,34
 298 13 298 13 267 3 c 0,35,36
 237 -7 237 -7 190 -7 c 0,37,38
 142 -7 142 -7 115 27 c 128,-1,39
 88 61 88 61 88 114 c 0,40,41
 88 132 88 132 93 157 c 0,42,43
 98 183 98 183 129.5 250 c 128,-1,44
 161 317 161 317 195 381.5 c 128,-1,45
 229 446 229 446 259 502 c 128,-1,46
 289 558 289 558 289 559 c 0,47,48
 322 619 322 619 361 619 c 0,49,50
 374 619 374 619 383.5 611.5 c 128,-1,51
 393 604 393 604 393 593 c 0,52,53
 393 569 393 569 321 441.5 c 128,-1,54
 249 314 249 314 243 286 c 1,18,19
EndSplineSet
EndChar

StartChar: seven
Encoding: 55 55 34
Width: 491
Flags: W
HStem: 529 95<355.125 456>
LayerCount: 3
Fore
SplineSet
217 334 m 0
 194 334 185 340 185 364 c 0
 185 377 188 395 193 420 c 2
 227 581 l 1
 427 614 l 2
 464 620 490 624 510 624 c 0
 544 624 557 610 557 585 c 0
 557 521 450 288 340 34 c 0
 327 4 313 -8 281 -8 c 0
 256 -8 244 -4 244 12 c 0
 244 45 308 179 333 229 c 0
 372 308 442 484 456 529 c 1
 444 529 l 2
 425 529 400 529 372 527 c 2
 293 522 l 1
 288 484 l 2
 287 474 284 463 282 452 c 0
 261 355 240 334 217 334 c 0
EndSplineSet
Validated: 1
Layer: 2
SplineSet
217 334 m 0,0,1
 199 334 199 334 192 340 c 128,-1,2
 185 346 185 346 185 364 c 0,3,4
 185 380 185 380 193 420 c 2,5,-1
 227 581 l 1,6,-1
 427 614 l 2,7,8
 489 624 489 624 510 624 c 0,9,10
 557 624 557 624 557 585 c 0,11,12
 557 572 557 572 551.5 549 c 128,-1,13
 546 526 546 526 533 491 c 128,-1,14
 520 456 520 456 507 423 c 128,-1,15
 494 390 494 390 471 336 c 128,-1,16
 448 282 448 282 431.5 244 c 128,-1,17
 415 206 415 206 386 139.5 c 128,-1,18
 357 73 357 73 340 34 c 0,19,20
 330 11 330 11 317 1.5 c 128,-1,21
 304 -8 304 -8 281 -8 c 0,22,23
 244 -8 244 -8 244 12 c 0,24,25
 244 51 244 51 333 229 c 0,26,27
 360 284 360 284 402 388 c 128,-1,28
 444 492 444 492 456 529 c 1,29,-1
 444 529 l 2,30,31
 400 529 400 529 372 527 c 2,32,-1
 293 522 l 1,33,-1
 288 484 l 2,34,35
 287 478 287 478 284.5 466 c 128,-1,36
 282 454 282 454 282 452 c 0,37,38
 267 384 267 384 251.5 359 c 128,-1,39
 236 334 236 334 217 334 c 0,0,1
EndSplineSet
EndChar

StartChar: eight
Encoding: 56 56 35
Width: 578
Flags: W
HStem: -22 83<276.11 357.957> 554 58<384.503 504.251>
VStem: 137 97<102.761 179.622> 181 105<374.694 477.16> 375 78<79.4506 175.56> 551 70<471.004 514.329>
LayerCount: 3
Fore
SplineSet
318 61 m 0xec
 338 61 375 89 375 118 c 0
 375 160 318 231 299 231 c 0
 289 231 234 186 234 151 c 0
 234 109 291 61 318 61 c 0xec
551 487 m 0
 551 499 497 554 439 554 c 0
 427 554 429 551 363 523 c 0
 315 502 286 450 286 433 c 0xdc
 286 409 313 363 327 346 c 1
 356 364 462 443 520 466 c 0
 540 474 551 483 551 487 c 0
453 135 m 0
 453 37 362 -22 303 -22 c 1
 212 -19 137 103 137 135 c 0xec
 137 164 215 256 248 280 c 0
 248 281 248 282 248 283 c 0
 248 311 181 347 181 415 c 0
 181 504 302 591 365 591 c 0
 391 591 376 612 459 612 c 0
 592 612 621 535 621 495 c 0
 621 413 402 325 402 287 c 0
 402 261 453 209 453 135 c 0
EndSplineSet
Validated: 1
Layer: 2
SplineSet
318 61 m 0,0,1
 335 61 335 61 355 79.5 c 128,-1,2
 375 98 375 98 375 118 c 0,3,4
 375 148 375 148 345 189.5 c 128,-1,5
 315 231 315 231 299 231 c 0,6,7
 289 231 289 231 261.5 202.5 c 128,-1,8
 234 174 234 174 234 151 c 0,9,10
 234 121 234 121 265 91 c 128,-1,11
 296 61 296 61 318 61 c 0,0,1
551 487 m 0,12,13
 551 500 551 500 514 527 c 128,-1,14
 477 554 477 554 439 554 c 0,15,16
 435 554 435 554 433 553.5 c 128,-1,17
 431 553 431 553 426 551 c 128,-1,18
 421 549 421 549 415 546 c 128,-1,19
 409 543 409 543 394.5 536.5 c 128,-1,20
 380 530 380 530 363 523 c 0,21,22
 331 509 331 509 308.5 479 c 128,-1,23
 286 449 286 449 286 433 c 128,-1,24
 286 417 286 417 300 389.5 c 128,-1,25
 314 362 314 362 327 346 c 1,26,27
 333 350 333 350 373.5 378 c 128,-1,28
 414 406 414 406 454 431 c 128,-1,29
 494 456 494 456 520 466 c 0,30,31
 551 478 551 478 551 487 c 0,12,13
453 135 m 0,32,33
 453 67 453 67 403.5 22.5 c 128,-1,34
 354 -22 354 -22 303 -22 c 0,35,36
 243 -20 243 -20 190 41 c 128,-1,37
 137 102 137 102 137 135 c 0,38,39
 137 155 137 155 178.5 207.5 c 128,-1,40
 220 260 220 260 248 280 c 1,41,-1
 248 283 l 2,42,43
 248 294 248 294 231 313 c 128,-1,44
 214 332 214 332 197.5 359 c 128,-1,45
 181 386 181 386 181 415 c 0,46,47
 181 477 181 477 247 534 c 128,-1,48
 313 591 313 591 365 591 c 0,49,50
 371 591 371 591 390.5 601.5 c 128,-1,51
 410 612 410 612 459 612 c 0,52,53
 506 612 506 612 540 600 c 128,-1,54
 574 588 574 588 590.5 568.5 c 128,-1,55
 607 549 607 549 614 530.5 c 128,-1,56
 621 512 621 512 621 495 c 0,57,58
 621 467 621 467 587 433.5 c 128,-1,59
 553 400 553 400 511.5 374.5 c 128,-1,60
 470 349 470 349 436 324 c 128,-1,61
 402 299 402 299 402 287 c 0,62,63
 402 280 402 280 427.5 229 c 128,-1,64
 453 178 453 178 453 135 c 0,32,33
EndSplineSet
EndChar

StartChar: nine
Encoding: 57 57 36
Width: 514
Flags: W
HStem: 285 70<234.453 347.807> 546 70<391.902 493.5>
VStem: 150 84<356.417 435.853> 343 89<-7.07983 136.485> 477 87<474.664 545.815>
LayerCount: 3
Fore
SplineSet
446 546 m 0
 313 546 234 425 234 380 c 0
 234 365 243 355 269 355 c 0
 317 355 448 405 472 519 c 0
 473 524 477 539 477 544 c 1
 477 544 464 546 446 546 c 0
432 39 m 0
 432 21 414 -22 375 -22 c 0
 351 -22 343 -5 343 18 c 0
 343 77 412 307 412 334 c 1
 371 311 l 2
 335 291 314 285 266 285 c 0
 196 285 184 293 169 315 c 0
 158 331 150 349 150 370 c 0
 150 376 150 397 167 429 c 0
 211 512 282 563 408 600 c 0
 453 613 469 616 482 616 c 0
 505 616 564 604 564 546 c 0
 564 478 517 478 448 157 c 0
 434 90 431 65 431 53 c 0
 431 46 432 43 432 39 c 0
EndSplineSet
Validated: 1
Layer: 2
SplineSet
446 546 m 0,0,1
 399 546 399 546 357 526.5 c 128,-1,2
 315 507 315 507 289.5 479.5 c 128,-1,3
 264 452 264 452 249 425 c 128,-1,4
 234 398 234 398 234 380 c 0,5,6
 234 355 234 355 269 355 c 0,7,8
 297 355 297 355 337.5 371 c 128,-1,9
 378 387 378 387 419.5 427 c 128,-1,10
 461 467 461 467 472 519 c 2,11,-1
 477 544 l 1,12,13
 464 546 464 546 446 546 c 0,0,1
432 39 m 0,14,15
 432 21 432 21 416.5 -0.5 c 128,-1,16
 401 -22 401 -22 375 -22 c 0,17,18
 343 -22 343 -22 343 18 c 0,19,20
 343 52 343 52 377.5 188 c 128,-1,21
 412 324 412 324 412 334 c 1,22,-1
 371 311 l 2,23,24
 324 285 324 285 266 285 c 0,25,26
 216 285 216 285 198.5 291 c 128,-1,27
 181 297 181 297 169 315 c 0,28,29
 150 343 150 343 150 370 c 128,-1,30
 150 397 150 397 167 429 c 0,31,32
 200 491 200 491 257 531.5 c 128,-1,33
 314 572 314 572 408 600 c 0,34,35
 463 616 463 616 482 616 c 0,36,37
 509 616 509 616 536.5 600 c 128,-1,38
 564 584 564 584 564 546 c 0,39,40
 564 524 564 524 555 500 c 128,-1,41
 546 476 546 476 532 447.5 c 128,-1,42
 518 419 518 419 494.5 342 c 128,-1,43
 471 265 471 265 448 157 c 0,44,45
 431 76 431 76 431 53 c 0,46,47
 431 49 431 49 431.5 45 c 128,-1,48
 432 41 432 41 432 39 c 0,14,15
EndSplineSet
EndChar

StartChar: colon
Encoding: 58 58 37
Width: 401
Flags: W
HStem: 512 20G<274.5 305>
VStem: 145 118<46.2426 113.406> 218 123<403.893 487.981>
LayerCount: 3
Fore
SplineSet
218 429 m 0xa0
 218 460 256 532 293 532 c 0
 317 532 341 504 341 464 c 0
 341 448 335 400 307 400 c 1
 295 392 295 356 258 356 c 0
 239 356 229 363 222 399 c 0
 219 411 218 420 218 429 c 0xa0
145 53 m 0xc0
 145 115 201 148 226 148 c 0
 257 148 263 117 263 97 c 0
 263 68 247 60 233 30 c 0
 219 0 199 -15 182 -15 c 0
 152 -15 145 25 145 53 c 0xc0
EndSplineSet
Validated: 1
Layer: 2
SplineSet
218 429 m 0,0,1
 218 456 218 456 242.5 494 c 128,-1,2
 267 532 267 532 293 532 c 0,3,4
 312 532 312 532 326.5 512.5 c 128,-1,5
 341 493 341 493 341 464 c 0,6,7
 341 444 341 444 333 422 c 128,-1,8
 325 400 325 400 307 400 c 0,9,10
 303 397 303 397 298 385.5 c 128,-1,11
 293 374 293 374 283.5 365 c 128,-1,12
 274 356 274 356 258 356 c 0,13,14
 243 356 243 356 235 364.5 c 128,-1,15
 227 373 227 373 222 399 c 0,16,17
 218 415 218 415 218 429 c 0,0,1
145 53 m 0,18,19
 145 95 145 95 173.5 121.5 c 128,-1,20
 202 148 202 148 226 148 c 0,21,22
 263 148 263 148 263 97 c 0,23,24
 263 84 263 84 259 74.5 c 128,-1,25
 255 65 255 65 246.5 53 c 128,-1,26
 238 41 238 41 233 30 c 0,27,28
 212 -15 212 -15 182 -15 c 0,29,30
 145 -15 145 -15 145 53 c 0,18,19
EndSplineSet
EndChar

StartChar: semicolon
Encoding: 59 59 38
Width: 367
Flags: W
VStem: 211 133<318.429 416.918>
LayerCount: 3
Fore
SplineSet
344 402 m 0
 344 357 318 282 278 282 c 0
 250 282 211 294 211 344 c 0
 211 352 212 361 214 370 c 0
 222 409 234 431 274 443 c 0
 291 448 304 451 312 451 c 0
 337 451 344 427 344 402 c 0
252 148 m 0
 271 148 277 133 277 123 c 0
 277 94 151 -101 131 -107 c 0
 129 -108 124 -110 118 -110 c 0
 100 -110 90 -102 90 -85 c 0
 90 -81 91 -76 92 -71 c 0
 101 -49 203 121 222 135 c 0
 230 142 240 148 252 148 c 0
EndSplineSet
Validated: 1
Layer: 2
SplineSet
344 402 m 0,0,1
 344 363 344 363 325 322.5 c 128,-1,2
 306 282 306 282 278 282 c 0,3,4
 252 282 252 282 231.5 296 c 128,-1,5
 211 310 211 310 211 344 c 0,6,7
 211 356 211 356 214 370 c 0,8,9
 220 401 220 401 233 417.5 c 128,-1,10
 246 434 246 434 274 443 c 0,11,12
 301 451 301 451 312 451 c 0,13,14
 344 451 344 451 344 402 c 0,0,1
252 148 m 0,15,16
 277 148 277 148 277 123 c 0,17,18
 277 102 277 102 211.5 0 c 128,-1,19
 146 -102 146 -102 131 -107 c 0,20,21
 125 -110 125 -110 118 -110 c 0,22,23
 90 -110 90 -110 90 -85 c 0,24,25
 90 -81 90 -81 92 -71 c 0,26,27
 100 -51 100 -51 154.5 37 c 128,-1,28
 209 125 209 125 222 135 c 0,29,30
 237 148 237 148 252 148 c 0,15,16
EndSplineSet
EndChar

StartChar: less
Encoding: 60 60 39
Width: 545
Flags: W
VStem: 130 109<272.309 344.986>
DStem2: 257 452 306 386 0.796905 0.604105<-93.0487 362.589>
LayerCount: 3
Fore
SplineSet
556 659 m 0
 564 659 586 654 586 630 c 0
 586 589 544 570 436 487 c 2
 306 386 l 2
 269 356 244 329 239 321 c 1
 239 296 334 148 381 110 c 0
 402 93 447 52 447 24 c 0
 447 5 410 -33 383 -33 c 0
 373 -33 364 -27 359 -13 c 1
 355 -6 337 13 305 39 c 0
 220 108 130 249 130 317 c 0
 130 342 144 366 257 452 c 2
 443 593 l 2
 495 632 537 659 556 659 c 0
EndSplineSet
Validated: 1
Layer: 2
SplineSet
556 659 m 0,0,1
 566 659 566 659 576 652.5 c 128,-1,2
 586 646 586 646 586 630 c 0,3,4
 586 618 586 618 582 608 c 128,-1,5
 578 598 578 598 563.5 585 c 128,-1,6
 549 572 549 572 536.5 562.5 c 128,-1,7
 524 553 524 553 492 529 c 128,-1,8
 460 505 460 505 436 487 c 2,9,-1
 306 386 l 2,10,11
 253 343 253 343 239 321 c 1,12,13
 239 301 239 301 293 219 c 128,-1,14
 347 137 347 137 381 110 c 0,15,16
 447 57 447 57 447 24 c 0,17,18
 447 9 447 9 424.5 -12 c 128,-1,19
 402 -33 402 -33 383 -33 c 0,20,21
 366 -33 366 -33 359 -13 c 0,22,23
 350 2 350 2 305 39 c 0,24,25
 241 91 241 91 185.5 178.5 c 128,-1,26
 130 266 130 266 130 317 c 0,27,28
 130 338 130 338 154 365 c 128,-1,29
 178 392 178 392 257 452 c 2,30,-1
 443 593 l 2,31,32
 531 659 531 659 556 659 c 0,0,1
EndSplineSet
EndChar

StartChar: equal
Encoding: 61 61 40
Width: 515
Flags: W
HStem: 187 89<174.668 421.995> 325 94<193.427 418.488> 325 86<182.022 401.678>
VStem: 141 324<217.375 250.518>
LayerCount: 3
Fore
SplineSet
465 247 m 0x90
 465 199 334 187 239 187 c 0
 171 187 141 188 141 213 c 0
 141 230 152 248 173 256 c 0
 208 269 281 276 345 276 c 0
 445 276 465 264 465 247 c 0x90
403 419 m 0xd0
 442 419 462 414 462 394 c 0
 462 378 452 361 434 352 c 0
 397 334 259 325 214 325 c 0xd0
 178 325 176 339 176 358 c 0
 176 402 181 398 279 411 c 1xb0
 334 416 375 419 403 419 c 0xd0
EndSplineSet
Validated: 1
Layer: 2
SplineSet
465 247 m 0,0,1
 465 215 465 215 396.5 201 c 128,-1,2
 328 187 328 187 239 187 c 0,3,4
 182 187 182 187 161.5 191.5 c 128,-1,5
 141 196 141 196 141 213 c 0,6,7
 141 244 141 244 173 256 c 0,8,9
 227 276 227 276 345 276 c 0,10,11
 465 276 465 276 465 247 c 0,0,1
403 419 m 0,12,13
 462 419 462 419 462 394 c 0,14,15
 462 366 462 366 434 352 c 0,16,17
 409 340 409 340 334.5 332.5 c 128,-1,18
 260 325 260 325 214 325 c 0,19,20
 189 325 189 325 182.5 333 c 128,-1,21
 176 341 176 341 176 358 c 0,22,23
 176 387 176 387 187 394 c 128,-1,24
 198 401 198 401 253.424101878 407.688257069 c 0,25,26
 257 408 257 408 259.5 408.5 c 128,-1,27
 262 409 262 409 265.5 409.5 c 128,-1,28
 269 410 269 410 272.5 410.5 c 128,-1,29
 276 411 276 411 279 411 c 0,30,31
 367 419 367 419 403 419 c 0,12,13
EndSplineSet
EndChar

StartChar: greater
Encoding: 62 62 41
Width: 594
Flags: W
LayerCount: 3
Fore
SplineSet
466 311 m 1
 433 362 232 499 232 560 c 0
 232 589 275 601 291 601 c 0
 312 601 365 544 367 542 c 0
 480 416 571 371 571 326 c 0
 571 296 516 244 412 135 c 0
 337 57 282 -9 277 -13 c 1
 263 -34 235 -46 212 -46 c 0
 191 -46 175 -35 175 -19 c 0
 175 8 234 61 248 67 c 0
 262 73 448 279 466 311 c 1
EndSplineSet
Validated: 1
Layer: 2
SplineSet
466 311 m 1,0,1
 454 330 454 330 393.5 381.5 c 128,-1,2
 333 433 333 433 282.5 483 c 128,-1,3
 232 533 232 533 232 560 c 0,4,5
 232 579 232 579 253 590 c 128,-1,6
 274 601 274 601 291 601 c 128,-1,7
 308 601 308 601 367 542 c 0,8,9
 412 492 412 492 467 443.5 c 128,-1,10
 522 395 522 395 546.5 370.5 c 128,-1,11
 571 346 571 346 571 326 c 0,12,13
 571 321 571 321 569 315.5 c 128,-1,14
 567 310 567 310 562.5 302.5 c 128,-1,15
 558 295 558 295 553 288 c 128,-1,16
 548 281 548 281 538.5 270 c 128,-1,17
 529 259 529 259 521 250 c 128,-1,18
 513 241 513 241 499 226 c 128,-1,19
 485 211 485 211 474 200 c 128,-1,20
 463 189 463 189 444.5 169 c 128,-1,21
 426 149 426 149 412 135 c 0,22,23
 379 101 379 101 346 64.5 c 128,-1,24
 313 28 313 28 296 8 c 128,-1,25
 279 -12 279 -12 277 -13 c 0,26,27
 255 -46 255 -46 212 -46 c 0,28,29
 196 -46 196 -46 185.5 -38.5 c 128,-1,30
 175 -31 175 -31 175 -19 c 0,31,32
 175 -1 175 -1 204.5 30 c 128,-1,33
 234 61 234 61 248 67 c 0,34,35
 259 72 259 72 356 180 c 128,-1,36
 453 288 453 288 466 311 c 1,0,1
EndSplineSet
EndChar

StartChar: question
Encoding: 63 63 42
Width: 632
Flags: W
HStem: 533 21G<354 417.5> 781 74<425.848 520.352>
VStem: 254 126<18.3086 83.792> 273 72<602.162 716.644> 398 99<636.223 689.727> 549 70<616.536 752.979>
LayerCount: 3
Fore
SplineSet
254 7 m 0xec
 254 45 279 113 313 113 c 0
 334 113 380 75 380 57 c 0
 380 51 337 -32 286 -32 c 0
 261 -32 254 -13 254 7 c 0xec
273 662 m 0xdc
 273 764 424 855 497 855 c 0
 572 855 619 778 619 698 c 0
 619 613 569 544 467 440 c 2
 426 398 l 1
 412 327 l 1
 405 295 l 2
 397 258 385 218 357 218 c 0
 335 218 328 232 328 257 c 0
 328 277 333 305 340 338 c 0
 357 418 369 452 436 503 c 0
 502 552 549 637 549 696 c 0
 549 754 494 781 483 781 c 0
 444 781 345 717 345 680 c 0xdc
 345 656 364 594 377 590 c 1
 397 592 421 622 429 635 c 1
 428 635 398 636 398 656 c 0
 398 684 440 706 461 706 c 0
 480 706 497 689 497 659 c 0
 497 614 455 533 380 533 c 0xec
 328 533 273 594 273 662 c 0xdc
EndSplineSet
Validated: 1
Layer: 2
SplineSet
254 7 m 0,0,1
 254 40 254 40 271.5 76.5 c 128,-1,2
 289 113 289 113 313 113 c 0,3,4
 329 113 329 113 354.5 91.5 c 128,-1,5
 380 70 380 70 380 57 c 0,6,7
 380 52 380 52 368 31.5 c 128,-1,8
 356 11 356 11 332.5 -10.5 c 128,-1,9
 309 -32 309 -32 286 -32 c 0,10,11
 254 -32 254 -32 254 7 c 0,0,1
273 662 m 0,12,13
 273 710 273 710 314 756.5 c 128,-1,14
 355 803 355 803 407 829 c 128,-1,15
 459 855 459 855 497 855 c 0,16,17
 551 855 551 855 585 808 c 128,-1,18
 619 761 619 761 619 698 c 0,19,20
 619 637 619 637 583.5 580 c 128,-1,21
 548 523 548 523 467 440 c 2,22,-1
 426 398 l 1,23,-1
 412 327 l 1,24,-1
 405 295 l 2,25,26
 388 218 388 218 357 218 c 0,27,28
 328 218 328 218 328 257 c 0,29,30
 328 281 328 281 340 338 c 0,31,32
 354 403 354 403 371 435 c 128,-1,33
 388 467 388 467 436 503 c 0,34,35
 485 539 485 539 517 595 c 128,-1,36
 549 651 549 651 549 696 c 0,37,38
 549 734 549 734 523.5 757.5 c 128,-1,39
 498 781 498 781 483 781 c 0,40,41
 452 781 452 781 398.5 744 c 128,-1,42
 345 707 345 707 345 680 c 0,43,44
 345 661 345 661 356.5 627 c 128,-1,45
 368 593 368 593 377 590 c 1,46,47
 403 593 403 593 429 635 c 1,48,49
 398 635 398 635 398 656 c 0,50,51
 398 675 398 675 420.5 690.5 c 128,-1,52
 443 706 443 706 461 706 c 0,53,54
 476 706 476 706 486.5 693.5 c 128,-1,55
 497 681 497 681 497 659 c 0,56,57
 497 619 497 619 464 576 c 128,-1,58
 431 533 431 533 380 533 c 0,59,60
 340 533 340 533 306.5 572.5 c 128,-1,61
 273 612 273 612 273 662 c 0,12,13
EndSplineSet
EndChar

StartChar: at
Encoding: 64 64 43
Width: 704
Flags: W
HStem: -34 74<262.648 435.38> 160 66<267.5 355.073> 425 72<394.582 458.395> 580 63<435.802 575.533>
VStem: 112 83<95.9804 311.679> 226 78<232.574 324.65> 622 78<369.608 541.035>
LayerCount: 3
Fore
SplineSet
347 226 m 0
 362 226 358 269 384 276 c 1
 385 278 387 281 389 292 c 0
 397 330 412 340 429 371 c 0
 437 386 452 395 467 396 c 1
 455 408 431 425 419 425 c 1
 396 419 349 374 347 365 c 0
 340 333 304 325 304 269 c 0
 304 232 343 226 347 226 c 0
534 381 m 0
 534 338 498 312 498 256 c 0
 498 247 500 242 502 241 c 1
 514 245 548 272 554 283 c 1
 557 297 571 303 580 305 c 1
 595 324 622 414 622 436 c 0
 622 533 619 529 579 556 c 0
 554 573 535 580 513 580 c 0
 491 580 464 572 397 542 c 0
 331 512 314 497 264 424 c 0
 231 375 225 363 209 288 c 0
 200 244 195 216 195 190 c 0
 195 169 198 149 203 121 c 0
 207 100 250 40 373 40 c 0
 396 40 406 45 434 61 c 0
 472 82 488 99 522 148 c 2
 547 184 l 1
 532 177 512 169 487 169 c 0
 451 169 440 178 428 200 c 0
 421 213 417 226 416 235 c 1
 411 230 356 160 287 160 c 0
 248 160 226 193 226 239 c 0
 226 272 238 313 260 345 c 0
 292 393 406 497 438 497 c 0
 478 497 534 436 534 381 c 0
651 230 m 0
 651 190 552 18 435 -25 c 0
 416 -32 362 -34 330 -34 c 0
 290 -34 265 -32 250 -29 c 0
 212 -20 136 32 132 65 c 0
 131 74 130 76 129 78 c 1
 116 81 112 107 112 140 c 0
 112 194 123 265 127 282 c 0
 151 397 183 454 260 531 c 0
 316 587 345 604 436 628 c 0
 471 637 518 643 556 643 c 0
 588 643 610 640 620 634 c 0
 647 619 700 556 700 489 c 0
 700 471 698 449 693 426 c 0
 671 322 639 279 625 257 c 1
 635 255 651 251 651 230 c 0
EndSplineSet
Validated: 1
Layer: 2
SplineSet
347 226 m 0,0,1
 353 226 353 226 361.5 249 c 128,-1,2
 370 272 370 272 384 276 c 1,3,4
 387 283 387 283 389 292 c 0,5,6
 393 309 393 309 398.5 321 c 128,-1,7
 404 333 404 333 414 347 c 128,-1,8
 424 361 424 361 429 371 c 0,9,10
 441 394 441 394 467 396 c 1,11,12
 438 425 438 425 419 425 c 1,13,14
 403 421 403 421 376 397 c 128,-1,15
 349 373 349 373 347 365 c 0,16,17
 345 355 345 355 324.5 328 c 128,-1,18
 304 301 304 301 304 269 c 0,19,20
 304 252 304 252 314.5 241.5 c 128,-1,21
 325 231 325 231 333.5 228.5 c 128,-1,22
 342 226 342 226 347 226 c 0,0,1
534 381 m 0,23,24
 534 361 534 361 516 323.5 c 128,-1,25
 498 286 498 286 498 256 c 0,26,27
 498 243 498 243 502 241 c 0,28,29
 511 244 511 244 530.5 259.5 c 128,-1,30
 550 275 550 275 554 283 c 0,31,32
 558 300 558 300 580 305 c 1,33,34
 591 319 591 319 606.5 369 c 128,-1,35
 622 419 622 419 622 436 c 0,36,37
 622 506 622 506 616.5 520.5 c 128,-1,38
 611 535 611 535 579 556 c 0,39,40
 544 580 544 580 513 580 c 128,-1,41
 482 580 482 580 397 542 c 0,42,43
 347 519 347 519 324 499 c 128,-1,44
 301 479 301 479 264 424 c 0,45,46
 239 386 239 386 230 364.5 c 128,-1,47
 221 343 221 343 209 288 c 0,48,49
 195 220 195 220 195 190 c 0,50,51
 195 166 195 166 203 121 c 0,52,53
 205 112 205 112 214.5 99.5 c 128,-1,54
 224 87 224 87 242.5 73 c 128,-1,55
 261 59 261 59 295.5 49.5 c 128,-1,56
 330 40 330 40 373 40 c 0,57,58
 397 40 397 40 434 61 c 0,59,60
 462 76 462 76 479 93 c 128,-1,61
 496 110 496 110 522 148 c 2,62,-1
 547 184 l 1,63,64
 515 169 515 169 487 169 c 0,65,66
 461 169 461 169 449.5 176 c 128,-1,67
 438 183 438 183 428 200 c 0,68,69
 418 219 418 219 416 235 c 1,70,-1
 412 230.5 l 2,71,72
 408 226 408 226 403.5 221 c 128,-1,73
 399 216 399 216 391 209 c 128,-1,74
 383 202 383 202 375 195.5 c 128,-1,75
 367 189 367 189 356.5 182.5 c 128,-1,76
 346 176 346 176 335.5 171 c 128,-1,77
 325 166 325 166 312 163 c 128,-1,78
 299 160 299 160 287 160 c 0,79,80
 258 160 258 160 242 182 c 128,-1,81
 226 204 226 204 226 239 c 0,82,83
 226 296 226 296 260 345 c 0,84,85
 286 383 286 383 350.5 440 c 128,-1,86
 415 497 415 497 438 497 c 0,87,88
 469 497 469 497 501.5 459 c 128,-1,89
 534 421 534 421 534 381 c 0,23,24
651 230 m 0,90,91
 651 191 651 191 582 97.5 c 128,-1,92
 513 4 513 4 435 -25 c 0,93,94
 411 -34 411 -34 330 -34 c 0,95,96
 275 -34 275 -34 250 -29 c 0,97,98
 219 -22 219 -22 177 10 c 128,-1,99
 135 42 135 42 132 65 c 0,100,101
 131 74 131 74 129 78 c 0,102,103
 112 82 112 82 112 140 c 0,104,105
 112 218 112 218 127 282 c 0,106,107
 145 367 145 367 173.5 420 c 128,-1,108
 202 473 202 473 260 531 c 0,109,110
 302 573 302 573 335 591.5 c 128,-1,111
 368 610 368 610 436 628 c 0,112,113
 494 643 494 643 556 643 c 0,114,115
 605 643 605 643 620 634 c 0,116,117
 645 620 645 620 672.5 577 c 128,-1,118
 700 534 700 534 700 489 c 0,119,120
 700 458 700 458 693 426 c 0,121,122
 689 409 689 409 685 393.5 c 128,-1,123
 681 378 681 378 677 365 c 128,-1,124
 673 352 673 352 669 341 c 128,-1,125
 665 330 665 330 660 319.5 c 128,-1,126
 655 309 655 309 652 302.5 c 128,-1,127
 649 296 649 296 644 287.5 c 128,-1,128
 639 279 639 279 637 275.5 c 128,-1,129
 635 272 635 272 630.5 265 c 128,-1,130
 626 258 626 258 625 257 c 1,131,132
 651 252 651 252 651 230 c 0,90,91
EndSplineSet
EndChar

StartChar: A
Encoding: 65 65 44
Width: 816
Flags: W
VStem: 618 119<387.912 608.011> 640 97<243 308> 646 101<69.7734 277.227>
DStem2: 448 375 458 290 0.995957 0.0898314<0 170.53>
LayerCount: 3
Fore
SplineSet
747 105 m 0x20
 747 63 740 52 712 52 c 0
 700 52 687 58 677 63 c 0
 639 86 658 113 646 243 c 2x20
 640 308 l 1x40
 596 303 l 2
 564 299 504 293 458 290 c 2
 385 285 l 1
 346 242 l 2
 262 148 207 68 178 23 c 0
 165 2 139 -31 104 -31 c 0
 94 -31 67 -27 67 -10 c 0
 67 20 123 62 128 84 c 0
 132 103 143 124 160 132 c 1
 172 136 206 215 241 246 c 0
 262 264 279 282 389 454 c 0
 455 556 595 742 623 763 c 1
 633 766 642 771 654 771 c 0
 662 771 673 769 685 761 c 1
 699 740 737 586 737 528 c 0x80
 737 510 734 515 734 484 c 0
 734 449 739 401 739 350 c 0
 739 308 737 308 737 280 c 0x40
 737 221 747 152 747 105 c 0x20
615 406 m 0
 617 416 618 448 618 483 c 0x80
 618 531 616 586 611 611 c 1
 533 525 448 375 448 375 c 1
 515 379 l 2
 591 384 611 385 615 406 c 0
EndSplineSet
Validated: 1
Layer: 2
SplineSet
747 105 m 0,0,1
 747 73 747 73 740 62.5 c 128,-1,2
 733 52 733 52 712 52 c 0,3,4
 699 52 699 52 677 63 c 0,5,6
 663 71 663 71 657.5 84 c 128,-1,7
 652 97 652 97 651.5 111.5 c 128,-1,8
 651 126 651 126 650.5 165 c 128,-1,9
 650 204 650 204 646 243 c 2,10,-1
 640 308 l 1,11,-1
 596 303 l 2,12,13
 529 295 529 295 458 290 c 2,14,-1
 385 285 l 1,15,-1
 346 242 l 2,16,17
 250 134 250 134 178 23 c 0,18,19
 145 -31 145 -31 104 -31 c 0,20,21
 92 -31 92 -31 79.5 -26 c 128,-1,22
 67 -21 67 -21 67 -10 c 0,23,24
 67 7 67 7 96.5 41 c 128,-1,25
 126 75 126 75 128 84 c 0,26,27
 136 121 136 121 160 132 c 0,28,29
 165 134 165 134 177.5 155.5 c 128,-1,30
 190 177 190 177 208 205 c 128,-1,31
 226 233 226 233 241 246 c 0,32,33
 253 257 253 257 264.5 270 c 128,-1,34
 276 283 276 283 306 327.5 c 128,-1,35
 336 372 336 372 389 454 c 0,36,37
 439 532 439 532 520.5 639.5 c 128,-1,38
 602 747 602 747 623 763 c 1,39,40
 650 771 650 771 654 771 c 0,41,42
 670 771 670 771 685 761 c 1,43,44
 696 744 696 744 716.5 656.5 c 128,-1,45
 737 569 737 569 737 528 c 0,46,47
 737 521 737 521 735.5 511 c 128,-1,48
 734 501 734 501 734 484 c 0,49,50
 734 468 734 468 736.5 423 c 128,-1,51
 739 378 739 378 739 350 c 0,52,53
 739 327 739 327 738 309.5 c 128,-1,54
 737 292 737 292 737 280 c 0,55,56
 737 249 737 249 742 188 c 128,-1,57
 747 127 747 127 747 105 c 0,0,1
615 406 m 128,-1,59
 618 421 618 421 618 483 c 0,60,61
 618 576 618 576 611 611 c 1,62,63
 576 573 576 573 535.5 514 c 128,-1,64
 495 455 495 455 471.5 415 c 2,65,-1
 448 375 l 1,66,-1
 515 379 l 2,67,68
 577 383 577 383 594.5 387 c 128,-1,58
 612 391 612 391 615 406 c 128,-1,59
EndSplineSet
EndChar

StartChar: B
Encoding: 66 66 45
Width: 707
Flags: W
HStem: 12 81<358.932 483.694> 24 70<334.311 412.884> 718 69<411.442 643.425>
VStem: 233 98<53 261.505> 614 83<250.881 386.4> 644 84<659.439 712.199>
LayerCount: 3
Fore
SplineSet
517 142 m 0xb8
 564 181 591 204 608 286 c 0
 612 304 614 319 614 332 c 0
 614 381 588 399 545 399 c 0
 487 399 421 369 373 354 c 0
 359 349 360 340 343 238 c 0
 336 192 331 160 331 139 c 0
 331 96 350 95 402 94 c 0x78
 412 94 420 93 428 93 c 0
 460 93 464 97 517 142 c 0xb8
644 693 m 0x34
 644 701 635 718 575 718 c 0
 515 718 430 705 413 698 c 0
 405 695 404 693 400 672 c 2
 396 652 l 2
 383 592 377 504 377 464 c 0
 377 442 379 437 384 437 c 0
 407 440 548 553 606 633 c 0
 625 659 644 688 644 693 c 0x34
697 364 m 0x78
 697 175 518 12 414 12 c 0xb8
 390 12 378 24 358 24 c 0
 335 24 303 7 276 7 c 0
 244 7 233 31 233 75 c 0
 233 144 260 261 271 411 c 0
 274 455 284 530 290 579 c 2
 300 655 l 1
 273 655 l 2
 261 655 216 656 216 683 c 0
 216 718 289 745 403 771 c 0
 444 780 527 787 608 787 c 0
 674 787 678 781 710 758 c 16
 724 748 728 727 728 713 c 0x74
 728 710 727 706 727 704 c 0
 704 607 606 520 580 489 c 1
 616 487 677 443 688 416 c 0
 695 401 697 382 697 364 c 0x78
EndSplineSet
Validated: 1
Layer: 2
SplineSet
517 142 m 0,0,1
 546 166 546 166 559 179.5 c 128,-1,2
 572 193 572 193 586 220 c 128,-1,3
 600 247 600 247 608 286 c 0,4,5
 614 313 614 313 614 332 c 0,6,7
 614 399 614 399 545 399 c 0,8,9
 519 399 519 399 490.5 392.5 c 128,-1,10
 462 386 462 386 420.5 371 c 128,-1,11
 379 356 379 356 373 354 c 0,12,13
 364 351 364 351 361 340.5 c 128,-1,14
 358 330 358 330 349.809925193 279.547980066 c 0,15,16
 349 271 349 271 348 266.5 c 128,-1,17
 347 262 347 262 345.5 253.5 c 128,-1,18
 344 245 344 245 343 238 c 0,19,20
 331 159 331 159 331 139 c 0,21,22
 331 109 331 109 345 102 c 128,-1,23
 359 95 359 95 402 94 c 0,24,25
 407 94 407 94 415.5 93.5 c 128,-1,26
 424 93 424 93 428 93 c 0,27,28
 451 93 451 93 463.5 100 c 128,-1,29
 476 107 476 107 517 142 c 0,0,1
644 693 m 0,30,31
 644 718 644 718 575 718 c 0,32,33
 533 718 533 718 480 711 c 128,-1,34
 427 704 427 704 413 698 c 0,35,36
 404 695 404 695 400 672 c 2,37,-1
 396 652 l 2,38,39
 377 564 377 564 377 464 c 0,40,41
 377 437 377 437 384 437 c 0,42,43
 404 440 404 440 485 509 c 128,-1,44
 566 578 566 578 606 633 c 0,45,46
 644 685 644 685 644 693 c 0,30,31
697 364 m 0,47,48
 697 297 697 297 667.5 230 c 128,-1,49
 638 163 638 163 594.5 116.5 c 128,-1,50
 551 70 551 70 502 41 c 128,-1,51
 453 12 453 12 414 12 c 0,52,53
 402 12 402 12 385 18 c 128,-1,54
 368 24 368 24 358 24 c 0,55,56
 347 24 347 24 318.5 15.5 c 128,-1,57
 290 7 290 7 276 7 c 0,58,59
 233 7 233 7 233 75 c 0,60,61
 233 109 233 109 249 222 c 128,-1,62
 265 335 265 335 271 411 c 0,63,64
 273 440 273 440 290 579 c 2,65,-1
 300 655 l 1,66,-1
 273 655 l 2,67,68
 216 655 216 655 216 683 c 0,69,70
 216 728 216 728 403 771 c 0,71,72
 476 787 476 787 608 787 c 0,73,74
 641 787 641 787 658 784 c 128,-1,75
 675 781 675 781 682.5 777 c 128,-1,76
 690 773 690 773 710 758 c 0,77,78
 728 745 728 745 728 713 c 0,79,80
 728 711 728 711 727.5 708 c 128,-1,81
 727 705 727 705 727 704 c 0,82,83
 719 670 719 670 697 633 c 128,-1,84
 675 596 675 596 655.5 573 c 128,-1,85
 636 550 636 550 609.5 521.5 c 128,-1,86
 583 493 583 493 580 489 c 1,87,88
 606 488 606 488 642.5 462.5 c 128,-1,89
 679 437 679 437 688 416 c 0,90,91
 697 397 697 397 697 364 c 0,47,48
EndSplineSet
EndChar

StartChar: C
Encoding: 67 67 46
Width: 779
Flags: W
HStem: 10 96<313.827 451.839> 723 87<569.701 692.69>
VStem: 166 97<160.115 312.87> 689 86<685.794 722.86>
LayerCount: 3
Fore
SplineSet
775 716 m 0
 775 698 768 676 741 676 c 0
 700 676 689 718 689 718 c 1
 687 722 683 723 675 723 c 0
 608 723 475 673 409 619 c 0
 359 579 316 503 273 303 c 0
 266 273 263 252 263 235 c 0
 263 163 314 106 376 106 c 0
 407 106 496 142 527 167 c 2
 593 218 l 2
 670 277 721 362 756 362 c 1
 762 360 773 360 773 340 c 0
 773 335 773 329 771 321 c 0
 760 270 543 10 353 10 c 0
 207 10 166 156 166 179 c 0
 166 241 228 506 264 577 c 0
 328 705 528 810 654 810 c 0
 723 810 775 765 775 716 c 0
EndSplineSet
Validated: 1
Layer: 2
SplineSet
775 716 m 0,0,1
 775 676 775 676 741 676 c 0,2,3
 723 676 723 676 710 686.5 c 128,-1,4
 697 697 697 697 693 707.5 c 2,5,-1
 689 718 l 2,6,7
 686 723 686 723 675 723 c 0,8,9
 624 723 624 723 541 691 c 128,-1,10
 458 659 458 659 409 619 c 0,11,12
 368 586 368 586 335.5 515 c 128,-1,13
 303 444 303 444 273 303 c 0,14,15
 263 260 263 260 263 235 c 0,16,17
 263 181 263 181 296 143.5 c 128,-1,18
 329 106 329 106 376 106 c 0,19,20
 399 106 399 106 451.5 127 c 128,-1,21
 504 148 504 148 527 167 c 2,22,-1
 593 218 l 2,23,24
 624 241 624 241 659.5 279.5 c 128,-1,25
 695 318 695 318 718 340 c 128,-1,26
 741 362 741 362 756 362 c 0,27,28
 757 362 757 362 759.5 361 c 128,-1,29
 762 360 762 360 763 359.5 c 128,-1,30
 764 359 764 359 766.5 357.5 c 128,-1,31
 769 356 769 356 770 354 c 128,-1,32
 771 352 771 352 772 348.5 c 128,-1,33
 773 345 773 345 773 340 c 0,34,35
 773 329 773 329 771 321 c 0,36,37
 766 300 766 300 726.5 250.5 c 128,-1,38
 687 201 687 201 630 146.5 c 128,-1,39
 573 92 573 92 496 51 c 128,-1,40
 419 10 419 10 353 10 c 0,41,42
 312 10 312 10 278 25.5 c 128,-1,43
 244 41 244 41 224 63 c 128,-1,44
 204 85 204 85 190 110 c 128,-1,45
 176 135 176 135 171 152.5 c 128,-1,46
 166 170 166 170 166 179 c 0,47,48
 166 228 166 228 202 377 c 128,-1,49
 238 526 238 526 264 577 c 0,50,51
 295 638 295 638 364.5 693 c 128,-1,52
 434 748 434 748 512.5 779 c 128,-1,53
 591 810 591 810 654 810 c 0,54,55
 705 810 705 810 740 782 c 128,-1,56
 775 754 775 754 775 716 c 0,0,1
EndSplineSet
EndChar

StartChar: D
Encoding: 68 68 47
Width: 907
Flags: W
HStem: 611 116<226.105 274.307> 685 107<467.088 702.091>
VStem: 851 99<459.535 604.934>
LayerCount: 3
Fore
SplineSet
508 685 m 0x60
 474 685 470 682 464 654 c 0
 444 562 455 243 404 112 c 2
 390 76 l 1
 431 76 l 2
 491 76 563 112 664 198 c 0
 779 296 817 385 844 512 c 0
 848 533 851 547 851 558 c 0
 851 577 844 587 829 607 c 0
 805 638 781 649 693 665 c 0
 675 668 584 685 508 685 c 0x60
199 662 m 0
 209 694 243 727 263 727 c 1xa0
 292 736 273 769 401 782 c 0
 465 788 510 792 547 792 c 0x60
 586 792 616 788 657 781 c 0
 863 747 950 692 950 577 c 0
 950 557 947 536 942 512 c 0
 880 220 611 36 437 0 c 1
 362 -18 396 -76 325 -76 c 0
 302 -76 286 -68 286 -52 c 1
 280 -46 245 -42 245 -7 c 0
 245 7 252 41 284 52 c 1
 292 57 303 90 310 123 c 0
 329 214 321 264 350 513 c 2
 368 668 l 1
 345 666 l 1
 288 659 263 611 234 611 c 0xa0
 219 611 198 635 198 656 c 0
 198 658 199 660 199 662 c 0
EndSplineSet
Validated: 1
Layer: 2
SplineSet
508 685 m 0,0,1
 483 685 483 685 476 680 c 128,-1,2
 469 675 469 675 464 654 c 0,3,4
 457 620 457 620 452 508.5 c 128,-1,5
 447 397 447 397 436.5 283 c 128,-1,6
 426 169 426 169 404 112 c 2,7,-1
 390 76 l 1,8,-1
 431 76 l 2,9,10
 521 76 521 76 664 198 c 0,11,12
 746 267 746 267 784 338 c 128,-1,13
 822 409 822 409 844 512 c 0,14,15
 851 549 851 549 851 558 c 0,16,17
 851 578 851 578 829 607 c 0,18,19
 811 630 811 630 784.5 641.5 c 128,-1,20
 758 653 758 653 693 665 c 0,21,22
 573 685 573 685 508 685 c 0,0,1
199 662 m 0,23,24
 206 686 206 686 227 706.5 c 128,-1,25
 248 727 248 727 263 727 c 0,26,27
 271 730 271 730 279 737.5 c 128,-1,28
 287 745 287 745 295 753 c 128,-1,29
 303 761 303 761 330 769.5 c 128,-1,30
 357 778 357 778 401 782 c 0,31,32
 508 792 508 792 547 792 c 0,33,34
 593 792 593 792 657 781 c 0,35,36
 814 755 814 755 882 708.5 c 128,-1,37
 950 662 950 662 950 577 c 0,38,39
 950 550 950 550 942 512 c 0,40,41
 920 408 920 408 862 315 c 128,-1,42
 804 222 804 222 730.5 159 c 128,-1,43
 657 96 657 96 581 55 c 128,-1,44
 505 14 505 14 437 0 c 0,45,46
 412 -6 412 -6 398 -19.5 c 128,-1,47
 384 -33 384 -33 379.5 -45 c 128,-1,48
 375 -57 375 -57 362 -66.5 c 128,-1,49
 349 -76 349 -76 325 -76 c 0,50,51
 286 -76 286 -76 286 -52 c 0,52,53
 285 -51 285 -51 273.5 -46 c 128,-1,54
 262 -41 262 -41 253.5 -32 c 128,-1,55
 245 -23 245 -23 245 -7 c 0,56,57
 245 8 245 8 254 26.5 c 128,-1,58
 263 45 263 45 284 52 c 0,59,60
 297 60 297 60 310 123 c 0,61,62
 318 162 318 162 321.5 203 c 128,-1,63
 325 244 325 244 331.5 327.5 c 128,-1,64
 338 411 338 411 350 513 c 2,65,-1
 368 668 l 1,66,-1
 345 666 l 2,67,68
 314 662 314 662 280 636.5 c 128,-1,69
 246 611 246 611 234 611 c 128,-1,70
 222 611 222 611 210 626 c 128,-1,71
 198 641 198 641 198 656 c 0,72,73
 198 657 198 657 198.5 659 c 128,-1,74
 199 661 199 661 199 662 c 0,23,24
EndSplineSet
EndChar

StartChar: E
Encoding: 69 69 48
Width: 631
Flags: W
HStem: -11 101<214 373.939> 710 83<471.078 674.181>
LayerCount: 3
Fore
SplineSet
214 -11 m 0
 121 -11 121 19 121 45 c 0
 121 119 158 303 181 508 c 0
 183 520 184 558 193 598 c 0
 212 686 248 710 269 710 c 0
 299 710 406 793 601 793 c 0
 672 793 697 776 697 757 c 0
 697 738 673 723 580 710 c 0
 455 692 343 656 309 631 c 0
 297 622 292 612 289 599 c 0
 289 597 268 402 268 386 c 1
 300 398 487 439 543 439 c 0
 569 439 578 424 578 411 c 0
 578 399 570 387 559 378 c 0
 510 340 298 315 258 294 c 0
 252 291 252 290 250 281 c 0
 245 257 234 208 226 161 c 2
 214 90 l 1
 256 90 l 2
 317 90 438 117 510 150 c 0
 530 160 547 169 561 169 c 0
 582 169 596 147 596 129 c 0
 596 62 357 -11 214 -11 c 0
EndSplineSet
Validated: 1
Layer: 2
SplineSet
214 -11 m 0,0,1
 181 -11 181 -11 160.5 -6.5 c 128,-1,2
 140 -2 140 -2 132.5 8 c 128,-1,3
 125 18 125 18 123 25 c 128,-1,4
 121 32 121 32 121 45 c 0,5,6
 121 77 121 77 130.5 145.5 c 128,-1,7
 140 214 140 214 156 320 c 128,-1,8
 172 426 172 426 181 508 c 0,9,10
 182 511 182 511 183 526 c 128,-1,11
 184 541 184 541 186.5 560.5 c 128,-1,12
 189 580 189 580 193 598 c 0,13,14
 206 657 206 657 227.5 683.5 c 128,-1,15
 249 710 249 710 269 710 c 0,16,17
 277 710 277 710 306.5 723 c 128,-1,18
 336 736 336 736 372.5 751.5 c 128,-1,19
 409 767 409 767 471.5 780 c 128,-1,20
 534 793 534 793 601 793 c 0,21,22
 697 793 697 793 697 757 c 0,23,24
 697 726 697 726 580 710 c 0,25,26
 490 697 490 697 413 674 c 128,-1,27
 336 651 336 651 309 631 c 0,28,29
 294 620 294 620 289 599 c 2,30,-1
 283.5 549 l 2,31,32
 278 499 278 499 273 446 c 128,-1,33
 268 393 268 393 268 386 c 1,34,35
 296 397 296 397 400.5 418 c 128,-1,36
 505 439 505 439 543 439 c 0,37,38
 561 439 561 439 569.5 430.5 c 128,-1,39
 578 422 578 422 578 411 c 0,40,41
 578 394 578 394 559 378 c 0,42,43
 531 356 531 356 401.5 328.5 c 128,-1,44
 272 301 272 301 258 294 c 0,45,46
 252 291 252 291 250 281 c 0,47,48
 230 187 230 187 226 161 c 2,49,-1
 214 90 l 1,50,-1
 256 90 l 2,51,52
 303 90 303 90 380 108 c 128,-1,53
 457 126 457 126 510 150 c 0,54,55
 548 169 548 169 561 169 c 0,56,57
 576 169 576 169 586 156.5 c 128,-1,58
 596 144 596 144 596 129 c 0,59,60
 596 97 596 97 530.5 63.5 c 128,-1,61
 465 30 465 30 375 9.5 c 128,-1,62
 285 -11 285 -11 214 -11 c 0,0,1
EndSplineSet
EndChar

StartChar: F
Encoding: 70 70 49
Width: 654
Flags: W
HStem: 662 127<537.816 589.059>
DStem2: 327 433 314 330 0.988506 0.151183<0 190.574>
LayerCount: 3
Fore
SplineSet
292 183 m 2
 269 29 258 10 217 10 c 0
 207 10 177 14 171 30 c 0
 171 32 170 35 170 38 c 0
 170 52 174 74 179 96 c 0
 205 219 188 298 240 544 c 2
 275 710 l 1
 364 739 l 1
 418 755 477 765 504 765 c 0
 579 765 561 789 668 789 c 0
 703 789 750 788 750 762 c 0
 750 694 640 695 463 662 c 2
 359 643 l 1
 347 586 l 2
 338 543 329 487 328 465 c 2
 327 433 l 1
 385 439 l 2
 411 442 470 447 520 447 c 0
 574 447 606 442 606 423 c 0
 606 375 411 345 399 343 c 2
 314 330 l 1
 292 183 l 2
EndSplineSet
Validated: 1
Layer: 2
SplineSet
292 183 m 2,0,1
 280 104 280 104 270.5 68.5 c 128,-1,2
 261 33 261 33 250 21.5 c 128,-1,3
 239 10 239 10 217 10 c 0,4,5
 178 10 178 10 171 30 c 0,6,7
 171 31 171 31 170.5 33.5 c 128,-1,8
 170 36 170 36 170 38 c 0,9,10
 170 56 170 56 179 96 c 0,11,12
 189 142 189 142 200 274 c 128,-1,13
 211 406 211 406 240 544 c 2,14,-1
 275 710 l 1,15,-1
 364 739 l 2,16,17
 452 765 452 765 504 765 c 0,18,19
 538 765 538 765 574 777 c 128,-1,20
 610 789 610 789 668 789 c 0,21,22
 750 789 750 789 750 762 c 0,23,24
 750 748 750 748 744 737 c 128,-1,25
 738 726 738 726 723.5 718 c 128,-1,26
 709 710 709 710 693 704.5 c 128,-1,27
 677 699 677 699 649.5 693.5 c 128,-1,28
 622 688 622 688 598 684.5 c 128,-1,29
 574 681 574 681 534 674.5 c 128,-1,30
 494 668 494 668 463 662 c 2,31,-1
 359 643 l 1,32,-1
 347 586 l 2,33,34
 330 504 330 504 328 465 c 2,35,-1
 327 433 l 1,36,-1
 385 439 l 2,37,38
 454 447 454 447 520 447 c 0,39,40
 606 447 606 447 606 423 c 0,41,42
 606 378 606 378 399 343 c 2,43,-1
 314 330 l 1,44,-1
 292 183 l 2,0,1
EndSplineSet
EndChar

StartChar: G
Encoding: 71 71 50
Width: 752
Flags: W
HStem: -6 101<230.457 358.143> 352 120<467.651 571.072> 693 95<631.371 711.148>
VStem: 125 99<101.061 276.307> 572 144<281.743 351.599>
LayerCount: 3
Fore
SplineSet
802 727 m 0
 802 705 766 646 735 646 c 0
 700 647 719 693 705 693 c 0
 666 693 493 652 321 429 c 0
 262 352 256 337 238 251 c 0
 229 206 224 173 224 150 c 0
 224 107 241 95 277 95 c 0
 343 95 406 120 460 172 c 0
 537 245 572 313 572 330 c 0
 572 342 563 352 552 352 c 0
 537 352 534 331 477 331 c 0
 441 331 376 342 376 385 c 0
 376 388 376 391 377 395 c 0
 392 447 447 439 470 458 c 0
 477 464 482 472 522 472 c 0
 567 472 667 457 693 432 c 0
 709 416 716 379 716 332 c 0
 716 259 700 163 684 86 c 0
 678 56 668 -8 616 -8 c 0
 587 -8 577 9 577 40 c 0
 577 66 584 101 593 142 c 2
 607 209 l 1
 597 196 l 1
 487 71 358 -6 255 -6 c 0
 230 -6 202 0 175 15 c 0
 148 31 125 49 125 157 c 0
 125 216 142 262 156 304 c 0
 192 412 215 453 316 561 c 0
 471 726 600 735 627 764 c 0
 644 781 669 788 696 788 c 0
 747 788 802 761 802 727 c 0
EndSplineSet
Validated: 1
Layer: 2
SplineSet
802 727 m 0,0,1
 802 708 802 708 779 677 c 128,-1,2
 756 646 756 646 735 646 c 0,3,4
 723 646 723 646 717.5 653.5 c 128,-1,5
 712 661 712 661 712 670 c 128,-1,6
 712 679 712 679 710.5 686 c 128,-1,7
 709 693 709 693 705 693 c 0,8,9
 686 693 686 693 651.5 682 c 128,-1,10
 617 671 617 671 564.5 645.5 c 128,-1,11
 512 620 512 620 446.5 563.5 c 128,-1,12
 381 507 381 507 321 429 c 0,13,14
 277 372 277 372 264.5 344 c 128,-1,15
 252 316 252 316 238 251 c 0,16,17
 224 181 224 181 224 150 c 128,-1,18
 224 119 224 119 236.5 107 c 128,-1,19
 249 95 249 95 277 95 c 0,20,21
 380 95 380 95 460 172 c 0,22,23
 512 221 512 221 542 267.5 c 128,-1,24
 572 314 572 314 572 330 c 0,25,26
 572 339 572 339 566 345.5 c 128,-1,27
 560 352 560 352 552 352 c 0,28,29
 550 352 550 352 530.5 341.5 c 128,-1,30
 511 331 511 331 477 331 c 0,31,32
 441 331 441 331 408.5 343.5 c 128,-1,33
 376 356 376 356 376 385 c 0,34,35
 376 391 376 391 377 395 c 0,36,37
 384 418 384 418 401.5 429 c 128,-1,38
 419 440 419 440 440.5 446 c 128,-1,39
 462 452 462 452 470 458 c 0,40,41
 486 472 486 472 522 472 c 0,42,43
 562 472 562 472 618.5 460.5 c 128,-1,44
 675 449 675 449 693 432 c 0,45,46
 716 409 716 409 716 332 c 0,47,48
 716 240 716 240 684 86 c 0,49,50
 680 66 680 66 677.5 57.5 c 128,-1,51
 675 49 675 49 667.5 29.5 c 128,-1,52
 660 10 660 10 647 1 c 128,-1,53
 634 -8 634 -8 616 -8 c 0,54,55
 577 -8 577 -8 577 40 c 0,56,57
 577 69 577 69 593 142 c 2,58,-1
 607 209 l 1,59,-1
 597 196 l 1,60,61
 514 102 514 102 423 48 c 128,-1,62
 332 -6 332 -6 255 -6 c 0,63,64
 213 -6 213 -6 175 15 c 0,65,66
 158 25 158 25 149 35 c 128,-1,67
 140 45 140 45 132.5 75.5 c 128,-1,68
 125 106 125 106 125 157 c 0,69,70
 125 211 125 211 156 304 c 0,71,72
 184 387 184 387 213 434.5 c 128,-1,73
 242 482 242 482 316 561 c 0,74,75
 369 617 369 617 425.5 657.5 c 128,-1,76
 482 698 482 698 519.5 714 c 128,-1,77
 557 730 557 730 588 743 c 128,-1,78
 619 756 619 756 627 764 c 0,79,80
 651 788 651 788 696 788 c 0,81,82
 736 788 736 788 769 770 c 128,-1,83
 802 752 802 752 802 727 c 0,0,1
EndSplineSet
EndChar

StartChar: H
Encoding: 72 72 51
Width: 718
Flags: W
LayerCount: 3
Fore
SplineSet
320 837 m 0
 334 837 337 832 337 805 c 0
 337 726 300 528 300 455 c 0
 300 446 301 440 302 435 c 1
 320 441 377 461 539 506 c 1
 575 513 612 522 623 526 c 1
 649 553 678 687 708 725 c 0
 716 735 730 738 742 738 c 0
 762 738 773 737 773 702 c 0
 773 663 758 580 724 407 c 0
 658 71 669 96 664 71 c 0
 659 49 633 37 610 37 c 0
 599 37 589 40 582 46 c 1
 576 55 574 71 574 91 c 0
 574 180 622 358 624 441 c 1
 591 431 505 391 362 344 c 2
 275 315 l 1
 245 144 l 2
 212 -41 198 -60 166 -60 c 0
 139 -60 127 -38 127 13 c 0
 127 123 215 597 236 695 c 0
 246 744 255 783 267 801 c 1
 287 827 306 837 320 837 c 0
EndSplineSet
Validated: 1
Layer: 2
SplineSet
320 837 m 0,0,1
 331 837 331 837 334 831 c 128,-1,2
 337 825 337 825 337 805 c 0,3,4
 337 765 337 765 318.5 628 c 128,-1,5
 300 491 300 491 300 455 c 0,6,7
 300 445 300 445 302 435 c 1,8,9
 395 466 395 466 539 506 c 1,10,11
 601 518 601 518 623 526 c 1,12,13
 636 539 636 539 664.5 622.5 c 128,-1,14
 693 706 693 706 708 725 c 0,15,16
 718 738 718 738 742 738 c 0,17,18
 754 738 754 738 759.5 736.5 c 128,-1,19
 765 735 765 735 769 727 c 128,-1,20
 773 719 773 719 773 702 c 0,21,22
 773 656 773 656 724 407 c 0,23,24
 708 328 708 328 697 267.5 c 128,-1,25
 686 207 686 207 680.5 175.5 c 128,-1,26
 675 144 675 144 671.5 122.5 c 128,-1,27
 668 101 668 101 667 94 c 128,-1,28
 666 87 666 87 665.5 81.5 c 128,-1,29
 665 76 665 76 664 71 c 0,30,31
 660 55 660 55 644.5 46 c 128,-1,32
 629 37 629 37 610 37 c 0,33,34
 592 37 592 37 582 46 c 0,35,36
 574 58 574 58 574 91 c 0,37,38
 574 138 574 138 598.5 270 c 128,-1,39
 623 402 623 402 624 441 c 1,40,41
 616 439 616 439 531 405 c 128,-1,42
 446 371 446 371 362 344 c 2,43,-1
 275 315 l 1,44,-1
 245 144 l 2,45,46
 229 52 229 52 216.5 8.5 c 128,-1,47
 204 -35 204 -35 194 -47.5 c 128,-1,48
 184 -60 184 -60 166 -60 c 0,49,50
 127 -60 127 -60 127 13 c 0,51,52
 127 85 127 85 169 332.5 c 128,-1,53
 211 580 211 580 236 695 c 0,54,55
 254 781 254 781 267 801 c 0,56,57
 295 837 295 837 320 837 c 0,0,1
EndSplineSet
EndChar

StartChar: I
Encoding: 73 73 52
Width: 664
Flags: W
HStem: -18 99<156.508 305.502> 763 20G<576.5 628>
DStem2: 386 292 550 518 0.17554 0.984472<-34.0109 379.496>
LayerCount: 3
Fore
SplineSet
707 737 m 0
 707 692 655 683 601 677 c 2
 581 675 l 1
 550 518 l 2
 525 389 491 204 491 144 c 1
 499 148 512 153 526 153 c 0
 550 153 569 140 569 119 c 0
 569 74 506 48 354 6 c 1
 307 -10 272 -18 236 -18 c 0
 228 -18 137 -11 137 34 c 0
 137 81 181 81 198 81 c 0
 215 81 256 86 303 102 c 2
 359 121 l 1
 386 292 l 2
 402 392 426 520 438 578 c 2
 456 665 l 1
 438 662 l 2
 384 653 345 648 317 648 c 0
 264 648 251 662 251 675 c 0
 251 723 395 742 500 774 c 1
 500 774 551 783 602 783 c 0
 654 783 707 774 707 737 c 0
EndSplineSet
Validated: 1
Layer: 2
SplineSet
707 737 m 0,0,1
 707 721 707 721 698.5 709.5 c 128,-1,2
 690 698 690 698 673.5 692 c 128,-1,3
 657 686 657 686 641 683 c 128,-1,4
 625 680 625 680 601 677 c 2,5,-1
 581 675 l 1,6,-1
 550 518 l 2,7,8
 491 214 491 214 491 144 c 1,9,10
 509 153 509 153 526 153 c 0,11,12
 544 153 544 153 556.5 143.5 c 128,-1,13
 569 134 569 134 569 119 c 0,14,15
 569 87 569 87 521.5 63 c 128,-1,16
 474 39 474 39 354 6 c 1,17,18
 284 -18 284 -18 236 -18 c 0,19,20
 230 -18 230 -18 216.5 -16 c 128,-1,21
 203 -14 203 -14 184 -9 c 128,-1,22
 165 -4 165 -4 151 7 c 128,-1,23
 137 18 137 18 137 34 c 0,24,25
 137 81 137 81 198 81 c 0,26,27
 241 81 241 81 303 102 c 2,28,-1
 359 121 l 1,29,-1
 386 292 l 2,30,31
 410 445 410 445 438 578 c 2,32,-1
 456 665 l 1,33,-1
 438 662 l 2,34,35
 354 648 354 648 317 648 c 0,36,37
 251 648 251 648 251 675 c 0,38,39
 251 689 251 689 266 700.5 c 128,-1,40
 281 712 281 712 309.5 721.5 c 128,-1,41
 338 731 338 731 366 738.5 c 128,-1,42
 394 746 394 746 434.5 756 c 128,-1,43
 475 766 475 766 500 774 c 0,44,45
 551 783 551 783 602 783 c 0,46,47
 707 783 707 783 707 737 c 0,0,1
EndSplineSet
EndChar

StartChar: J
Encoding: 74 74 53
Width: 741
Flags: W
HStem: -53 103<321.216 371.087>
VStem: 153 115<142.63 298.02> 201 647<618 746>
DStem2: 400.369 -53 492.78 -53 0.207912 0.978148<354.351 668.33>
LayerCount: 3
Fore
SplineSet
278 291 m 0xc0
 278 265 268 239 268 204 c 0xc0
 268 175 276 152 291 123 c 0
 314 80 332 50 346 50 c 0
 392 50 487 356 516 491 c 2
 527 542 l 2
 533 571 536 590 536 602 c 0
 536 620 529 624 514 624 c 0
 466 624 284 575 238 575 c 0
 231 575 213 575 207 591 c 0
 204 600 201 609 201 618 c 0
 201 665 274 681 543 736 c 1
 800 793 l 1
 818 789 848 767 848 746 c 0xa0
 848 694 680 677 650 659 c 1
 646 650 635 619 624 565 c 2
 615 522 l 2
 587 392 519 165 483 89 c 0
 441 2 382 -53 348 -53 c 0
 303 -53 241 -22 241 6 c 0
 241 8 242 10 242 12 c 0
 242 16 240 21 230 29 c 0
 206 50 153 176 153 247 c 0
 153 298 188 330 230 330 c 0
 268 330 278 316 278 291 c 0xc0
EndSplineSet
Validated: 1
Layer: 2
SplineSet
278 291 m 0,0,1
 278 279 278 279 273 251 c 128,-1,2
 268 223 268 223 268 204 c 0,3,4
 268 167 268 167 291 123 c 0,5,6
 330 50 330 50 346 50 c 0,7,8
 377 50 377 50 433 208 c 128,-1,9
 489 366 489 366 516 491 c 2,10,-1
 527 542 l 2,11,12
 536 586 536 586 536 602 c 0,13,14
 536 615 536 615 531 619.5 c 128,-1,15
 526 624 526 624 514 624 c 0,16,17
 490 624 490 624 375.5 599.5 c 128,-1,18
 261 575 261 575 238 575 c 0,19,20
 213 575 213 575 207 591 c 0,21,22
 201 609 201 609 201 618 c 0,23,24
 201 651 201 651 263 671 c 128,-1,25
 325 691 325 691 543 736 c 2,26,-1
 800 793 l 1,27,28
 815 790 815 790 831.5 775.5 c 128,-1,29
 848 761 848 761 848 746 c 0,30,31
 848 723 848 723 806 706 c 128,-1,32
 764 689 764 689 711.5 677 c 128,-1,33
 659 665 659 665 650 659 c 1,34,35
 637 631 637 631 624 565 c 2,36,-1
 615 522 l 2,37,38
 594 422 594 422 551.5 283.5 c 128,-1,39
 509 145 509 145 483 89 c 0,40,41
 453 26 453 26 414 -13.5 c 128,-1,42
 375 -53 375 -53 348 -53 c 0,43,44
 313 -53 313 -53 277 -33.5 c 128,-1,45
 241 -14 241 -14 241 6 c 0,46,47
 241 7 241 7 241.5 9 c 128,-1,48
 242 11 242 11 242 12 c 0,49,50
 242 19 242 19 230 29 c 0,51,52
 210 47 210 47 181.5 122 c 128,-1,53
 153 197 153 197 153 247 c 0,54,55
 153 284 153 284 175.5 307 c 128,-1,56
 198 330 198 330 230 330 c 0,57,58
 257 330 257 330 267.5 320.5 c 128,-1,59
 278 311 278 311 278 291 c 0,0,1
EndSplineSet
EndChar

StartChar: K
Encoding: 75 75 54
Width: 831
Flags: W
HStem: 7 131<681.624 739.41>
LayerCount: 3
Fore
SplineSet
308 831 m 0
 325 831 350 818 350 778 c 0
 350 717 314 576 312 508 c 2
 311 479 l 1
 412 561 l 2
 553 675 557 664 568 667 c 0
 588 673 628 716 657 716 c 0
 677 716 701 753 744 753 c 0
 776 753 792 732 792 711 c 0
 792 673 753 662 725 655 c 0
 656 636 351 400 320 354 c 1
 329 348 354 333 473 268 c 0
 663 164 681 138 699 138 c 1
 734 135 790 71 790 44 c 0
 790 40 784 7 760 7 c 0
 727 7 608 56 574 77 c 0
 488 131 308 227 271 242 c 1
 260 210 260 102 241 10 c 0
 231 -39 217 -66 185 -66 c 0
 148 -66 136 -45 136 3 c 0
 136 99 205 518 249 729 c 1
 254 752 l 2
 265 802 275 831 308 831 c 0
EndSplineSet
Validated: 1
Layer: 2
SplineSet
308 831 m 0,0,1
 324 831 324 831 337 818 c 128,-1,2
 350 805 350 805 350 778 c 0,3,4
 350 747 350 747 331.5 644 c 128,-1,5
 313 541 313 541 312 508 c 2,6,-1
 311 479 l 1,7,-1
 412 561 l 2,8,9
 446 588 446 588 472 608 c 128,-1,10
 498 628 498 628 512.5 638.5 c 128,-1,11
 527 649 527 649 539 655.5 c 128,-1,12
 551 662 551 662 554 663.5 c 128,-1,13
 557 665 557 665 562.5 666 c 2,14,-1
 568 667 l 2,15,16
 574 669 574 669 607 692.5 c 128,-1,17
 640 716 640 716 657 716 c 0,18,19
 664 716 664 716 692 734.5 c 128,-1,20
 720 753 720 753 744 753 c 0,21,22
 767 753 767 753 779.5 740.5 c 128,-1,23
 792 728 792 728 792 711 c 0,24,25
 792 686 792 686 773.5 674 c 128,-1,26
 755 662 755 662 725 655 c 0,27,28
 676 642 676 642 510.5 516.5 c 128,-1,29
 345 391 345 391 320 354 c 1,30,31
 340 341 340 341 473 268 c 0,32,33
 525 240 525 240 567 215 c 128,-1,34
 609 190 609 190 630 177 c 128,-1,35
 651 164 651 164 666 154 c 128,-1,36
 681 144 681 144 687.5 141 c 128,-1,37
 694 138 694 138 699 138 c 0,38,39
 724 136 724 136 757 100.5 c 128,-1,40
 790 65 790 65 790 44 c 0,41,42
 790 40 790 40 788 32.5 c 128,-1,43
 786 25 786 25 778.5 16 c 128,-1,44
 771 7 771 7 760 7 c 0,45,46
 737 7 737 7 669.5 33.5 c 128,-1,47
 602 60 602 60 574 77 c 0,48,49
 513 115 513 115 407 172.5 c 128,-1,50
 301 230 301 230 271 242 c 1,51,52
 266 227 266 227 258.5 143 c 128,-1,53
 251 59 251 59 241 10 c 0,54,55
 233 -29 233 -29 220.5 -47.5 c 128,-1,56
 208 -66 208 -66 185 -66 c 0,57,58
 158 -66 158 -66 147 -50 c 128,-1,59
 136 -34 136 -34 136 3 c 0,60,61
 136 71 136 71 174.5 315 c 128,-1,62
 213 559 213 559 249 729 c 2,63,-1
 254 752 l 2,64,65
 263 794 263 794 274 812.5 c 128,-1,66
 285 831 285 831 308 831 c 0,0,1
EndSplineSet
EndChar

StartChar: L
Encoding: 76 76 55
Width: 760
Flags: W
HStem: -10 100<192.5 403.446>
VStem: 144 105<27.5 231.673>
LayerCount: 3
Fore
SplineSet
249 117 m 0
 249 93 251 90 271 90 c 0
 341 90 681 173 693 173 c 0
 711 173 735 158 735 135 c 0
 735 119 725 108 704 94 c 0
 654 60 357 -10 218 -10 c 0
 167 -10 144 -4 144 59 c 0
 144 161 250 719 256 749 c 0
 261 772 270 788 292 788 c 0
 314 788 330 761 330 729 c 0
 330 626 249 221 249 117 c 0
EndSplineSet
Validated: 1
Layer: 2
SplineSet
249 117 m 0,0,1
 249 99 249 99 252.5 94.5 c 128,-1,2
 256 90 256 90 271 90 c 0,3,4
 302 90 302 90 404.5 111 c 128,-1,5
 507 132 507 132 598.5 152.5 c 128,-1,6
 690 173 690 173 693 173 c 0,7,8
 708 173 708 173 721.5 162 c 128,-1,9
 735 151 735 151 735 135 c 0,10,11
 735 115 735 115 704 94 c 0,12,13
 664 67 664 67 491 28.5 c 128,-1,14
 318 -10 318 -10 218 -10 c 0,15,16
 176 -10 176 -10 160 2.5 c 128,-1,17
 144 15 144 15 144 59 c 0,18,19
 144 123 144 123 189.5 382.5 c 128,-1,20
 235 642 235 642 256 749 c 0,21,22
 264 788 264 788 292 788 c 0,23,24
 308 788 308 788 319 770.5 c 128,-1,25
 330 753 330 753 330 729 c 0,26,27
 330 678 330 678 289.5 423.5 c 128,-1,28
 249 169 249 169 249 117 c 0,0,1
EndSplineSet
EndChar

StartChar: M
Encoding: 77 77 56
Width: 779
Flags: W
VStem: 621 107<-2.22217 197.503>
LayerCount: 3
Fore
SplineSet
675 -12 m 0
 647 -12 621 7 621 39 c 0
 621 110 704 533 717 646 c 1
 666 582 693 598 550 423 c 0
 510 374 423 320 369 320 c 0
 347 320 319 368 302 413 c 2
 284 459 l 1
 239 249 l 2
 181 -23 157 -71 113 -71 c 0
 93 -71 82 -59 82 -20 c 0
 82 44 110 183 170 464 c 0
 218 688 236 767 253 784 c 0
 262 793 284 808 303 808 c 0
 333 808 342 770 350 678 c 0
 364 522 397 419 413 404 c 1
 436 417 521 511 680 734 c 0
 707 772 754 803 787 803 c 0
 804 803 831 794 831 734 c 0
 831 620 726 224 726 86 c 0
 726 68 728 60 728 51 c 0
 728 27 718 -12 675 -12 c 0
EndSplineSet
Validated: 1
Layer: 2
SplineSet
675 -12 m 0,0,1
 653 -12 653 -12 637 2 c 128,-1,2
 621 16 621 16 621 39 c 0,3,4
 621 79 621 79 666.5 340.5 c 128,-1,5
 712 602 712 602 717 646 c 1,6,7
 705 632 705 632 669.5 579 c 128,-1,8
 634 526 634 526 550 423 c 0,9,10
 519 385 519 385 463.5 352.5 c 128,-1,11
 408 320 408 320 369 320 c 0,12,13
 354 320 354 320 335 348 c 128,-1,14
 316 376 316 376 302 413 c 2,15,-1
 284 459 l 1,16,-1
 239 249 l 2,17,18
 210 112 210 112 190 44 c 128,-1,19
 170 -24 170 -24 153 -47.5 c 128,-1,20
 136 -71 136 -71 113 -71 c 0,21,22
 82 -71 82 -71 82 -20 c 0,23,24
 82 52 82 52 170 464 c 0,25,26
 209 645 209 645 225 708.5 c 128,-1,27
 241 772 241 772 253 784 c 0,28,29
 277 808 277 808 303 808 c 0,30,31
 325 808 325 808 334.5 779.5 c 128,-1,32
 344 751 344 751 350 678 c 0,33,34
 360 571 360 571 379.5 494 c 128,-1,35
 399 417 399 417 413 404 c 1,36,37
 434 416 434 416 502.5 499 c 128,-1,38
 571 582 571 582 680 734 c 0,39,40
 700 763 700 763 731 783 c 128,-1,41
 762 803 762 803 787 803 c 0,42,43
 831 803 831 803 831 734 c 0,44,45
 831 680 831 680 778.5 419 c 128,-1,46
 726 158 726 158 726 86 c 0,47,48
 726 76 726 76 727 65 c 128,-1,49
 728 54 728 54 728 51 c 0,50,51
 728 27 728 27 716 7.5 c 128,-1,52
 704 -12 704 -12 675 -12 c 0,0,1
EndSplineSet
EndChar

StartChar: N
Encoding: 78 78 57
Width: 881
Flags: W
HStem: -21 737<694 933>
VStem: 106 137<112.812 203.324>
LayerCount: 3
Fore
SplineSet
263 316 m 0
 245 232 250 219 243 185 c 0
 227 110 189 31 155 31 c 0
 121 31 106 41 106 80 c 0
 106 162 247 721 262 752 c 1
 262 752 280 786 323 786 c 0
 337 786 350 781 361 773 c 0
 381 757 468 600 468 575 c 1
 471 557 519 484 587 284 c 0
 627 166 661 100 678 93 c 1
 693 110 717 186 758 331 c 0
 849 656 863 716 933 716 c 0
 961 716 968 698 968 678 c 0
 968 632 918 512 834 226 c 0
 779 40 760 -21 694 -21 c 0
 590 -21 535 55 490 195 c 0
 437 357 430 334 427 388 c 0
 425 429 365 536 340 589 c 1
 320 540 284 415 263 316 c 0
EndSplineSet
Validated: 1
Layer: 2
SplineSet
263 316 m 0,0,1
 253 267 253 267 249 231 c 128,-1,2
 245 195 245 195 243 185 c 0,3,4
 230 125 230 125 204.5 78 c 128,-1,5
 179 31 179 31 155 31 c 0,6,7
 128 31 128 31 117 41.5 c 128,-1,8
 106 52 106 52 106 80 c 0,9,10
 106 135 106 135 177 428.5 c 128,-1,11
 248 722 248 722 262 752 c 0,12,13
 264 756 264 756 268 761.5 c 128,-1,14
 272 767 272 767 288 776.5 c 128,-1,15
 304 786 304 786 323 786 c 0,16,17
 343 786 343 786 361 773 c 0,18,19
 377 761 377 761 422.5 677 c 128,-1,20
 468 593 468 593 468 575 c 0,21,22
 469 570 469 570 484 540 c 128,-1,23
 499 510 499 510 528 440.5 c 128,-1,24
 557 371 557 371 587 284 c 0,25,26
 647 106 647 106 678 93 c 1,27,28
 697 114 697 114 758 331 c 0,29,30
 832 595 832 595 857.5 655.5 c 128,-1,31
 883 716 883 716 933 716 c 0,32,33
 968 716 968 716 968 678 c 0,34,35
 968 658 968 658 954.5 612 c 128,-1,36
 941 566 941 566 904 452 c 128,-1,37
 867 338 867 338 834 226 c 0,38,39
 789 72 789 72 764.5 25.5 c 128,-1,40
 740 -21 740 -21 694 -21 c 0,41,42
 619 -21 619 -21 572.5 32 c 128,-1,43
 526 85 526 85 490 195 c 0,44,45
 473 247 473 247 458.5 284.5 c 128,-1,46
 444 322 444 322 439 333.5 c 128,-1,47
 434 345 434 345 431 357 c 128,-1,48
 428 369 428 369 427 388 c 0,49,50
 426 406 426 406 412 440.5 c 128,-1,51
 398 475 398 475 370.5 528.5 c 128,-1,52
 343 582 343 582 340 589 c 1,53,54
 300 492 300 492 263 316 c 0,0,1
EndSplineSet
EndChar

StartChar: O
Encoding: 79 79 58
Width: 707
Flags: W
HStem: -26 94<285.016 422.516> 650 123<580.195 651.013>
VStem: 122 104<150.701 363.236> 686 89<455.562 609.415>
LayerCount: 3
Fore
SplineSet
590 280 m 0
 629 391 686 477 686 518 c 0
 686 560 657 633 649 644 c 1
 645 647 637 650 617 650 c 0
 594 650 555 645 495 628 c 0
 339 584 276 435 256 385 c 0
 240 343 226 311 226 275 c 0
 226 258 228 238 233 210 c 0
 249 110 288 68 346 68 c 0
 362 68 382 72 403 79 c 0
 448 95 567 217 590 280 c 0
775 593 m 0
 775 347 548 14 463 14 c 0
 455 14 452 3 442 -3 c 0
 418 -17 346 -26 296 -26 c 0
 255 -26 237 -19 205 10 c 0
 154 56 122 155 122 248 c 0
 122 410 244 584 354 648 c 0
 404 677 439 691 459 692 c 1
 483 697 520 746 560 746 c 0
 593 746 581 773 637 773 c 0
 726 773 775 705 775 593 c 0
EndSplineSet
Validated: 1
Layer: 2
SplineSet
590 280 m 0,0,1
 606 325 606 325 631 378.5 c 128,-1,2
 656 432 656 432 671 466 c 128,-1,3
 686 500 686 500 686 518 c 0,4,5
 686 546 686 546 671.5 589.5 c 128,-1,6
 657 633 657 633 649 644 c 0,7,8
 641 650 641 650 617 650 c 0,9,10
 573 650 573 650 495 628 c 0,11,12
 335 583 335 583 256 385 c 0,13,14
 226 306 226 306 226 275 c 0,15,16
 226 249 226 249 233 210 c 0,17,18
 256 68 256 68 346 68 c 0,19,20
 370 68 370 68 403 79 c 0,21,22
 438 91 438 91 505.5 162.5 c 128,-1,23
 573 234 573 234 590 280 c 0,0,1
775 593 m 0,24,25
 775 506 775 506 738 399.5 c 128,-1,26
 701 293 701 293 650.5 210 c 128,-1,27
 600 127 600 127 547.5 70.5 c 128,-1,28
 495 14 495 14 463 14 c 0,29,30
 459 14 459 14 452.5 7 c 128,-1,31
 446 -0 446 -0 442 -3 c 0,32,33
 425 -13 425 -13 380.5 -19.5 c 128,-1,34
 336 -26 336 -26 296 -26 c 0,35,36
 265 -26 265 -26 247 -19 c 128,-1,37
 229 -12 229 -12 205 10 c 0,38,39
 167 44 167 44 144.5 110.5 c 128,-1,40
 122 177 122 177 122 248 c 0,41,42
 122 364 122 364 194 480.5 c 128,-1,43
 266 597 266 597 354 648 c 0,44,45
 427 690 427 690 459 692 c 0,46,47
 467 694 467 694 502 720 c 128,-1,48
 537 746 537 746 560 746 c 0,49,50
 574 746 574 746 590 759.5 c 128,-1,51
 606 773 606 773 637 773 c 0,52,53
 703 773 703 773 739 725.5 c 128,-1,54
 775 678 775 678 775 593 c 0,24,25
EndSplineSet
EndChar

StartChar: P
Encoding: 80 80 59
Width: 703
Flags: W
HStem: 320 89<338.141 460.93> 706 106<419.452 655.991>
VStem: 699 97<602.383 744.5>
LayerCount: 3
Fore
SplineSet
699 640 m 0
 699 697 554 706 551 706 c 0
 532 706 511 702 452 691 c 0
 382 678 374 676 359 604 c 0
 346 544 337 462 337 426 c 0
 337 418 337 413 338 410 c 1
 341 409 345 409 350 409 c 0
 386 409 482 426 542 454 c 0
 572 468 594 489 597 499 c 0
 616 552 699 593 699 640 c 0
414 795 m 0
 481 795 518 812 585 812 c 0
 590 812 598 812 606 811 c 0
 718 797 796 788 796 701 c 0
 796 643 748 511 711 509 c 1
 708 505 708 497 706 494 c 0
 683 453 556 364 503 354 c 1
 452 341 461 339 451 333 c 0
 439 326 409 320 372 320 c 2
 324 320 l 1
 299 159 l 2
 274 2 266 -43 213 -65 c 0
 208 -67 203 -68 198 -68 c 0
 180 -68 168 -53 168 -22 c 0
 168 35 226 439 249 553 c 2
 265 632 l 1
 250 624 228 610 209 610 c 0
 198 610 183 620 183 638 c 0
 183 658 202 687 265 740 c 0
 314 781 338 798 368 798 c 0
 387 798 386 795 414 795 c 0
EndSplineSet
Validated: 1
Layer: 2
SplineSet
699 640 m 0,0,1
 699 660 699 660 677 674.5 c 128,-1,2
 655 689 655 689 625.5 695 c 128,-1,3
 596 701 596 701 576.5 703.5 c 128,-1,4
 557 706 557 706 551 706 c 0,5,6
 532 706 532 706 452 691 c 0,7,8
 398 681 398 681 384 668.5 c 128,-1,9
 370 656 370 656 359 604 c 0,10,11
 337 502 337 502 337 426 c 0,12,13
 337 413 337 413 338 410 c 0,14,15
 341 409 341 409 350 409 c 0,16,17
 381 409 381 409 441 422 c 128,-1,18
 501 435 501 435 542 454 c 0,19,20
 590 477 590 477 597 499 c 0,21,22
 606 523 606 523 652.5 569 c 128,-1,23
 699 615 699 615 699 640 c 0,0,1
414 795 m 0,24,25
 448 795 448 795 500 803.5 c 128,-1,26
 552 812 552 812 585 812 c 0,27,28
 598 812 598 812 606 811 c 0,29,30
 638 807 638 807 652.5 805 c 128,-1,31
 667 803 667 803 692 798.5 c 128,-1,32
 717 794 717 794 728.5 789.5 c 128,-1,33
 740 785 740 785 756 776.5 c 128,-1,34
 772 768 772 768 778.5 758 c 128,-1,35
 785 748 785 748 790.5 733.5 c 128,-1,36
 796 719 796 719 796 701 c 0,37,38
 796 654 796 654 766.5 582 c 128,-1,39
 737 510 737 510 711 509 c 0,40,41
 709 507 709 507 708 501 c 128,-1,42
 707 495 707 495 706 494 c 0,43,44
 689 463 689 463 615.5 412 c 128,-1,45
 542 361 542 361 503 354 c 0,46,47
 485 349 485 349 474.5 346 c 128,-1,48
 464 343 464 343 461.5 341 c 128,-1,49
 459 339 459 339 456 336.5 c 128,-1,50
 453 334 453 334 451 333 c 0,51,52
 429 320 429 320 372 320 c 2,53,-1
 324 320 l 1,54,-1
 299 159 l 2,55,56
 279 31 279 31 264.5 -9 c 128,-1,57
 250 -49 250 -49 213 -65 c 0,58,59
 205.5 -68 205.5 -68 198 -68 c 0,60,61
 168 -68 168 -68 168 -22 c 0,62,63
 168 20 168 20 199.5 242.5 c 128,-1,64
 231 465 231 465 249 553 c 2,65,-1
 265 632 l 1,66,67
 224 610 224 610 209 610 c 0,68,69
 200 610 200 610 191.5 617.5 c 128,-1,70
 183 625 183 625 183 638 c 0,71,72
 183 671 183 671 265 740 c 0,73,74
 305 773 305 773 326 785.5 c 128,-1,75
 347 798 347 798 368 798 c 0,76,77
 376 798 376 798 387.5 796.5 c 128,-1,78
 399 795 399 795 414 795 c 0,24,25
EndSplineSet
EndChar

StartChar: Q
Encoding: 81 81 60
Width: 813
Flags: W
HStem: -55 104<250.061 410.452> -18 21G<750 764.5> 661 124<550.195 766.5>
VStem: 102 103<104.596 327.284> 735 89<507.764 655.5>
LayerCount: 3
Fore
SplineSet
792 16 m 0xb8
 792 -11 770 -18 759 -18 c 0x78
 741 -18 698 5 679 27 c 0
 674 33 655 49 625 73 c 1
 589 100 l 1
 572 80 l 1
 497 -6 393 -55 300 -55 c 0
 247 -55 199 -39 162 -5 c 0
 127 28 102 126 102 209 c 0
 102 317 172 475 237 566 c 1
 393 780 669 785 734 785 c 0
 799 785 824 679 824 632 c 0
 824 563 792 440 714 288 c 2
 666 195 l 1
 690 174 l 1
 737 131 792 59 792 16 c 0xb8
593 264 m 1
 620 295 735 508 735 564 c 0
 735 587 724 602 706 624 c 0
 681 654 672 661 552 661 c 0
 513 661 490 659 487 658 c 0
 438 643 308 530 303 507 c 0
 301 498 291 476 276 462 c 1
 262 444 205 281 205 215 c 0
 205 196 208 179 212 156 c 0
 227 77 253 49 325 49 c 0xb8
 400 49 510 109 520 151 c 1
 518 162 491 204 423 263 c 0
 409 275 395 287 395 301 c 0
 395 317 423 350 452 350 c 0
 485 350 570 274 593 264 c 1
EndSplineSet
Validated: 1
Layer: 2
SplineSet
792 16 m 0,0,1
 792 -2 792 -2 781 -10 c 128,-1,2
 770 -18 770 -18 759 -18 c 0,3,4
 745 -18 745 -18 719 -3.5 c 128,-1,5
 693 11 693 11 679 27 c 0,6,7
 672 35 672 35 625 73 c 2,8,-1
 589 100 l 1,9,-1
 572 80 l 2,10,11
 516 16 516 16 443.5 -19.5 c 128,-1,12
 371 -55 371 -55 300 -55 c 0,13,14
 216 -55 216 -55 162 -5 c 0,15,16
 136 19 136 19 119 82 c 128,-1,17
 102 145 102 145 102 209 c 0,18,19
 102 286 102 286 143 389 c 128,-1,20
 184 492 184 492 237 566 c 0,21,22
 281 626 281 626 343.5 670.5 c 128,-1,23
 406 715 406 715 459.5 736 c 128,-1,24
 513 757 513 757 576.5 769 c 128,-1,25
 640 781 640 781 671 783 c 128,-1,26
 702 785 702 785 734 785 c 0,27,28
 777 785 777 785 800.5 732.5 c 128,-1,29
 824 680 824 680 824 632 c 0,30,31
 824 502 824 502 714 288 c 2,32,-1
 666 195 l 1,33,-1
 690 174 l 2,34,35
 729 138 729 138 760.5 92 c 128,-1,36
 792 46 792 46 792 16 c 0,0,1
593 264 m 1,37,38
 618 293 618 293 676.5 409.5 c 128,-1,39
 735 526 735 526 735 564 c 0,40,41
 735 589 735 589 706 624 c 0,42,43
 686 648 686 648 662 654.5 c 128,-1,44
 638 661 638 661 552 661 c 0,45,46
 496 661 496 661 487 658 c 0,47,48
 452 647 452 647 379.5 586 c 128,-1,49
 307 525 307 525 303 507 c 0,50,51
 297 482 297 482 276 462 c 0,52,53
 263 445 263 445 234 352.5 c 128,-1,54
 205 260 205 260 205 215 c 0,55,56
 205 196 205 196 212 156 c 0,57,58
 223 96 223 96 247.5 72.5 c 128,-1,59
 272 49 272 49 325 49 c 0,60,61
 381 49 381 49 446.5 84 c 128,-1,62
 512 119 512 119 520 151 c 0,63,64
 519 157 519 157 509.5 171 c 128,-1,65
 500 185 500 185 477 210.5 c 128,-1,66
 454 236 454 236 423 263 c 0,67,68
 395 287 395 287 395 301 c 0,69,70
 395 314 395 314 413.5 332 c 128,-1,71
 432 350 432 350 452 350 c 0,72,73
 471 350 471 350 530 308 c 128,-1,74
 589 266 589 266 593 264 c 1,37,38
EndSplineSet
EndChar

StartChar: R
Encoding: 82 82 61
Width: 688
Flags: W
HStem: 57 131<560.415 621.482> 653 114<373 554.401>
VStem: 181 102<7.92902 147.111>
LayerCount: 3
Fore
SplineSet
191 626 m 0
 191 666 314 767 335 767 c 0
 392 767 641 737 675 726 c 0
 718 712 732 681 732 649 c 0
 732 544 592 442 579 424 c 1
 571 397 358 303 350 299 c 1
 392 285 493 255 545 218 c 0
 567 202 583 191 589 188 c 1
 618 183 659 125 659 99 c 0
 659 91 652 57 620 57 c 0
 575 57 495 129 361 183 c 2
 301 207 l 1
 283 109 l 2
 268 27 267 -24 214 -24 c 0
 190 -24 181 -5 181 27 c 0
 181 77 204 145 204 199 c 0
 204 230 196 242 187 246 c 0
 169 255 158 269 158 286 c 0
 158 308 177 329 206 341 c 2
 233 352 l 1
 248 457 l 2
 258 526 263 569 263 591 c 0
 263 597 263 602 262 605 c 1
 256 601 244 593 226 593 c 0
 205 593 191 606 191 626 c 0
643 614 m 1
 626 623 526 653 435 653 c 2
 373 653 l 1
 371 614 l 2
 368 570 348 424 342 380 c 1
 382 392 474 433 515 462 c 0
 558 492 633 587 643 614 c 1
EndSplineSet
Validated: 1
Layer: 2
SplineSet
191 626 m 0,0,1
 191 653 191 653 253.5 710 c 128,-1,2
 316 767 316 767 335 767 c 0,3,4
 378 767 378 767 514 750.5 c 128,-1,5
 650 734 650 734 675 726 c 0,6,7
 732 707 732 707 732 649 c 0,8,9
 732 613 732 613 709.5 572 c 128,-1,10
 687 531 687 531 661 504 c 128,-1,11
 635 477 635 477 608 452 c 128,-1,12
 581 427 581 427 579 424 c 0,13,14
 577 418 577 418 559.5 406 c 128,-1,15
 542 394 542 394 518 380.5 c 128,-1,16
 494 367 494 367 464.5 352.5 c 128,-1,17
 435 338 435 338 411.5 327 c 128,-1,18
 388 316 388 316 369 307.5 c 2,19,-1
 350 299 l 1,20,21
 503 248 503 248 545 218 c 0,22,23
 580 192 580 192 589 188 c 0,24,25
 610 184 610 184 634.5 151.5 c 128,-1,26
 659 119 659 119 659 99 c 0,27,28
 659 87 659 87 650 72 c 128,-1,29
 641 57 641 57 620 57 c 0,30,31
 601 57 601 57 566.5 76 c 128,-1,32
 532 95 532 95 474 128 c 128,-1,33
 416 161 416 161 361 183 c 2,34,-1
 301 207 l 1,35,-1
 283 109 l 2,36,37
 281 99 281 99 278.5 83 c 128,-1,38
 276 67 276 67 274.5 59 c 128,-1,39
 273 51 273 51 270.5 38.5 c 128,-1,40
 268 26 268 26 265.5 19.5 c 128,-1,41
 263 13 263 13 259.5 4.5 c 128,-1,42
 256 -4 256 -4 252 -8 c 128,-1,43
 248 -12 248 -12 242.5 -16.5 c 128,-1,44
 237 -21 237 -21 230 -22.5 c 128,-1,45
 223 -24 223 -24 214 -24 c 0,46,47
 181 -24 181 -24 181 27 c 0,48,49
 181 52 181 52 192.5 112 c 128,-1,50
 204 172 204 172 204 199 c 0,51,52
 204 238 204 238 187 246 c 0,53,54
 158 260 158 260 158 286 c 0,55,56
 158 321 158 321 206 341 c 2,57,-1
 233 352 l 1,58,-1
 248 457 l 2,59,60
 263 560 263 560 263 591 c 0,61,62
 263 602 263 602 262 605 c 1,63,64
 244 593 244 593 226 593 c 0,65,66
 210 593 210 593 200.5 602 c 128,-1,67
 191 611 191 611 191 626 c 0,0,1
643 614 m 1,68,69
 624 624 624 624 559.5 638.5 c 128,-1,70
 495 653 495 653 435 653 c 2,71,-1
 373 653 l 1,72,-1
 371 614 l 2,73,74
 368 571 368 571 342 380 c 1,75,76
 375 390 375 390 430.5 415.5 c 128,-1,77
 486 441 486 441 515 462 c 0,78,79
 545 483 545 483 590 537.5 c 128,-1,80
 635 592 635 592 643 614 c 1,68,69
EndSplineSet
EndChar

StartChar: S
Encoding: 83 83 62
Width: 631
Flags: W
HStem: 0 241<161.064 233> 681 80<438.933 618.475>
VStem: 120 82<98.2106 161.564> 168 106<467.662 547.544> 514 96<167.192 259.88>
LayerCount: 3
Fore
SplineSet
249 212 m 0xe8
 249 164 202 156 202 134 c 0xe8
 202 130 203 125 205 119 c 0
 211 96 214 95 298 95 c 0
 370 95 397 100 435 122 c 0
 493 156 500 163 511 213 c 0
 513 221 514 228 514 233 c 0
 514 250 502 257 457 278 c 0
 418 297 382 308 373 309 c 1
 306 309 168 440 168 502 c 0
 168 558 281 691 410 743 c 0
 437 754 495 761 561 761 c 0
 624 761 645 754 674 726 c 0
 697 704 707 678 707 661 c 0
 707 654 702 618 678 618 c 0
 644 618 634 681 541 681 c 0
 401 681 274 555 274 498 c 0xd8
 274 468 351 425 465 389 c 0
 572 355 610 305 610 249 c 0
 610 223 601 191 586 163 c 0
 529 52 460 20 254 7 c 2
 145 0 l 1
 128 64 l 2
 123 82 120 100 120 117 c 0
 120 184 159 241 218 241 c 0
 233 241 249 235 249 212 c 0xe8
EndSplineSet
Validated: 1
Layer: 2
SplineSet
249 212 m 0,0,1
 249 185 249 185 225.5 163.5 c 128,-1,2
 202 142 202 142 202 134 c 0,3,4
 202 128 202 128 205 119 c 0,5,6
 208 109 208 109 210 105 c 128,-1,7
 212 101 212 101 223 98.5 c 128,-1,8
 234 96 234 96 248.5 95.5 c 128,-1,9
 263 95 263 95 298 95 c 0,10,11
 352 95 352 95 379.5 100.5 c 128,-1,12
 407 106 407 106 435 122 c 0,13,14
 479 148 479 148 491 162 c 128,-1,15
 503 176 503 176 511 213 c 0,16,17
 514 225 514 225 514 233 c 0,18,19
 514 245 514 245 503.5 253 c 128,-1,20
 493 261 493 261 457 278 c 0,21,22
 399 306 399 306 373 309 c 0,23,24
 323 309 323 309 245.5 382 c 128,-1,25
 168 455 168 455 168 502 c 0,26,27
 168 547 168 547 243.5 626.5 c 128,-1,28
 319 706 319 706 410 743 c 0,29,30
 454 761 454 761 561 761 c 0,31,32
 608 761 608 761 630 754 c 128,-1,33
 652 747 652 747 674 726 c 0,34,35
 707 694 707 694 707 661 c 0,36,37
 707 655 707 655 705 646.5 c 128,-1,38
 703 638 703 638 696 628 c 128,-1,39
 689 618 689 618 678 618 c 128,-1,40
 667 618 667 618 655 628 c 128,-1,41
 643 638 643 638 632 649.5 c 128,-1,42
 621 661 621 661 597 671 c 128,-1,43
 573 681 573 681 541 681 c 0,44,45
 444 681 444 681 359 614 c 128,-1,46
 274 547 274 547 274 498 c 0,47,48
 274 476 274 476 326.5 446 c 128,-1,49
 379 416 379 416 465 389 c 0,50,51
 610 343 610 343 610 249 c 0,52,53
 610 208 610 208 586 163 c 0,54,55
 543 80 543 80 476 48.5 c 128,-1,56
 409 17 409 17 254 7 c 2,57,-1
 145 0 l 1,58,-1
 128 64 l 2,59,60
 120 93 120 93 120 117 c 0,61,62
 120 169 120 169 147.5 205 c 128,-1,63
 175 241 175 241 218 241 c 0,64,65
 249 241 249 241 249 212 c 0,0,1
EndSplineSet
EndChar

StartChar: T
Encoding: 84 84 63
Width: 884
Flags: W
HStem: 663 104<753.024 984.588>
VStem: 563 102<353.588 618.993>
LayerCount: 3
Fore
SplineSet
563 565 m 0
 563 617 560 619 540 619 c 0
 515 619 428 599 364 599 c 0
 319 599 272 584 235 584 c 0
 200 584 177 600 177 622 c 0
 177 681 274 664 753 746 c 0
 832 759 875 767 907 767 c 0
 961 767 1007 745 1007 718 c 0
 1007 696 978 663 888 663 c 0
 853 663 783 655 738 646 c 2
 667 631 l 1
 665 562 l 2
 662 463 596 2 596 2 c 1
 590 -24 578 -46 545 -46 c 0
 519 -46 507 -28 507 26 c 0
 507 141 563 403 563 565 c 0
EndSplineSet
Validated: 1
Layer: 2
SplineSet
563 565 m 0,0,1
 563 603 563 603 559.5 611 c 128,-1,2
 556 619 556 619 540 619 c 0,3,4
 532 619 532 619 466.5 609 c 128,-1,5
 401 599 401 599 364 599 c 0,6,7
 340 599 340 599 296.5 591.5 c 128,-1,8
 253 584 253 584 235 584 c 0,9,10
 209 584 209 584 193 594.5 c 128,-1,11
 177 605 177 605 177 622 c 0,12,13
 177 650 177 650 214 660.5 c 128,-1,14
 251 671 251 671 385.50770138 689.788939444 c 0,15,16
 446 698 446 698 485.5 703.5 c 128,-1,17
 525 709 525 709 601.5 721 c 128,-1,18
 678 733 678 733 753 746 c 0,19,20
 881 767 881 767 907 767 c 0,21,22
 948 767 948 767 977.5 752.5 c 128,-1,23
 1007 738 1007 738 1007 718 c 128,-1,24
 1007 698 1007 698 978 680.5 c 128,-1,25
 949 663 949 663 888 663 c 0,26,27
 823 663 823 663 738 646 c 2,28,-1
 667 631 l 1,29,-1
 665 562 l 2,30,31
 664 518 664 518 646.5 378 c 128,-1,32
 629 238 629 238 612.5 120 c 2,33,-1
 596 2 l 1,34,35
 585 -46 585 -46 545 -46 c 0,36,37
 525 -46 525 -46 516 -30 c 128,-1,38
 507 -14 507 -14 507 26 c 0,39,40
 507 78 507 78 535 278 c 128,-1,41
 563 478 563 478 563 565 c 0,0,1
EndSplineSet
EndChar

StartChar: U
Encoding: 85 85 64
Width: 729
Flags: W
HStem: -11 96<296.787 410.129>
VStem: 180 109<90.4249 443.895> 239 97<556.298 742.271> 688 119<589.037 748.816> 702 105<497.454 740.651>
LayerCount: 3
Fore
SplineSet
688 734 m 0x90
 688 785 744 789 746 789 c 0
 804 789 789 666 803 642 c 0
 805 638 807 630 807 620 c 0
 807 598 801 567 795 539 c 0
 700 90 416 -11 340 -11 c 0
 297 -11 231 13 202 46 c 0
 186 65 180 114 180 176 c 0xd0
 180 343 224 609 239 676 c 0
 251 733 260 754 295 770 c 0
 300 772 306 774 311 774 c 0
 330 774 336 755 336 728 c 0xa0
 336 694 289 381 289 175 c 0
 289 107 294 85 338 85 c 0
 356 85 384 91 433 117 c 0
 524 165 580 230 640 357 c 1
 671 419 702 494 702 586 c 0xc8
 702 651 688 702 688 734 c 0x90
EndSplineSet
Validated: 1
Layer: 2
SplineSet
688 734 m 0,0,1
 688 757 688 757 703.5 770.5 c 128,-1,2
 719 784 719 784 729.5 786.5 c 128,-1,3
 740 789 740 789 746 789 c 0,4,5
 772 789 772 789 782.5 758.5 c 128,-1,6
 793 728 793 728 796 688.5 c 128,-1,7
 799 649 799 649 803 642 c 0,8,9
 807 634 807 634 807 620 c 0,10,11
 807 595 807 595 795 539 c 0,12,13
 768 412 768 412 718.5 310.5 c 128,-1,14
 669 209 669 209 616 151 c 128,-1,15
 563 93 563 93 505.5 54.5 c 128,-1,16
 448 16 448 16 407.5 2.5 c 128,-1,17
 367 -11 367 -11 340 -11 c 0,18,19
 306 -11 306 -11 264.5 5.5 c 128,-1,20
 223 22 223 22 202 46 c 0,21,22
 180 72 180 72 180 176 c 0,23,24
 180 286 180 286 201.5 444.5 c 128,-1,25
 223 603 223 603 239 676 c 0,26,27
 248 721 248 721 259 739.5 c 128,-1,28
 270 758 270 758 295 770 c 0,29,30
 305 774 305 774 311 774 c 0,31,32
 336 774 336 774 336 728 c 0,33,34
 336 719 336 719 324 622.5 c 128,-1,35
 312 526 312 526 300.5 396 c 128,-1,36
 289 266 289 266 289 175 c 0,37,38
 289 121 289 121 297.5 103 c 128,-1,39
 306 85 306 85 338 85 c 0,40,41
 373 85 373 85 433 117 c 0,42,43
 501 153 501 153 548 207.5 c 128,-1,44
 595 262 595 262 640 357 c 0,45,46
 702 481 702 481 702 586 c 0,47,48
 702 623 702 623 695 672.5 c 128,-1,49
 688 722 688 722 688 734 c 0,0,1
EndSplineSet
EndChar

StartChar: V
Encoding: 86 86 65
Width: 794
Flags: W
VStem: 244 98<570.651 613>
LayerCount: 3
Fore
SplineSet
211 704 m 0
 211 755 265 770 277 770 c 0
 316 770 313 713 324 705 c 1
 328 705 344 705 344 690 c 0
 344 686 342 684 342 679 c 0
 342 649 370 567 398 386 c 0
 415 281 433 189 446 157 c 1
 482 202 582 358 622 434 c 0
 658 502 788 728 840 755 c 0
 842 755 847 757 853 757 c 0
 865 757 899 751 899 726 c 0
 899 687 790 527 698 358 c 0
 670 308 605 211 552 138 c 0
 487 49 453 5 415 5 c 0
 358 5 346 33 318 183 c 2
 266 459 l 2
 255 518 244 581 244 613 c 1
 244 613 243 612 243 611 c 1
 240 631 211 665 211 704 c 0
EndSplineSet
Validated: 1
Layer: 2
SplineSet
211 704 m 0,0,1
 211 737 211 737 235.5 753.5 c 128,-1,2
 260 770 260 770 277 770 c 128,-1,3
 294 770 294 770 303 756 c 128,-1,4
 312 742 312 742 316 725 c 128,-1,5
 320 708 320 708 324 705 c 0,6,7
 344 705 344 705 344 690 c 0,8,9
 344 688 344 688 343 685 c 128,-1,10
 342 682 342 682 342 679 c 0,11,12
 342 667 342 667 349.5 633.5 c 128,-1,13
 357 600 357 600 371.5 531.5 c 128,-1,14
 386 463 386 463 398 386 c 0,15,16
 428 202 428 202 446 157 c 1,17,18
 474 192 474 192 533.5 285 c 128,-1,19
 593 378 593 378 622 434 c 0,20,21
 666 517 666 517 736 627 c 128,-1,22
 806 737 806 737 840 755 c 1,23,-1
 845 756 l 2,24,25
 850 757 850 757 853 757 c 0,26,27
 867 757 867 757 883 749.5 c 128,-1,28
 899 742 899 742 899 726 c 0,29,30
 899 709 899 709 871 657.5 c 128,-1,31
 843 606 843 606 787.5 513 c 128,-1,32
 732 420 732 420 698 358 c 0,33,34
 652 275 652 275 552 138 c 0,35,36
 497 62 497 62 469 33.5 c 128,-1,37
 441 5 441 5 415 5 c 0,38,39
 373 5 373 5 356 36.5 c 128,-1,40
 339 68 339 68 318 183 c 2,41,-1
 266 459 l 2,42,43
 244 577 244 577 244 613 c 1,44,45
 243 612 243 612 243 611 c 1,46,47
 242 616 242 616 226.5 648.5 c 128,-1,48
 211 681 211 681 211 704 c 0,0,1
EndSplineSet
EndChar

StartChar: W
Encoding: 87 87 66
Width: 930
Flags: W
HStem: 35 476<552 716>
VStem: 197 110<187 458.552>
DStem2: 307 187 508 341 0.533993 0.845489<2.5135 237.538> 792 354 878 328 0.38309 0.923711<-144.626 471.696>
LayerCount: 3
Fore
SplineSet
200 489 m 0
 200 535 206 542 206 555 c 0
 206 573 194 569 194 602 c 0
 194 634 206 702 220 718 c 1
 226 722 234 724 243 724 c 0
 251 724 260 722 266 718 c 1
 315 668 290 309 307 187 c 1
 349 249 454 445 487 486 c 1
 494 493 517 511 552 511 c 0
 629 511 697 395 718 262 c 0
 721 245 727 228 731 219 c 1
 749 244 783 312 792 354 c 1
 802 395 949 750 977 790 c 1
 979 791 983 794 992 794 c 0
 1024 794 1044 787 1044 761 c 0
 1044 743 1035 709 985 586 c 2
 878 328 l 2
 785 104 786 134 776 85 c 0
 769 54 745 35 716 35 c 1
 656 39 661 110 647 125 c 1
 641 126 638 125 634 128 c 1
 628 136 625 154 625 167 c 0
 625 231 582 355 557 383 c 2
 544 398 l 1
 508 341 l 2
 282 -18 310 -42 244 -42 c 0
 231 -42 216 -39 208 -31 c 1
 200 -19 197 27 197 87 c 0
 197 176 203 295 203 386 c 0
 203 447 200 458 200 489 c 0
EndSplineSet
Validated: 1
Layer: 2
SplineSet
200 489 m 0,0,1
 200 516 200 516 203 534.5 c 128,-1,2
 206 553 206 553 206 555 c 0,3,4
 206 562 206 562 200 573 c 128,-1,5
 194 584 194 584 194 602 c 0,6,7
 194 628 194 628 202 667.5 c 128,-1,8
 210 707 210 707 220 718 c 0,9,10
 229 724 229 724 243 724 c 128,-1,11
 257 724 257 724 266 718 c 0,12,13
 288 696 288 696 294 593 c 128,-1,14
 300 490 300 490 300.5 360.5 c 128,-1,15
 301 231 301 231 307 187 c 1,16,17
 325 214 325 214 397 339 c 128,-1,18
 469 464 469 464 487 486 c 0,19,20
 512 511 512 511 552 511 c 0,21,22
 608 511 608 511 655 438 c 128,-1,23
 702 365 702 365 718 262 c 0,24,25
 722 239 722 239 731 219 c 1,26,27
 746 240 746 240 766 282.5 c 128,-1,28
 786 325 786 325 792 354 c 0,29,30
 800 388 800 388 878.5 575 c 128,-1,31
 957 762 957 762 977 790 c 1,32,33
 985 794 985 794 992 794 c 0,34,35
 1044 794 1044 794 1044 761 c 0,36,37
 1044 731 1044 731 985 586 c 2,38,-1
 878 328 l 2,39,40
 848 255 848 255 825 204 c 128,-1,41
 802 153 802 153 795 139 c 128,-1,42
 788 125 788 125 784 114 c 128,-1,43
 780 103 780 103 776 85 c 0,44,45
 771 62 771 62 754.5 48.5 c 128,-1,46
 738 35 738 35 716 35 c 0,47,48
 689 37 689 37 675.5 55.5 c 128,-1,49
 662 74 662 74 656.5 97.5 c 128,-1,50
 651 121 651 121 647 125 c 0,51,52
 635 127 635 127 634 128 c 0,53,54
 625 140 625 140 625 167 c 0,55,56
 625 213 625 213 601 287 c 128,-1,57
 577 361 577 361 557 383 c 2,58,-1
 544 398 l 1,59,-1
 508 341 l 2,60,61
 469 279 469 279 435 222 c 128,-1,62
 401 165 401 165 380.5 129.5 c 128,-1,63
 360 94 360 94 343 62.5 c 128,-1,64
 326 31 326 31 316 14.5 c 128,-1,65
 306 -2 306 -2 297.5 -15 c 128,-1,66
 289 -28 289 -28 281 -33 c 128,-1,67
 273 -38 273 -38 265 -40 c 128,-1,68
 257 -42 257 -42 244 -42 c 0,69,70
 219 -42 219 -42 208 -31 c 0,71,72
 197 -14 197 -14 197 87 c 0,73,74
 197 131 197 131 200 235.5 c 128,-1,75
 203 340 203 340 203 386 c 0,76,77
 203 420 203 420 201.5 448.5 c 128,-1,78
 200 477 200 477 200 489 c 0,0,1
EndSplineSet
EndChar

StartChar: X
Encoding: 88 88 67
Width: 813
Flags: W
LayerCount: 3
Fore
SplineSet
792 100 m 0
 792 63 739 54 728 54 c 0
 698 54 676 87 600 172 c 2
 507 276 l 1
 476 246 l 1
 392 149 350 82 329 66 c 1
 308 46 261 -30 203 -30 c 0
 184 -30 163 -22 163 -9 c 0
 163 36 413 313 431 360 c 1
 431 428 197 658 197 729 c 0
 197 746 207 760 236 760 c 0
 270 760 319 701 400 612 c 1
 527 481 l 1
 576 532 l 2
 643 602 772 721 811 721 c 0
 839 721 846 712 846 703 c 0
 846 666 754 584 754 584 c 1
 737 571 691 523 651 467 c 2
 586 376 l 1
 617 335 l 2
 686 243 792 157 792 100 c 0
EndSplineSet
Validated: 1
Layer: 2
SplineSet
792 100 m 0,0,1
 792 76 792 76 768.5 65 c 128,-1,2
 745 54 745 54 728 54 c 0,3,4
 722 54 722 54 716 56 c 128,-1,5
 710 58 710 58 702.5 63 c 128,-1,6
 695 68 695 68 689 73.5 c 128,-1,7
 683 79 683 79 672.5 90.5 c 128,-1,8
 662 102 662 102 653.5 111 c 128,-1,9
 645 120 645 120 629 139 c 128,-1,10
 613 158 613 158 600 172 c 2,11,-1
 507 276 l 1,12,-1
 476 246 l 1,13,14
 441 206 441 206 407.5 162.5 c 128,-1,15
 374 119 374 119 356 96 c 128,-1,16
 338 73 338 73 329 66 c 2,17,-1
 303.5 35.5 l 2,18,19
 278 5 278 5 253.5 -12.5 c 128,-1,20
 229 -30 229 -30 203 -30 c 0,21,22
 188 -30 188 -30 175.5 -24 c 128,-1,23
 163 -18 163 -18 163 -9 c 0,24,25
 163 16 163 16 293.5 178.5 c 128,-1,26
 424 341 424 341 431 360 c 1,27,28
 431 388 431 388 372.5 465.5 c 128,-1,29
 314 543 314 543 255.5 621 c 128,-1,30
 197 699 197 699 197 729 c 0,31,32
 197 760 197 760 236 760 c 0,33,34
 257 760 257 760 286.5 733 c 128,-1,35
 316 706 316 706 373.745067017 640.976879029 c 0,36,37
 382 632 382 632 388 625.5 c 128,-1,38
 394 619 394 619 400 612 c 2,39,-1
 527 481 l 1,40,-1
 576 532 l 2,41,42
 639 597 639 597 712 659 c 128,-1,43
 785 721 785 721 811 721 c 0,44,45
 846 721 846 721 846 703 c 0,46,47
 846 687 846 687 823 657 c 128,-1,48
 800 627 800 627 777 605.5 c 2,49,-1
 754 584 l 1,50,51
 711 551 711 551 651 467 c 2,52,-1
 586 376 l 1,53,-1
 617 335 l 2,54,55
 641 303 641 303 690 250 c 128,-1,56
 739 197 739 197 765.5 161 c 128,-1,57
 792 125 792 125 792 100 c 0,0,1
EndSplineSet
EndChar

StartChar: Y
Encoding: 89 89 68
Width: 782
Flags: W
HStem: 764 20G<813.5 846>
LayerCount: 3
Fore
SplineSet
223 710 m 0
 223 732 243 747 264 747 c 0
 292 747 314 722 459 553 c 0
 514 489 564 450 578 443 c 1
 609 446 657 526 765 657 c 0
 805 705 786 784 841 784 c 0
 851 784 897 767 897 746 c 0
 897 677 721 437 646 368 c 0
 590 316 605 327 470 122 c 2
 343 -72 l 2
 328 -94 305 -104 285 -104 c 0
 261 -104 241 -88 241 -70 c 0
 241 -55 258 -1 421 221 c 2
 503 333 l 1
 369 495 l 2
 261 627 223 677 223 710 c 0
EndSplineSet
Validated: 1
Layer: 2
SplineSet
223 710 m 0,0,1
 223 726 223 726 235.5 736.5 c 128,-1,2
 248 747 248 747 264 747 c 0,3,4
 284 747 284 747 315 716 c 128,-1,5
 346 685 346 685 459 553 c 0,6,7
 496 510 496 510 530 480 c 128,-1,8
 564 450 564 450 578 443 c 1,9,10
 587 444 587 444 598.5 453 c 128,-1,11
 610 462 610 462 627 482.5 c 128,-1,12
 644 503 644 503 661 525 c 128,-1,13
 678 547 678 547 708 585.5 c 128,-1,14
 738 624 738 624 765 657 c 0,15,16
 781 676 781 676 789 709.5 c 128,-1,17
 797 743 797 743 807 763.5 c 128,-1,18
 817 784 817 784 841 784 c 0,19,20
 852 784 852 784 874.5 772 c 128,-1,21
 897 760 897 760 897 746 c 0,22,23
 897 698 897 698 803 562 c 128,-1,24
 709 426 709 426 646 368 c 0,25,26
 630 353 630 353 622 344.5 c 128,-1,27
 614 336 614 336 606 327.5 c 128,-1,28
 598 319 598 319 586.5 301.5 c 128,-1,29
 575 284 575 284 563.5 266.5 c 128,-1,30
 552 249 552 249 525 207 c 128,-1,31
 498 165 498 165 470 122 c 2,32,-1
 343 -72 l 2,33,34
 321 -104 321 -104 285 -104 c 0,35,36
 267 -104 267 -104 254 -94 c 128,-1,37
 241 -84 241 -84 241 -70 c 0,38,39
 241 -24 241 -24 421 221 c 2,40,-1
 503 333 l 1,41,-1
 369 495 l 2,42,43
 283 601 283 601 253 643.5 c 128,-1,44
 223 686 223 686 223 710 c 0,0,1
EndSplineSet
EndChar

StartChar: Z
Encoding: 90 90 69
Width: 1010
Flags: W
HStem: -3 97<336.328 634.811> 33 100<627 873.31> 68 96<866.785 984.26> 559 21G<209.5 228> 641 97<504.752 755.504>
LayerCount: 3
Fore
SplineSet
1008 136 m 0x38
 1008 92 961 68 923 68 c 0x38
 870 68 874 33 765 33 c 1x58
 638 30 589 -3 421 -3 c 0
 316 -3 254 8 254 47 c 0
 254 78 295 102 299 118 c 1
 308 146 424 281 447 293 c 0
 451 295 451 301 455 308 c 0
 471 335 566 430 633 482 c 0
 676 516 752 616 756 635 c 1
 750 639 722 641 654 641 c 0
 487 641 490 616 340 593 c 0
 290 585 262 576 256 572 c 1
 246 563 234 559 222 559 c 0
 197 559 168 574 168 593 c 0
 168 599 170 606 174 612 c 0
 214 666 540 738 734 738 c 0
 812 738 867 723 867 669 c 0
 867 662 866 655 864 647 c 0
 853 595 767 491 720 448 c 0
 590 331 421 156 401 115 c 1
 402 108 436 94 499 94 c 0x98
 615 94 631 127 779 133 c 1x58
 900 136 836 145 937 161 c 0
 948 163 959 164 969 164 c 0
 992 164 1008 157 1008 136 c 0x38
EndSplineSet
Validated: 1
Layer: 2
SplineSet
1008 136 m 0,0,1
 1008 105 1008 105 981.5 86.5 c 128,-1,2
 955 68 955 68 923 68 c 0,3,4
 904 68 904 68 865 50.5 c 128,-1,5
 826 33 826 33 765 33 c 0,6,7
 710 32 710 32 611 14.5 c 128,-1,8
 512 -3 512 -3 421 -3 c 0,9,10
 337 -3 337 -3 295.5 8 c 128,-1,11
 254 19 254 19 254 47 c 0,12,13
 254 65 254 65 276 89 c 128,-1,14
 298 113 298 113 299 118 c 0,15,16
 306 139 306 139 367.5 211.5 c 128,-1,17
 429 284 429 284 447 293 c 0,18,19
 449 294 449 294 450 296 c 128,-1,20
 451 298 451 298 452 301.5 c 128,-1,21
 453 305 453 305 455 308 c 0,22,23
 467 329 467 329 525.5 386.5 c 128,-1,24
 584 444 584 444 633 482 c 0,25,26
 663 506 663 506 708 563 c 128,-1,27
 753 620 753 620 756 635 c 1,28,29
 747 641 747 641 654 641 c 0,30,31
 580 641 580 641 537.5 634.5 c 128,-1,32
 495 628 495 628 445 614.5 c 128,-1,33
 395 601 395 601 340 593 c 0,34,35
 271 582 271 582 256 572 c 0,36,37
 242 559 242 559 222 559 c 128,-1,38
 202 559 202 559 185 569 c 128,-1,39
 168 579 168 579 168 593 c 0,40,41
 168 603 168 603 174 612 c 0,42,43
 204 652 204 652 396 695 c 128,-1,44
 588 738 588 738 734 738 c 0,45,46
 867 738 867 738 867 669 c 0,47,48
 867 659 867 659 864 647 c 0,49,50
 856 611 856 611 808.5 548.5 c 128,-1,51
 761 486 761 486 720 448 c 0,52,53
 621 359 621 359 518.5 252 c 128,-1,54
 416 145 416 145 401 115 c 0,55,56
 402 111 402 111 412.5 106.5 c 128,-1,57
 423 102 423 102 446.5 98 c 128,-1,58
 470 94 470 94 499 94 c 0,59,60
 556 94 556 94 630 112 c 128,-1,61
 704 130 704 130 779 133 c 0,62,63
 821 134 821 134 841 136.5 c 128,-1,64
 861 139 861 139 865.5 142 c 128,-1,65
 870 145 870 145 887.5 150.5 c 128,-1,66
 905 156 905 156 937 161 c 0,67,68
 954 164 954 164 969 164 c 0,69,70
 1008 164 1008 164 1008 136 c 0,0,1
EndSplineSet
EndChar

StartChar: bracketleft
Encoding: 91 91 70
Width: 485
Flags: W
HStem: -78 86<239.004 366.909> 605 110<311 443>
VStem: 151 88<-48.5 152.384>
LayerCount: 3
Fore
SplineSet
222 -78 m 0
 163 -78 151 -75 151 -22 c 0
 151 64 195 251 224 502 c 0
 240 645 245 669 323 691 c 0
 383 708 420 715 443 715 c 0
 459 715 494 711 494 684 c 0
 494 639 437 634 413 631 c 0
 330 621 353 606 311 605 c 1
 311 602 311 599 311 596 c 0
 311 488 239 78 239 30 c 0
 239 10 245 8 258 8 c 0
 285 8 318 13 344 13 c 0
 370 13 389 8 389 -14 c 0
 389 -34 378 -49 369 -55 c 0
 351 -68 277 -78 222 -78 c 0
EndSplineSet
Validated: 1
Layer: 2
SplineSet
222 -78 m 0,0,1
 176 -78 176 -78 163.5 -69 c 128,-1,2
 151 -60 151 -60 151 -22 c 0,3,4
 151 15 151 15 162.5 89 c 128,-1,5
 174 163 174 163 193 281 c 128,-1,6
 212 399 212 399 224 502 c 0,7,8
 236 614 236 614 251 644.5 c 128,-1,9
 266 675 266 675 323 691 c 0,10,11
 408 715 408 715 443 715 c 0,12,13
 494 715 494 715 494 684 c 0,14,15
 494 668 494 668 486 657.5 c 128,-1,16
 478 647 478 647 461.5 641.5 c 128,-1,17
 445 636 445 636 437 634.5 c 128,-1,18
 429 633 429 633 413 631 c 0,19,20
 368 626 368 626 348.5 615.5 c 128,-1,21
 329 605 329 605 311 605 c 1,22,-1
 311 596 l 2,23,24
 311 534 311 534 275 290 c 128,-1,25
 239 46 239 46 239 30 c 0,26,27
 239 16 239 16 243 12 c 128,-1,28
 247 8 247 8 258 8 c 0,29,30
 272 8 272 8 301.5 10.5 c 128,-1,31
 331 13 331 13 344 13 c 0,32,33
 389 13 389 13 389 -14 c 0,34,35
 389 -42 389 -42 369 -55 c 0,36,37
 356 -64 356 -64 310.5 -71 c 128,-1,38
 265 -78 265 -78 222 -78 c 0,0,1
EndSplineSet
EndChar

StartChar: backslash
Encoding: 92 92 71
Width: 693
Flags: W
VStem: 177 91<601.245 678.066>
LayerCount: 3
Fore
SplineSet
177 644 m 0
 177 676 199 684 219 684 c 0
 234 684 268 677 268 646 c 0
 268 616 412 425 460 296 c 0
 471 265 483 242 486 238 c 0
 505 214 555 112 568 77 c 0
 584 32 602 10 602 -8 c 0
 602 -26 576 -50 549 -50 c 0
 521 -50 505 -22 493 13 c 0
 470 79 392 209 364 274 c 0
 301 418 213 508 208 550 c 0
 208 551 207 556 205 559 c 1
 187 562 177 616 177 644 c 0
EndSplineSet
Validated: 1
Layer: 2
SplineSet
177 644 m 0,0,1
 177 684 177 684 219 684 c 0,2,3
 236 684 236 684 252 675 c 128,-1,4
 268 666 268 666 268 646 c 0,5,6
 268 634 268 634 305 574.5 c 128,-1,7
 342 515 342 515 391 433 c 128,-1,8
 440 351 440 351 460 296 c 0,9,10
 476 252 476 252 486 238 c 0,11,12
 499 221 499 221 528 163.5 c 128,-1,13
 557 106 557 106 568 77 c 0,14,15
 574 59 574 59 583 40.5 c 128,-1,16
 592 22 592 22 597 11 c 128,-1,17
 602 -0 602 -0 602 -8 c 0,18,19
 602 -22 602 -22 585.5 -36 c 128,-1,20
 569 -50 569 -50 549 -50 c 0,21,22
 515 -50 515 -50 493 13 c 0,23,24
 480 50 480 50 427.5 149.5 c 128,-1,25
 375 249 375 249 364 274 c 0,26,27
 337 335 337 335 298.5 396.5 c 128,-1,28
 260 458 260 458 235 495.5 c 128,-1,29
 210 533 210 533 208 550 c 0,30,31
 208 554 208 554 205 559 c 1,32,33
 193 561 193 561 185 590 c 128,-1,34
 177 619 177 619 177 644 c 0,0,1
EndSplineSet
EndChar

StartChar: bracketright
Encoding: 93 93 72
Width: 538
Flags: W
HStem: -45 75<190.928 301.083> 596 89<309.617 395.628> 614 71<309.312 443>
VStem: 419 81<421.108 640>
DStem2: 324 42 393 -17 0.223898 0.974613<0 342.371>
LayerCount: 3
Fore
SplineSet
419 588 m 0xb0
 419 611 410 614 397 614 c 0xb0
 368 614 321 596 300 596 c 0xd0
 280 596 270 608 270 621 c 0
 270 644 321 674 347 680 c 0
 357 682 393 685 427 685 c 0
 459 685 489 682 495 671 c 0
 499 664 500 650 500 630 c 0
 500 531 460 294 424 127 c 2
 393 -17 l 1
 359 -32 l 1
 337 -40 281 -45 235 -45 c 0
 186 -45 159 -42 159 -24 c 0
 159 8 228 21 269 30 c 2
 324 42 l 1
 347 143 l 2
 350 158 355 174 358 190 c 0
 390 342 419 540 419 588 c 0xb0
EndSplineSet
Validated: 1
Layer: 2
SplineSet
419 588 m 0,0,1
 419 604 419 604 413.5 609 c 128,-1,2
 408 614 408 614 397 614 c 0,3,4
 382 614 382 614 346 605 c 128,-1,5
 310 596 310 596 300 596 c 0,6,7
 286 596 286 596 278 603.5 c 128,-1,8
 270 611 270 611 270 621 c 0,9,10
 270 637 270 637 297.5 656 c 128,-1,11
 325 675 325 675 347 680 c 0,12,13
 372 685 372 685 427 685 c 0,14,15
 487 685 487 685 495 671 c 0,16,17
 500 662 500 662 500 630 c 0,18,19
 500 560 500 560 477 412 c 128,-1,20
 454 264 454 264 424 127 c 2,21,-1
 393 -17 l 1,22,-1
 359 -32 l 2,23,24
 323 -45 323 -45 235 -45 c 0,25,26
 195 -45 195 -45 177 -41 c 128,-1,27
 159 -37 159 -37 159 -24 c 0,28,29
 159 -13 159 -13 168.5 -4 c 128,-1,30
 178 5 178 5 201 12 c 128,-1,31
 224 19 224 19 232.5 21.5 c 128,-1,32
 241 24 241 24 269 30 c 2,33,-1
 324 42 l 1,34,-1
 347 143 l 2,35,36
 348 150 348 150 352 166 c 128,-1,37
 356 182 356 182 358 190 c 0,38,39
 381 300 381 300 400 425.5 c 128,-1,40
 419 551 419 551 419 588 c 0,0,1
EndSplineSet
EndChar

StartChar: asciicircum
Encoding: 94 94 73
Width: 447
Flags: W
HStem: 566 21G<199.5 210> 578 230<378 476>
VStem: 182 329<583 621>
LayerCount: 3
Fore
SplineSet
511 621 m 0x60
 511 607 497 578 476 578 c 0x60
 430 578 380 699 357 705 c 1
 340 704 265 586 228 570 c 0
 223 568 214 566 206 566 c 0xa0
 193 566 182 570 182 583 c 0
 182 595 205 635 219 648 c 0
 268 695 341 808 378 808 c 0
 404 808 511 670 511 621 c 0x60
EndSplineSet
Validated: 1
Layer: 2
SplineSet
511 621 m 0,0,1
 511 608 511 608 500.5 593 c 128,-1,2
 490 578 490 578 476 578 c 0,3,4
 456 578 456 578 431.5 608.5 c 128,-1,5
 407 639 407 639 386.5 671 c 128,-1,6
 366 703 366 703 357 705 c 0,7,8
 350 705 350 705 299 642 c 128,-1,9
 248 579 248 579 228 570 c 0,10,11
 218 566 218 566 206 566 c 0,12,13
 182 566 182 566 182 583 c 0,14,15
 182 592 182 592 195 615 c 128,-1,16
 208 638 208 638 219 648 c 0,17,18
 236 664 236 664 271 707.5 c 128,-1,19
 306 751 306 751 334 779.5 c 128,-1,20
 362 808 362 808 378 808 c 0,21,22
 399 808 399 808 455 732 c 128,-1,23
 511 656 511 656 511 621 c 0,0,1
EndSplineSet
EndChar

StartChar: underscore
Encoding: 95 95 74
Width: 598
Flags: W
HStem: -35 62<33.4253 299.244>
LayerCount: 3
Fore
SplineSet
85 -35 m 0
 51 -35 31 -30 31 3 c 0
 31 9 39 26 74 27 c 0
 104 28 383 54 408 62 c 1
 413 66 417 67 457 67 c 0
 533 67 561 66 561 44 c 0
 561 -15 495 7 285 -17 c 0
 178 -29 119 -35 85 -35 c 0
EndSplineSet
Validated: 1
Layer: 2
SplineSet
85 -35 m 0,0,1
 57 -35 57 -35 44 -27.5 c 128,-1,2
 31 -20 31 -20 31 3 c 0,3,4
 31 7 31 7 34 12 c 128,-1,5
 37 17 37 17 47.5 22 c 128,-1,6
 58 27 58 27 74 27 c 0,7,8
 103 28 103 28 247 42.5 c 128,-1,9
 391 57 391 57 408 62 c 0,10,11
 414 67 414 67 457 67 c 0,12,13
 520 67 520 67 540.5 63 c 128,-1,14
 561 59 561 59 561 44 c 0,15,16
 561 31 561 31 557 23 c 128,-1,17
 553 15 553 15 542.5 10 c 128,-1,18
 532 5 532 5 519 2.5 c 128,-1,19
 506 0 506 0 481.5 -1.5 c 128,-1,20
 457 -3 457 -3 432 -4.5 c 128,-1,21
 407 -6 407 -6 366 -9 c 128,-1,22
 325 -12 325 -12 285 -17 c 0,23,24
 125 -35 125 -35 85 -35 c 0,0,1
EndSplineSet
EndChar

StartChar: grave
Encoding: 96 96 75
Width: 420
Flags: W
HStem: 532 178
VStem: 242 150
LayerCount: 3
Fore
SplineSet
392 569 m 0
 392 560 379 532 359 532 c 0
 322 532 242 643 242 670 c 0
 242 686 272 710 288 710 c 0
 301 710 392 607 392 569 c 0
EndSplineSet
Validated: 1
Layer: 2
SplineSet
392 569 m 0,0,1
 392 560 392 560 382 546 c 128,-1,2
 372 532 372 532 359 532 c 0,3,4
 333 532 333 532 287.5 589.5 c 128,-1,5
 242 647 242 647 242 670 c 0,6,7
 242 682 242 682 259 696 c 128,-1,8
 276 710 276 710 288 710 c 128,-1,9
 300 710 300 710 346 652.5 c 128,-1,10
 392 595 392 595 392 569 c 0,0,1
EndSplineSet
EndChar

StartChar: a
Encoding: 97 97 76
Width: 608
Flags: W
HStem: -1 73<195.676 332.893> 227 78<305.489 464.144> 472 77<392.595 526.81>
VStem: 116 78<78.8281 155.086> 535 83<292.571 467.673>
LayerCount: 3
Fore
SplineSet
194 100 m 0
 194 83 229 72 246 72 c 0
 295 72 388 115 388 115 c 1
 393 139 472 178 472 192 c 0
 472 198 461 227 375 227 c 0
 249 227 194 143 194 100 c 0
618 428 m 0
 618 372 569 184 555 51 c 1
 545 17 510 -5 500 -5 c 0
 475 -5 469 25 469 56 c 0
 469 73 471 91 472 105 c 1
 422 59 310 -1 249 -1 c 0
 215 -1 152 12 131 30 c 0
 120 40 116 60 116 82 c 0
 116 186 177 228 266 268 c 0
 331 298 385 305 411 305 c 0
 474 305 482 276 491 272 c 1
 505 269 511 264 516 259 c 1
 530 324 535 369 535 401 c 0
 535 459 517 472 496 472 c 0
 384 472 265 395 212 395 c 0
 196 395 191 405 191 413 c 0
 191 415 192 416 192 418 c 0
 205 477 272 485 394 528 c 0
 437 543 474 549 504 549 c 0
 559 549 593 524 609 473 c 0
 615 456 618 445 618 428 c 0
EndSplineSet
Validated: 1
Layer: 2
SplineSet
194 100 m 0,0,1
 194 88 194 88 212.5 80 c 128,-1,2
 231 72 231 72 246 72 c 0,3,4
 268 72 268 72 303.5 83 c 128,-1,5
 339 94 339 94 363.5 104.5 c 2,6,-1
 388 115 l 1,7,8
 391 128 391 128 431.5 157 c 128,-1,9
 472 186 472 186 472 192 c 0,10,11
 472 197 472 197 466.5 204 c 128,-1,12
 461 211 461 211 437.5 219 c 128,-1,13
 414 227 414 227 375 227 c 0,14,15
 290 227 290 227 242 184 c 128,-1,16
 194 141 194 141 194 100 c 0,0,1
618 428 m 0,17,18
 618 401 618 401 590 260 c 128,-1,19
 562 119 562 119 555 51 c 1,20,21
 548 28 548 28 529 11.5 c 128,-1,22
 510 -5 510 -5 500 -5 c 0,23,24
 469 -5 469 -5 469 56 c 0,25,26
 469 63 469 63 472 105 c 1,27,28
 432 68 432 68 362 33.5 c 128,-1,29
 292 -1 292 -1 249 -1 c 0,30,31
 221 -1 221 -1 183.5 8 c 128,-1,32
 146 17 146 17 131 30 c 0,33,34
 116 44 116 44 116 82 c 0,35,36
 116 154 116 154 153 194 c 128,-1,37
 190 234 190 234 266 268 c 0,38,39
 346 305 346 305 411 305 c 0,40,41
 439 305 439 305 456 298 c 128,-1,42
 473 291 473 291 481.5 281.5 c 128,-1,43
 490 272 490 272 491 272 c 0,44,45
 506 269 506 269 516 259 c 1,46,47
 535 347 535 347 535 401 c 0,48,49
 535 472 535 472 496 472 c 0,50,51
 448 472 448 472 388.5 453 c 128,-1,52
 329 434 329 434 280.5 414.5 c 128,-1,53
 232 395 232 395 212 395 c 0,54,55
 191 395 191 395 191 413 c 0,56,57
 191 414 191 414 191.5 415.5 c 128,-1,58
 192 417 192 417 192 418 c 0,59,60
 196 435 196 435 205 447.5 c 128,-1,61
 214 460 214 460 235.5 470.5 c 128,-1,62
 257 481 257 481 272.5 487 c 128,-1,63
 288 493 288 493 329 506 c 128,-1,64
 370 519 370 519 394 528 c 0,65,66
 454 549 454 549 504 549 c 0,67,68
 585 549 585 549 609 473 c 0,69,70
 618 448 618 448 618 428 c 0,17,18
EndSplineSet
EndChar

StartChar: b
Encoding: 98 98 77
Width: 707
Flags: W
HStem: -23 81<270.332 364.145> 452 90<522.041 637.921>
VStem: 155 109<39.5 190.58> 221 120<630.335 733.862> 645 85<313.086 446.01>
LayerCount: 3
Fore
SplineSet
624 542 m 0xd8
 661 542 730 511 730 416 c 0
 730 312 651 177 541 93 c 0
 475 42 335 -23 278 -23 c 0
 208 -23 155 27 155 52 c 0xe8
 155 95 215 374 221 511 c 0
 225 591 238 720 250 776 c 0
 255 798 262 832 303 851 c 0
 309 854 314 855 318 855 c 0
 335 855 341 841 341 814 c 0
 341 761 318 662 311 536 c 0
 308 490 305 429 301 398 c 2
 297 370 l 1
 372 428 l 2
 449 487 491 513 540 526 c 0
 590 539 608 542 624 542 c 0xd8
560 207 m 0
 606 254 645 339 645 398 c 0
 645 427 635 452 602 452 c 0
 589 452 574 451 551 447 c 0
 531 444 444 393 361 319 c 0
 310 274 264 176 264 110 c 0
 264 67 285 58 295 58 c 0
 317 58 437 78 560 207 c 0
EndSplineSet
Validated: 1
Layer: 2
SplineSet
624 542 m 0,0,1
 660 542 660 542 695 511 c 128,-1,2
 730 480 730 480 730 416 c 0,3,4
 730 338 730 338 677 247 c 128,-1,5
 624 156 624 156 541 93 c 0,6,7
 490 53 490 53 405 15 c 128,-1,8
 320 -23 320 -23 278 -23 c 0,9,10
 230 -23 230 -23 192.5 3.5 c 128,-1,11
 155 30 155 30 155 52 c 0,12,13
 155 66 155 66 186.5 249.5 c 128,-1,14
 218 433 218 433 221 511 c 0,15,16
 229 680 229 680 250 776 c 0,17,18
 254 793 254 793 257 802.5 c 128,-1,19
 260 812 260 812 272 827 c 128,-1,20
 284 842 284 842 303 851 c 0,21,22
 311 855 311 855 318 855 c 0,23,24
 341 855 341 855 341 814 c 0,25,26
 341 790 341 790 328 697 c 128,-1,27
 315 604 315 604 311 536 c 0,28,29
 303 414 303 414 301 398 c 2,30,-1
 297 370 l 1,31,-1
 372 428 l 2,32,33
 479 510 479 510 540 526 c 0,34,35
 602 542 602 542 624 542 c 0,0,1
560 207 m 0,36,37
 595 243 595 243 620 298.5 c 128,-1,38
 645 354 645 354 645 398 c 0,39,40
 645 452 645 452 602 452 c 0,41,42
 580 452 580 452 551 447 c 0,43,44
 533 444 533 444 475.5 407 c 128,-1,45
 418 370 418 370 361 319 c 0,46,47
 323 285 323 285 293.5 222 c 128,-1,48
 264 159 264 159 264 110 c 0,49,50
 264 82 264 82 274 70 c 128,-1,51
 284 58 284 58 295 58 c 0,52,53
 313 58 313 58 346 67 c 128,-1,54
 379 76 379 76 442 112.5 c 128,-1,55
 505 149 505 149 560 207 c 0,36,37
EndSplineSet
EndChar

StartChar: c
Encoding: 99 99 78
Width: 621
Flags: W
HStem: -4 84<229.363 371.217> 464 81<345.159 527.729>
VStem: 94 83<131.419 281.611> 562 79<350.466 428.434>
LayerCount: 3
Fore
SplineSet
641 404 m 0
 641 361 611 337 591 337 c 1
 591 337 562 337 562 371 c 1
 562 371 561 398 541 428 c 0
 529 445 522 464 413 464 c 0
 360 464 342 450 294 403 c 0
 227 337 177 275 177 190 c 0
 177 148 196 134 213 117 c 0
 243 87 252 80 290 80 c 0
 343 80 417 116 507 194 c 0
 560 240 594 258 612 258 c 0
 627 258 630 247 630 237 c 0
 630 190 493 77 456 55 c 0
 389 16 333 -4 283 -4 c 0
 246 -4 213 5 177 23 c 0
 119 51 94 91 94 163 c 0
 94 202 106 274 108 283 c 0
 132 395 308 521 384 538 c 0
 405 543 433 545 459 545 c 0
 570 545 641 468 641 404 c 0
EndSplineSet
Validated: 1
Layer: 2
SplineSet
641 404 m 0,0,1
 641 374 641 374 624.5 355.5 c 128,-1,2
 608 337 608 337 591 337 c 0,3,4
 588 337 588 337 583 338 c 128,-1,5
 578 339 578 339 570 347.5 c 128,-1,6
 562 356 562 356 562 371 c 0,7,8
 561 398 561 398 541 428 c 0,9,10
 532 441 532 441 526.5 446 c 128,-1,11
 521 451 521 451 492.5 457.5 c 128,-1,12
 464 464 464 464 413 464 c 0,13,14
 375 464 375 464 353.5 452.5 c 128,-1,15
 332 441 332 441 294 403 c 0,16,17
 236 346 236 346 206.5 297.5 c 128,-1,18
 177 249 177 249 177 190 c 0,19,20
 177 182 177 182 178 175 c 128,-1,21
 179 168 179 168 180 163 c 128,-1,22
 181 158 181 158 184 152.5 c 128,-1,23
 187 147 187 147 188.5 144 c 128,-1,24
 190 141 190 141 194 136 c 128,-1,25
 198 131 198 131 200 129.5 c 128,-1,26
 202 128 202 128 207 123 c 128,-1,27
 212 118 212 118 213 117 c 0,28,29
 237 93 237 93 250 86.5 c 128,-1,30
 263 80 263 80 290 80 c 0,31,32
 375 80 375 80 507 194 c 0,33,34
 581 258 581 258 612 258 c 0,35,36
 630 258 630 258 630 237 c 0,37,38
 630 206 630 206 563 142.5 c 128,-1,39
 496 79 496 79 456 55 c 0,40,41
 355 -4 355 -4 283 -4 c 0,42,43
 231 -4 231 -4 177 23 c 0,44,45
 133 44 133 44 113.5 76.5 c 128,-1,46
 94 109 94 109 94 163 c 0,47,48
 94 220 94 220 108 283 c 0,49,50
 125 360 125 360 221.5 441.5 c 128,-1,51
 318 523 318 523 384 538 c 0,52,53
 413 545 413 545 459 545 c 0,54,55
 538 545 538 545 589.5 500.5 c 128,-1,56
 641 456 641 456 641 404 c 0,0,1
EndSplineSet
EndChar

StartChar: d
Encoding: 100 100 79
Width: 767
Flags: W
HStem: -10 93<245.992 400.828> 446 95<406.302 498.767>
VStem: 106 102<115.663 252.018> 593 101<-40.8827 144.396>
DStem2: 666 410 742 298 0.223404 0.974726<0 573.078>
LayerCount: 3
Fore
SplineSet
519 412 m 0
 500 425 463 446 447 446 c 0
 431 446 274 342 242 297 c 0
 226 274 208 187 208 151 c 0
 208 143 209 137 210 133 c 0
 217 117 270 83 321 83 c 0
 368 83 423 108 514 173 c 0
 616 245 616 261 616 267 c 0
 616 303 570 377 519 412 c 0
292 -10 m 0
 236 -10 106 18 106 145 c 0
 106 163 109 182 113 203 c 0
 158 416 387 541 475 541 c 0
 515 541 620 482 648 436 c 0
 655 424 661 415 666 410 c 1
 695 496 773 901 800 944 c 0
 809 959 828 983 859 983 c 2
 899 983 l 1
 742 298 l 1
 687 37 708 67 694 3 c 0
 690 -14 672 -62 632 -62 c 0
 601 -62 593 -35 593 0 c 0
 593 46 607 106 607 141 c 2
 607 146 l 1
 585 130 449 -10 292 -10 c 0
EndSplineSet
Validated: 1
Layer: 2
SplineSet
519 412 m 0,0,1
 469 446 469 446 447 446 c 0,2,3
 433 446 433 446 348.5 387 c 128,-1,4
 264 328 264 328 242 297 c 0,5,6
 231 280 231 280 219.5 230 c 128,-1,7
 208 180 208 180 208 151 c 0,8,9
 208 141 208 141 210 133 c 0,10,11
 216 119 216 119 251 101 c 128,-1,12
 286 83 286 83 321 83 c 0,13,14
 388 83 388 83 514 173 c 0,15,16
 616 245 616 245 616 267 c 0,17,18
 616 295 616 295 586 340.5 c 128,-1,19
 556 386 556 386 519 412 c 0,0,1
292 -10 m 0,20,21
 267 -10 267 -10 238.5 -3 c 128,-1,22
 210 4 210 4 178.5 19.5 c 128,-1,23
 147 35 147 35 126.5 67.5 c 128,-1,24
 106 100 106 100 106 145 c 0,25,26
 106 166 106 166 113 203 c 0,27,28
 129 278 129 278 176 345 c 128,-1,29
 223 412 223 412 278.5 453 c 128,-1,30
 334 494 334 494 387 517.5 c 128,-1,31
 440 541 440 541 475 541 c 0,32,33
 506 541 506 541 567 505 c 128,-1,34
 628 469 628 469 648 436 c 0,35,36
 659 417 659 417 666 410 c 1,37,38
 678 444 678 444 731.5 682 c 128,-1,39
 785 920 785 920 800 944 c 0,40,41
 823 983 823 983 859 983 c 2,42,-1
 899 983 l 1,43,-1
 742 298 l 2,44,45
 709 143 709 143 702.5 78 c 128,-1,46
 696 13 696 13 694 3 c 0,47,48
 691 -9 691 -9 685 -22 c 128,-1,49
 679 -35 679 -35 664.5 -48.5 c 128,-1,50
 650 -62 650 -62 632 -62 c 0,51,52
 593 -62 593 -62 593 0 c 0,53,54
 593 24 593 24 600 74.5 c 128,-1,55
 607 125 607 125 607 141 c 2,56,-1
 607 146 l 2,57,58
 606 145 606 145 582 124 c 128,-1,59
 558 103 558 103 530.5 83.5 c 128,-1,60
 503 64 503 64 465.5 41 c 128,-1,61
 428 18 428 18 382 4 c 128,-1,62
 336 -10 336 -10 292 -10 c 0,20,21
EndSplineSet
EndChar

StartChar: e
Encoding: 101 101 80
Width: 669
Flags: W
HStem: -10 81<261.002 416.848> 269 69<221.189 442.068> 476 73<345.45 511.449>
VStem: 102 83<146.42 265.04> 563 81<380.997 426.919>
LayerCount: 3
Fore
SplineSet
563 400 m 0
 563 409 540 428 528 440 c 0
 494 471 485 476 451 476 c 0
 386 476 362 470 320 436 c 0
 268 394 226 359 221 339 c 1
 225 338 231 338 238 338 c 0
 284 338 398 350 514 372 c 0
 553 379 563 394 563 400 c 0
658 241 m 0
 667 241 673 235 673 226 c 0
 673 198 610 126 556 86 c 0
 472 25 382 -10 305 -10 c 0
 203 -10 102 61 102 204 c 0
 102 241 109 301 137 352 c 0
 178 425 317 549 413 549 c 0
 427 549 442 548 465 546 c 0
 537 541 552 535 585 510 c 0
 616 486 644 437 644 398 c 0
 644 326 562 308 487 294 c 0
 430 283 338 272 282 269 c 2
 194 265 l 1
 189 239 l 2
 187 228 185 218 185 209 c 0
 185 174 201 146 232 115 c 0
 262 84 296 71 331 71 c 0
 461 71 610 241 658 241 c 0
EndSplineSet
Validated: 1
Layer: 2
SplineSet
563 400 m 128,-1,1
 563 404 563 404 558 410 c 128,-1,2
 553 416 553 416 540.5 428 c 2,3,-1
 528 440 l 2,4,5
 502 464 502 464 489 470 c 128,-1,6
 476 476 476 476 451 476 c 0,7,8
 401 476 401 476 376 468.5 c 128,-1,9
 351 461 351 461 320 436 c 0,10,11
 226 360 226 360 221 339 c 1,12,13
 225 338 225 338 238 338 c 0,14,15
 335 338 335 338 514 372 c 0,16,17
 532 375 532 375 544 381 c 128,-1,18
 556 387 556 387 559.5 391.5 c 128,-1,0
 563 396 563 396 563 400 c 128,-1,1
658 241 m 128,-1,20
 673 241 673 241 673 226 c 0,21,22
 673 206 673 206 635.5 161.5 c 128,-1,23
 598 117 598 117 556 86 c 0,24,25
 424 -10 424 -10 305 -10 c 0,26,27
 222 -10 222 -10 162 46.5 c 128,-1,28
 102 103 102 103 102 204 c 0,29,30
 102 288 102 288 137 352 c 0,31,32
 172 414 172 414 259 481.5 c 128,-1,33
 346 549 346 549 413 549 c 0,34,35
 430 549 430 549 465 546 c 0,36,37
 518 542 518 542 539 535.5 c 128,-1,38
 560 529 560 529 585 510 c 0,39,40
 609 491 609 491 626.5 459 c 128,-1,41
 644 427 644 427 644 398 c 0,42,43
 644 377 644 377 634 360.5 c 128,-1,44
 624 344 624 344 611 334 c 128,-1,45
 598 324 598 324 574 315.5 c 128,-1,46
 550 307 550 307 532.5 303 c 128,-1,47
 515 299 515 299 487 294 c 0,48,49
 386 275 386 275 282 269 c 2,50,-1
 194 265 l 1,51,-1
 189 239 l 2,52,53
 185 217 185 217 185 209 c 0,54,55
 185 162 185 162 232 115 c 0,56,57
 275 71 275 71 331 71 c 0,58,59
 375 71 375 71 430 97.5 c 128,-1,60
 485 124 485 124 525.5 156 c 128,-1,61
 566 188 566 188 604.5 214.5 c 128,-1,19
 643 241 643 241 658 241 c 128,-1,20
EndSplineSet
EndChar

StartChar: f
Encoding: 102 102 81
Width: 702
Flags: W
HStem: 409 91<191.817 297> 463 81<501.667 609.142> 928 71<577.68 715.042>
VStem: 289 88<32.4599 237.542> 750 82<836.536 899.016>
LayerCount: 3
Fore
SplineSet
330 -3 m 0x78
 305 -3 289 10 289 70 c 0
 289 178 344 376 346 428 c 1
 309 426 253 409 212 409 c 0
 172 409 161 426 161 441 c 0
 161 477 219 491 263 500 c 2xb8
 365 521 l 1
 384 598 l 2
 395 646 421 738 442 804 c 0
 480 921 486 930 528 963 c 1
 568 992 583 999 623 999 c 0
 644 999 669 997 706 994 c 0
 770 988 784 979 809 948 c 0
 824 929 832 910 832 891 c 0
 832 848 785 801 761 801 c 0
 752 801 745 808 745 825 c 0
 745 841 750 853 750 865 c 0
 750 887 736 901 682 919 c 0
 661 925 644 928 631 928 c 0
 606 928 584 919 559 885 c 0
 533 851 462 582 462 542 c 0
 462 530 467 530 476 530 c 0
 501 530 559 544 602 544 c 0
 642 544 651 531 651 520 c 0
 651 497 613 482 532 463 c 2
 441 442 l 1
 408 300 l 2
 404 282 377 195 377 125 c 0
 377 91 385 81 385 61 c 0
 385 7 348 -3 330 -3 c 0x78
EndSplineSet
Validated: 1
Layer: 2
SplineSet
330 -3 m 0,0,1
 309 -3 309 -3 299 12.5 c 128,-1,2
 289 28 289 28 289 70 c 0,3,4
 289 132 289 132 317 272 c 128,-1,5
 345 412 345 412 346 428 c 1,6,7
 330 427 330 427 282 418 c 128,-1,8
 234 409 234 409 212 409 c 0,9,10
 161 409 161 409 161 441 c 0,11,12
 161 479 161 479 263 500 c 2,13,-1
 365 521 l 1,14,-1
 384 598 l 2,15,16
 403 683 403 683 442 804 c 0,17,18
 470 891 470 891 483 914.5 c 128,-1,19
 496 938 496 938 528 963 c 0,20,21
 559 985 559 985 576.5 992 c 128,-1,22
 594 999 594 999 623 999 c 0,23,24
 644 999 644 999 706 994 c 0,25,26
 752 990 752 990 770.5 981 c 128,-1,27
 789 972 789 972 809 948 c 0,28,29
 832 919 832 919 832 891 c 0,30,31
 832 861 832 861 806.5 831 c 128,-1,32
 781 801 781 801 761 801 c 0,33,34
 745 801 745 801 745 825 c 0,35,36
 745 834 745 834 747.5 847 c 128,-1,37
 750 860 750 860 750 865 c 0,38,39
 750 882 750 882 735.5 894 c 128,-1,40
 721 906 721 906 682 919 c 0,41,42
 650.5 928 650.5 928 631 928 c 0,43,44
 591 928 591 928 559 885 c 0,45,46
 541 861 541 861 501.5 718 c 128,-1,47
 462 575 462 575 462 542 c 0,48,49
 462 534 462 534 465 532 c 128,-1,50
 468 530 468 530 476 530 c 0,51,52
 486 530 486 530 532 537 c 128,-1,53
 578 544 578 544 602 544 c 0,54,55
 651 544 651 544 651 520 c 0,56,57
 651 503 651 503 623 490.5 c 128,-1,58
 595 478 595 478 532 463 c 2,59,-1
 441 442 l 1,60,-1
 408 300 l 2,61,62
 408 299 408 299 402 275.5 c 128,-1,63
 396 252 396 252 391 231.5 c 128,-1,64
 386 211 386 211 381.5 180 c 128,-1,65
 377 149 377 149 377 125 c 0,66,67
 377 106 377 106 381 87.5 c 128,-1,68
 385 69 385 69 385 61 c 0,69,70
 385 25 385 25 367.5 11 c 128,-1,71
 350 -3 350 -3 330 -3 c 0,0,1
EndSplineSet
EndChar

StartChar: g
Encoding: 103 103 82
Width: 756
Flags: W
HStem: -248 85<456.803 556.108> 49 62<235.216 365.766> 518 78<487.652 673.715>
VStem: 119 91<136.717 290.202> 210 116<-99.9546 -48.2394> 674 105<440.129 513.402>
DStem2: 588 134 672 17 0.139053 0.990285<-260.277 73.5423>
LayerCount: 3
Fore
SplineSet
214 252 m 0xf4
 211 239 210 226 210 213 c 0
 210 160 233 111 281 111 c 0
 359 111 484 187 570 298 c 0
 617 360 674 467 674 509 c 1
 663 515 641 518 607 518 c 0
 579 518 549 515 525 509 c 0
 394 475 228 320 214 252 c 0xf4
360 3 m 0
 360 -24 326 -44 326 -70 c 0xec
 326 -98 381 -123 407 -123 c 0
 448 -123 468 -163 515 -163 c 0
 544 -163 555 -151 559 -133 c 0
 596 40 580 67 588 134 c 2
 588 134 595 181 597 207 c 1
 550 158 437 86 377 66 c 0
 346 56 298 49 266 49 c 0
 220 49 200 54 162 92 c 0
 129 125 119 148 119 192 c 0xf4
 119 206 119 228 126 262 c 0
 139 324 244 440 268 463 c 0
 310 504 426 562 491 580 c 0
 528 591 570 596 611 596 c 0
 698 596 779 573 779 504 c 0
 779 443 731 400 717 337 c 0
 708 296 700 215 672 17 c 2
 643 -190 l 1
 596 -222 l 2
 569 -241 551 -248 525 -248 c 0
 405 -248 210 -154 210 -96 c 0xec
 210 -57 291 24 327 24 c 0
 342 24 360 21 360 3 c 0
EndSplineSet
Validated: 1
Layer: 2
SplineSet
214 252 m 0,0,1
 210 235 210 235 210 213 c 0,2,3
 210 170 210 170 228.5 140.5 c 128,-1,4
 247 111 247 111 281 111 c 0,5,6
 341 111 341 111 424 163.5 c 128,-1,7
 507 216 507 216 570 298 c 0,8,9
 607 347 607 347 640.5 413 c 128,-1,10
 674 479 674 479 674 509 c 1,11,12
 658 518 658 518 607 518 c 0,13,14
 561 518 561 518 525 509 c 0,15,16
 463 493 463 493 391 443.5 c 128,-1,17
 319 394 319 394 270 340 c 128,-1,18
 221 286 221 286 214 252 c 0,0,1
360 3 m 0,19,20
 360 -11 360 -11 343 -34 c 128,-1,21
 326 -57 326 -57 326 -70 c 0,22,23
 326 -89 326 -89 355.5 -106 c 128,-1,24
 385 -123 385 -123 407 -123 c 0,25,26
 427 -123 427 -123 459 -143 c 128,-1,27
 491 -163 491 -163 515 -163 c 0,28,29
 552 -163 552 -163 559 -133 c 0,30,31
 575 -56 575 -56 580.5 -6.5 c 128,-1,32
 586 43 586 43 586 78 c 128,-1,33
 586 113 586 113 588 134 c 0,34,35
 595 181 595 181 597 207 c 1,36,37
 562 170 562 170 492 125.5 c 128,-1,38
 422 81 422 81 377 66 c 0,39,40
 324 49 324 49 266 49 c 0,41,42
 230 49 230 49 209.5 57 c 128,-1,43
 189 65 189 65 162 92 c 0,44,45
 137 117 137 117 128 138 c 128,-1,46
 119 159 119 159 119 192 c 0,47,48
 119 228 119 228 126 262 c 0,49,50
 134 302 134 302 185 367 c 128,-1,51
 236 432 236 432 268 463 c 0,52,53
 298 493 298 493 369 529.5 c 128,-1,54
 440 566 440 566 491 580 c 0,55,56
 545 596 545 596 611 596 c 0,57,58
 684 596 684 596 731.5 574 c 128,-1,59
 779 552 779 552 779 504 c 0,60,61
 779 470 779 470 751 416.5 c 128,-1,62
 723 363 723 363 717 337 c 0,63,64
 713 319 713 319 708.5 285.5 c 128,-1,65
 704 252 704 252 693.5 173 c 128,-1,66
 683 94 683 94 672 17 c 2,67,-1
 643 -190 l 1,68,-1
 596 -222 l 2,69,70
 559 -248 559 -248 525 -248 c 0,71,72
 467 -248 467 -248 392 -222.5 c 128,-1,73
 317 -197 317 -197 263.5 -160.5 c 128,-1,74
 210 -124 210 -124 210 -96 c 0,75,76
 210 -67 210 -67 255 -21.5 c 128,-1,77
 300 24 300 24 327 24 c 0,78,79
 360 24 360 24 360 3 c 0,19,20
EndSplineSet
EndChar

StartChar: h
Encoding: 104 104 83
Width: 590
Flags: W
HStem: 517 20G<494 544>
VStem: 515 92<306.118 474.923>
LayerCount: 3
Fore
SplineSet
138 -23 m 0
 133 -23 105 -18 105 24 c 0
 105 42 109 66 115 95 c 0
 161 309 194 754 234 800 c 1
 250 820 264 828 275 828 c 0
 293 828 301 818 301 784 c 0
 301 732 282 625 252 413 c 2
 242 344 l 1
 294 410 471 537 517 537 c 0
 571 537 607 475 607 441 c 0
 607 413 585 298 566 209 c 1
 562 188 l 1
 550 133 517 -7 481 -7 c 0
 467 -7 461 3 461 26 c 0
 461 85 515 309 515 423 c 0
 515 432 515 439 514 445 c 2
 509 476 l 1
 453 436 l 2
 371 378 291 296 263 242 c 0
 225 169 190 -23 138 -23 c 0
EndSplineSet
Validated: 1
Layer: 2
SplineSet
138 -23 m 0,0,1
 133 -23 133 -23 127 -20.5 c 128,-1,2
 121 -18 121 -18 113 -6.5 c 128,-1,3
 105 5 105 5 105 24 c 0,4,5
 105 47 105 47 115 95 c 0,6,7
 133 179 133 179 155.5 353.5 c 128,-1,8
 178 528 178 528 197.5 654 c 128,-1,9
 217 780 217 780 234 800 c 0,10,11
 256 828 256 828 275 828 c 0,12,13
 289 828 289 828 295 818.5 c 128,-1,14
 301 809 301 809 301 784 c 0,15,16
 301 769 301 769 299 747.5 c 128,-1,17
 297 726 297 726 292 691 c 128,-1,18
 287 656 287 656 282 622 c 128,-1,19
 277 588 277 588 268 526.5 c 128,-1,20
 259 465 259 465 252 413 c 2,21,-1
 242 344 l 1,22,23
 282 394 282 394 382.5 465.5 c 128,-1,24
 483 537 483 537 517 537 c 0,25,26
 554 537 554 537 580.5 504 c 128,-1,27
 607 471 607 471 607 441 c 0,28,29
 607 401 607 401 566 209 c 1,30,-1
 562 188 l 1,31,32
 519 -7 519 -7 481 -7 c 0,33,34
 461 -7 461 -7 461 26 c 0,35,36
 461 49 461 49 488 204 c 128,-1,37
 515 359 515 359 515 423 c 0,38,39
 515 439 515 439 514 445 c 2,40,-1
 509 476 l 1,41,-1
 453 436 l 2,42,43
 392 393 392 393 338 338 c 128,-1,44
 284 283 284 283 263 242 c 0,45,46
 250 217 250 217 227.5 145 c 128,-1,47
 205 73 205 73 183 25 c 128,-1,48
 161 -23 161 -23 138 -23 c 0,0,1
EndSplineSet
EndChar

StartChar: i
Encoding: 105 105 84
Width: 303
Flags: W
HStem: 737 110<291.875 362.126>
VStem: 277 105<756.998 831.322>
LayerCount: 3
Fore
SplineSet
276 582 m 0
 302 582 303 562 303 539 c 0
 303 432 237 53 215 24 c 1
 202 15 190 8 169 8 c 0
 136 8 130 26 130 30 c 0
 130 63 185 413 203 495 c 0
 213 542 222 559 240 570 c 0
 255 579 267 582 276 582 c 0
277 789 m 0
 277 827 317 847 333 847 c 0
 344 847 382 834 382 806 c 0
 382 785 359 737 324 737 c 0
 301 737 277 757 277 789 c 0
EndSplineSet
Validated: 1
Layer: 2
SplineSet
276 582 m 0,0,1
 294 582 294 582 298.5 571.5 c 128,-1,2
 303 561 303 561 303 539 c 0,3,4
 303 460 303 460 267.5 253 c 128,-1,5
 232 46 232 46 215 24 c 1,6,7
 192 8 192 8 169 8 c 0,8,9
 154 8 154 8 144.5 13 c 128,-1,10
 135 18 135 18 132.5 22.5 c 128,-1,11
 130 27 130 27 130 30 c 0,12,13
 130 55 130 55 159.5 244 c 128,-1,14
 189 433 189 433 203 495 c 0,15,16
 216 555 216 555 240 570 c 0,17,18
 260 582 260 582 276 582 c 0,0,1
277 789 m 0,19,20
 277 814 277 814 297 830.5 c 128,-1,21
 317 847 317 847 333 847 c 0,22,23
 346 847 346 847 364 835.5 c 128,-1,24
 382 824 382 824 382 806 c 0,25,26
 382 787 382 787 365 762 c 128,-1,27
 348 737 348 737 324 737 c 0,28,29
 306 737 306 737 291.5 751.5 c 128,-1,30
 277 766 277 766 277 789 c 0,19,20
EndSplineSet
EndChar

StartChar: j
Encoding: 106 106 85
Width: 518
Flags: W
HStem: -243 88<129.803 286.804> 544 20G<410 445> 722 104<407.454 483.836>
VStem: 37 97<-140.972 -69.9265> 371 94<242.944 554.504> 389 109<734.96 807.163>
LayerCount: 3
Fore
SplineSet
271 -152 m 1xf8
 307 -152 371 163 371 249 c 0
 371 260 366 293 366 360 c 0
 366 431 372 492 379 524 c 0
 385 551 391 564 429 564 c 0
 461 564 465 556 465 499 c 0
 465 213 446 133 414 4 c 0
 361 -210 338 -243 185 -243 c 0
 28 -243 69 -196 53 -190 c 0
 44 -187 37 -182 37 -163 c 0
 37 -120 67 -15 111 -15 c 0
 129 -15 134 -40 134 -67 c 0
 134 -102 126 -141 126 -141 c 1
 135 -148 193 -155 235 -155 c 0
 250 -155 263 -154 271 -152 c 1xf8
389 768 m 0xf4
 389 803 432 826 458 826 c 0
 467 826 498 817 498 785 c 0
 498 755 477 722 442 722 c 0
 415 722 389 743 389 768 c 0xf4
EndSplineSet
Validated: 1
Layer: 2
SplineSet
271 -152 m 1,0,1
 296 -152 296 -152 333.5 12 c 128,-1,2
 371 176 371 176 371 249 c 0,3,4
 371 252 371 252 369.5 266 c 128,-1,5
 368 280 368 280 367 305.5 c 128,-1,6
 366 331 366 331 366 360 c 0,7,8
 366 465 366 465 379 524 c 0,9,10
 384 547 384 547 393 555.5 c 128,-1,11
 402 564 402 564 429 564 c 0,12,13
 453 564 453 564 459 553 c 128,-1,14
 465 542 465 542 465 499 c 0,15,16
 465 362 465 362 458 269 c 128,-1,17
 451 176 451 176 442.5 129.5 c 128,-1,18
 434 83 434 83 414 4 c 0,19,20
 392 -84 392 -84 377.5 -126.5 c 128,-1,21
 363 -169 363 -169 337 -198.5 c 128,-1,22
 311 -228 311 -228 278.5 -235.5 c 128,-1,23
 246 -243 246 -243 185 -243 c 0,24,25
 131 -243 131 -243 101 -235.5 c 128,-1,26
 71 -228 71 -228 66 -219 c 128,-1,27
 61 -210 61 -210 59 -200.5 c 128,-1,28
 57 -191 57 -191 53 -190 c 0,29,30
 37 -185 37 -185 37 -163 c 0,31,32
 37 -123 37 -123 59 -69 c 128,-1,33
 81 -15 81 -15 111 -15 c 0,34,35
 134 -15 134 -15 134 -67 c 0,36,37
 134 -83 134 -83 132 -101.5 c 128,-1,38
 130 -120 130 -120 128 -130.5 c 2,39,-1
 126 -141 l 1,40,41
 133 -146 133 -146 168 -150.5 c 128,-1,42
 203 -155 203 -155 235 -155 c 0,43,44
 259 -155 259 -155 271 -152 c 1,0,1
389 768 m 0,45,46
 389 792 389 792 412.5 809 c 128,-1,47
 436 826 436 826 458 826 c 0,48,49
 469 826 469 826 483.5 816 c 128,-1,50
 498 806 498 806 498 785 c 0,51,52
 498 761 498 761 482.5 741.5 c 128,-1,53
 467 722 467 722 442 722 c 0,54,55
 421 722 421 722 405 736 c 128,-1,56
 389 750 389 750 389 768 c 0,45,46
EndSplineSet
EndChar

StartChar: k
Encoding: 107 107 86
Width: 571
Flags: W
HStem: 534 20G<535.5 556.5>
VStem: 111 98<2.43677 148.403> 170 83<354.988 587.196>
LayerCount: 3
Fore
SplineSet
524 66 m 0xa0
 524 56 514 28 483 28 c 1
 440 31 412 75 395 75 c 0
 371 75 371 91 371 91 c 2
 362 98 323 113 251 137 c 2
 216 149 l 1
 209 89 l 2
 205 52 204 -14 153 -14 c 0
 123 -14 111 0 111 42 c 0xc0
 111 119 168 373 170 461 c 0xa0
 171 528 193 667 209 741 c 0xc0
 213 762 223 793 256 793 c 0
 270 793 290 787 290 749 c 0
 290 686 257 466 254 383 c 2
 253 351 l 1
 381 446 l 2
 461 505 523 554 548 554 c 1
 565 551 577 536 577 520 c 0
 577 489 551 492 503 441 c 0
 471 406 399 353 291 289 c 0
 260 271 246 258 243 250 c 0
 243 248 243 243 253 238 c 2
 363 190 l 2
 373 185 524 117 524 66 c 0xa0
EndSplineSet
Validated: 1
Layer: 2
SplineSet
524 66 m 0,0,1
 524 55 524 55 513.5 41.5 c 128,-1,2
 503 28 503 28 483 28 c 0,3,4
 458 30 458 30 429.5 52.5 c 128,-1,5
 401 75 401 75 395 75 c 0,6,7
 384 75 384 75 378 79 c 128,-1,8
 372 83 372 83 371.5 87 c 2,9,-1
 371 91 l 1,10,11
 357 102 357 102 251 137 c 2,12,-1
 216 149 l 1,13,-1
 209 89 l 2,14,15
 209 87 209 87 207.5 74.5 c 128,-1,16
 206 62 206 62 205.5 57 c 128,-1,17
 205 52 205 52 203 40.5 c 128,-1,18
 201 29 201 29 198.5 23.5 c 128,-1,19
 196 18 196 18 192 9.5 c 128,-1,20
 188 1 188 1 183 -3.5 c 128,-1,21
 178 -8 178 -8 170 -11 c 128,-1,22
 162 -14 162 -14 153 -14 c 0,23,24
 130 -14 130 -14 120.5 -1.5 c 128,-1,25
 111 11 111 11 111 42 c 0,26,27
 111 81 111 81 140 249 c 128,-1,28
 169 417 169 417 170 461 c 0,29,30
 172 568 172 568 209 741 c 0,31,32
 219 793 219 793 256 793 c 0,33,34
 290 793 290 793 290 749 c 0,35,36
 290 717 290 717 272.5 570.5 c 128,-1,37
 255 424 255 424 254 383 c 2,38,-1
 253 351 l 1,39,-1
 381 446 l 2,40,41
 392 454 392 454 413.5 470 c 128,-1,42
 435 486 435 486 445 493.5 c 128,-1,43
 455 501 455 501 472 513 c 128,-1,44
 489 525 489 525 497.5 530.5 c 128,-1,45
 506 536 506 536 517 542.5 c 128,-1,46
 528 549 528 549 535.5 551.5 c 128,-1,47
 543 554 543 554 548 554 c 0,48,49
 561 552 561 552 569 542 c 128,-1,50
 577 532 577 532 577 520 c 0,51,52
 577 506 577 506 570 498.5 c 128,-1,53
 563 491 563 491 542.5 476 c 128,-1,54
 522 461 522 461 503 441 c 0,55,56
 450 383 450 383 291 289 c 0,57,58
 248 264 248 264 243 250 c 0,59,60
 243 243 243 243 253 238 c 2,61,-1
 363 190 l 1,62,63
 524 110 524 110 524 66 c 0,0,1
EndSplineSet
EndChar

StartChar: l
Encoding: 108 108 87
Width: 325
Flags: W
HStem: 959 20G<336 355.5>
VStem: 161 213
LayerCount: 3
Fore
SplineSet
269 807 m 0
 302 960 323 979 349 979 c 0
 362 979 374 970 374 958 c 0
 374 905 243 27 242 23 c 0
 238 2 225 -12 196 -12 c 0
 172 -12 161 -5 161 36 c 0
 161 104 192 267 240 644 c 0
 244 672 255 740 269 807 c 0
EndSplineSet
Validated: 1
Layer: 2
SplineSet
269 807 m 0,0,1
 285 880 285 880 299 919 c 128,-1,2
 313 958 313 958 323.5 968.5 c 128,-1,3
 334 979 334 979 349 979 c 0,4,5
 359 979 359 979 366.5 973 c 128,-1,6
 374 967 374 967 374 958 c 0,7,8
 374 934 374 934 341 701 c 128,-1,9
 308 468 308 468 275.5 247.5 c 128,-1,10
 243 27 243 27 242 23 c 0,11,12
 235 -12 235 -12 196 -12 c 0,13,14
 177 -12 177 -12 169 -2.5 c 128,-1,15
 161 7 161 7 161 36 c 0,16,17
 161 66 161 66 169.5 130 c 128,-1,18
 178 194 178 194 199.5 344.5 c 128,-1,19
 221 495 221 495 240 644 c 0,20,21
 251 721 251 721 269 807 c 0,0,1
EndSplineSet
EndChar

StartChar: m
Encoding: 109 109 88
Width: 922
Flags: W
HStem: 465 85<439.993 499.5> 487 63<775.124 849> 541 20G<265 301>
VStem: 476 70<-11.2441 94.8457> 515 71<323 420.256> 747 110<5 53> 818 77<302.184 486.33>
LayerCount: 3
Fore
SplineSet
476 9 m 0x52
 476 56 515 220 515 321 c 0
 515 372 505 402 486 435 c 0
 482 442 469 465 463 465 c 1x88
 446 461 388 375 347 315 c 0
 331 292 316 256 312 238 c 0
 297 168 296 238 252 60 c 0
 235 -10 227 -74 184 -74 c 0
 168 -74 160 -64 160 -36 c 0
 160 -1 172 63 195 169 c 0
 247 412 238 561 292 561 c 0x28
 310 561 314 531 314 495 c 0
 314 463 311 426 311 400 c 1
 337 443 325 415 375 481 c 0
 421 541 432 550 482 550 c 0x88
 517 550 536 531 558 502 c 0
 580 473 586 454 586 408 c 0
 586 395 585 379 584 360 c 2
 583 323 l 1
 641 433 748 550 825 550 c 0
 873 550 894 498 895 444 c 0x4a
 895 416 878 316 857 218 c 0
 812 5 800 -13 766 -13 c 0
 755 -13 747 -6 747 8 c 0x44
 747 53 818 337 818 445 c 0
 818 471 814 487 804 487 c 0
 774 487 618 300 546 34 c 0
 538 5 527 -21 500 -21 c 0
 483 -21 476 -12 476 9 c 0x52
EndSplineSet
Validated: 1
Layer: 2
SplineSet
476 9 m 0,0,1
 476 26 476 26 495.5 145 c 128,-1,2
 515 264 515 264 515 321 c 0,3,4
 515 385 515 385 486 435 c 0,5,6
 469 465 469 465 463 465 c 0,7,8
 447 461 447 461 347 315 c 0,9,10
 321 277 321 277 312 238 c 0,11,12
 307 214 307 214 292 188 c 128,-1,13
 277 162 277 162 252 60 c 0,14,15
 250 51 250 51 245.5 31 c 128,-1,16
 241 11 241 11 238.5 2 c 128,-1,17
 236 -7 236 -7 231.5 -22 c 128,-1,18
 227 -37 227 -37 223 -44 c 128,-1,19
 219 -51 219 -51 213.5 -59 c 128,-1,20
 208 -67 208 -67 200.5 -70.5 c 128,-1,21
 193 -74 193 -74 184 -74 c 0,22,23
 160 -74 160 -74 160 -36 c 0,24,25
 160 8 160 8 195 169 c 0,26,27
 205 216 205 216 214 266.5 c 128,-1,28
 223 317 223 317 228 353 c 128,-1,29
 233 389 233 389 238 424.5 c 128,-1,30
 243 460 243 460 247.5 483.5 c 128,-1,31
 252 507 252 507 258 525.5 c 128,-1,32
 264 544 264 544 272.5 552.5 c 128,-1,33
 281 561 281 561 292 561 c 0,34,35
 314 561 314 561 314 495 c 0,36,37
 314 478 314 478 312.5 445 c 128,-1,38
 311 412 311 412 311 400 c 1,39,40
 320 415 320 415 325 422 c 128,-1,41
 330 429 330 429 333.5 431.5 c 128,-1,42
 337 434 337 434 348 446.5 c 128,-1,43
 359 459 359 459 375 481 c 0,44,45
 410 527 410 527 427.5 538.5 c 128,-1,46
 445 550 445 550 482 550 c 0,47,48
 522 550 522 550 558 502 c 0,49,50
 575 480 575 480 580.5 461 c 128,-1,51
 586 442 586 442 586 408 c 0,52,53
 586 398 586 398 584 360 c 2,54,-1
 583 323 l 1,55,56
 630 412 630 412 700 481 c 128,-1,57
 770 550 770 550 825 550 c 0,58,59
 859 550 859 550 876.5 519.5 c 128,-1,60
 894 489 894 489 895 444 c 0,61,62
 895 395 895 395 857 218 c 0,63,64
 834 110 834 110 820 62 c 128,-1,65
 806 14 806 14 795.5 0.5 c 128,-1,66
 785 -13 785 -13 766 -13 c 128,-1,67
 747 -13 747 -13 747 8 c 0,68,69
 747 23 747 23 782.5 203 c 128,-1,70
 818 383 818 383 818 445 c 0,71,72
 818 487 818 487 804 487 c 0,73,74
 795 487 795 487 773 466 c 128,-1,75
 751 445 751 445 721 403.5 c 128,-1,76
 691 362 691 362 659.5 309 c 128,-1,77
 628 256 628 256 597 182.5 c 128,-1,78
 566 109 566 109 546 34 c 0,79,80
 531 -21 531 -21 500 -21 c 0,81,82
 476 -21 476 -21 476 9 c 0,0,1
EndSplineSet
EndChar

StartChar: n
Encoding: 110 110 89
Width: 671
Flags: W
HStem: 468 98<528.34 615.5>
VStem: 173 89<0.501324 121.266> 513 94<28.1132 113.113> 584 81<290.608 467.044>
LayerCount: 3
Fore
SplineSet
589 566 m 0xd0
 642 566 665 491 665 446 c 0xd0
 665 378 613 132 607 105 c 0
 589 21 576 -8 537 -8 c 0
 520 -8 513 -3 513 13 c 0xe0
 513 47 584 280 584 418 c 0
 584 458 562 468 561 468 c 0
 540 468 435 360 369 264 c 0
 307 173 289 146 262 64 c 0
 235 -17 226 -45 209 -45 c 0
 201 -45 173 -34 173 12 c 0
 173 62 196 160 218 377 c 0
 229 487 233 575 281 575 c 0
 298 575 305 567 305 534 c 0
 305 503 299 450 290 360 c 2
 279 246 l 1
 297 279 l 2
 342 362 356 383 430 459 c 0
 490 521 545 566 589 566 c 0xd0
EndSplineSet
Validated: 1
Layer: 2
SplineSet
589 566 m 0,0,1
 625 566 625 566 645 526.5 c 128,-1,2
 665 487 665 487 665 446 c 0,3,4
 665 366 665 366 607 105 c 0,5,6
 593 39 593 39 579 15.5 c 128,-1,7
 565 -8 565 -8 537 -8 c 0,8,9
 513 -8 513 -8 513 13 c 0,10,11
 513 17 513 17 548.5 176.5 c 128,-1,12
 584 336 584 336 584 418 c 0,13,14
 584 436 584 436 578 448.5 c 128,-1,15
 572 461 572 461 567.5 464.5 c 128,-1,16
 563 468 563 468 561 468 c 0,17,18
 545 468 545 468 481 401 c 128,-1,19
 417 334 417 334 369 264 c 0,20,21
 318 190 318 190 299.5 156 c 128,-1,22
 281 122 281 122 262 64 c 0,23,24
 239 -4 239 -4 230 -24.5 c 128,-1,25
 221 -45 221 -45 209 -45 c 0,26,27
 205 -45 205 -45 200 -42.5 c 128,-1,28
 195 -40 195 -40 188.5 -34 c 128,-1,29
 182 -28 182 -28 177.5 -16 c 128,-1,30
 173 -4 173 -4 173 12 c 0,31,32
 173 33 173 33 179 75.5 c 128,-1,33
 185 118 185 118 197 202 c 128,-1,34
 209 286 209 286 218 377 c 0,35,36
 230.850851216 505.508512163 230.850851216 505.508512163 240.380802206 534.408563752 c 0,37,38
 253.766051602 575 253.766051602 575 281 575 c 0,39,40
 294 575 294 575 299.5 566.5 c 128,-1,41
 305 558 305 558 305 534 c 128,-1,42
 305 510 305 510 290 360 c 2,43,-1
 279 246 l 1,44,-1
 297 279 l 2,45,46
 332 343 332 343 354 373 c 128,-1,47
 376 403 376 403 430 459 c 0,48,49
 534 566 534 566 589 566 c 0,0,1
EndSplineSet
EndChar

StartChar: o
Encoding: 111 111 90
Width: 703
Flags: W
HStem: -19 83<264.246 429.077> 475 94<423.871 630.117>
VStem: 97 105<121.049 278.764> 650 85<344.371 454.953>
LayerCount: 3
Fore
SplineSet
573 569 m 0
 706 569 735 520 735 447 c 0
 735 312 615 91 476 22 c 0
 421 -5 364 -19 310 -19 c 0
 238 -19 172 5 139 53 c 0
 108 97 97 127 97 165 c 0
 97 186 100 208 106 237 c 0
 124 323 170 389 255 451 c 0
 391 549 456 569 573 569 c 0
650 425 m 0
 650 451 604 475 567 475 c 0
 552 475 531 470 473 465 c 0
 427 461 405 451 356 416 c 0
 263 349 202 282 202 193 c 0
 202 116 260 64 354 64 c 0
 462 64 609 226 647 406 c 0
 649 414 650 420 650 425 c 0
EndSplineSet
Validated: 1
Layer: 2
SplineSet
573 569 m 0,0,1
 666 569 666 569 700.5 538.5 c 128,-1,2
 735 508 735 508 735 447 c 0,3,4
 735 342 735 342 656 207 c 128,-1,5
 577 72 577 72 476 22 c 0,6,7
 392 -19 392 -19 310 -19 c 0,8,9
 254 -19 254 -19 208.5 -0.5 c 128,-1,10
 163 18 163 18 139 53 c 0,11,12
 97 113 97 113 97 165 c 0,13,14
 97 194 97 194 106 237 c 0,15,16
 132 361 132 361 255 451 c 0,17,18
 355 523 355 523 419 546 c 128,-1,19
 483 569 483 569 573 569 c 0,0,1
650 425 m 0,20,21
 650 444 650 444 623 459.5 c 128,-1,22
 596 475 596 475 567 475 c 0,23,24
 561 475 561 475 550.5 473.5 c 128,-1,25
 540 472 540 472 518.5 469.5 c 128,-1,26
 497 467 497 467 473 465 c 0,27,28
 439 462 439 462 416 452.5 c 128,-1,29
 393 443 393 443 356 416 c 0,30,31
 280 361 280 361 241 308.5 c 128,-1,32
 202 256 202 256 202 193 c 0,33,34
 202 135 202 135 243 99.5 c 128,-1,35
 284 64 284 64 354 64 c 0,36,37
 436 64 436 64 527.5 168.5 c 128,-1,38
 619 273 619 273 647 406 c 0,39,40
 650 418 650 418 650 425 c 0,20,21
EndSplineSet
EndChar

StartChar: p
Encoding: 112 112 91
Width: 707
Flags: W
HStem: -247 21G<203.5 243> 37 100<281.001 340.076> 37 75<305.726 411.993> 483 98<393.934 624.572>
VStem: 161 114<-229.372 40.1919> 200 81<154.722 354.912> 637 102<378.169 477.228>
LayerCount: 3
Fore
SplineSet
161 -113 m 0xda
 161 73 200 301 200 362 c 0xd6
 200 385 195 388 189 388 c 0
 155 388 148 402 148 413 c 0
 148 450 216 472 222 499 c 0
 225 513 250 581 297 581 c 0
 332 581 326 550 341 550 c 0
 374 550 455 581 549 581 c 0
 583 581 614 577 648 570 c 0
 709 556 739 520 739 468 c 0
 739 419 712 342 627 221 c 0
 544 104 437 37 334 37 c 0
 327 37 314 37 301 39 c 2
 272 43 l 1
 273 9 l 2
 273 0 275 -29 275 -85 c 0
 275 -186 274 -247 212 -247 c 0
 195 -247 179 -240 173 -230 c 0
 166 -217 161 -178 161 -113 c 0xda
354 112 m 0xb6
 441 112 637 322 637 427 c 0
 637 458 623 475 620 477 c 1
 620 477 610 483 563 483 c 0
 509 483 433 474 385 461 c 2
 318 442 l 1
 308 387 l 2
 296 316 281 204 281 158 c 0
 281 145 282 137 285 137 c 0xd6
 322 137 330 112 354 112 c 0xb6
EndSplineSet
Validated: 1
Layer: 2
SplineSet
161 -113 m 0,0,1
 161 -4 161 -4 180.5 171.5 c 128,-1,2
 200 347 200 347 200 362 c 0,3,4
 200 388 200 388 189 388 c 0,5,6
 148 388 148 388 148 413 c 0,7,8
 148 429 148 429 165 444.5 c 128,-1,9
 182 460 182 460 201 474 c 128,-1,10
 220 488 220 488 222 499 c 128,-1,11
 224 510 224 510 232 527 c 128,-1,12
 240 544 240 544 258 562.5 c 128,-1,13
 276 581 276 581 297 581 c 0,14,15
 309 581 309 581 316.5 576 c 128,-1,16
 324 571 324 571 326.5 565.5 c 128,-1,17
 329 560 329 560 332.5 555 c 128,-1,18
 336 550 336 550 341 550 c 0,19,20
 350 550 350 550 422 565.5 c 128,-1,21
 494 581 494 581 549 581 c 0,22,23
 595 581 595 581 648 570 c 0,24,25
 739 549 739 549 739 468 c 0,26,27
 739 380 739 380 627 221 c 0,28,29
 565 133 565 133 488 85 c 128,-1,30
 411 37 411 37 334 37 c 0,31,32
 314 37 314 37 301 39 c 2,33,-1
 272 43 l 1,34,-1
 273 9 l 2,35,36
 273 7 273 7 273.5 -5.5 c 128,-1,37
 274 -18 274 -18 274.5 -39 c 128,-1,38
 275 -60 275 -60 275 -85 c 0,39,40
 275 -116 275 -116 274.5 -132.5 c 128,-1,41
 274 -149 274 -149 272.5 -171.5 c 128,-1,42
 271 -194 271 -194 267 -204.5 c 128,-1,43
 263 -215 263 -215 256 -226.5 c 128,-1,44
 249 -238 249 -238 238 -242.5 c 128,-1,45
 227 -247 227 -247 212 -247 c 0,46,47
 183 -247 183 -247 173 -230 c 0,48,49
 161 -208 161 -208 161 -113 c 0,0,1
354 112 m 0,50,51
 396 112 396 112 464 168.5 c 128,-1,52
 532 225 532 225 584.5 301 c 128,-1,53
 637 377 637 377 637 427 c 0,54,55
 637 441 637 441 633 453 c 128,-1,56
 629 465 629 465 625.5 470 c 128,-1,57
 622 475 622 475 620 477 c 0,58,59
 610 483 610 483 563 483 c 0,60,61
 466 483 466 483 385 461 c 2,62,-1
 318 442 l 1,63,-1
 308 387 l 2,64,65
 281 227 281 227 281 158 c 0,66,67
 281 137 281 137 285 137 c 0,68,69
 305 137 305 137 324.5 124.5 c 128,-1,70
 344 112 344 112 354 112 c 0,50,51
EndSplineSet
EndChar

StartChar: q
Encoding: 113 113 92
Width: 714
Flags: W
HStem: -248 21G<419.5 463> 52 64<171.36 246.573> 497 77<406.695 514.86>
VStem: 84 83<117.679 278.967> 367 91<-152.111 77.5128> 515 78<446.701 538> 538 80<-70.9795 68.0828>
LayerCount: 3
Fore
SplineSet
522 -77 m 1xfa
 523 -72 538 34 538 35 c 0
 538 45 514 81 490 81 c 0
 474 81 470 65 468 55 c 0
 461 22 458 -11 458 -42 c 0
 458 -93 466 -136 472 -153 c 1
 485 -135 502 -100 522 -77 c 1xfa
506 497 m 0
 396 497 167 387 167 171 c 0
 167 141 174 116 197 116 c 0
 239 116 373 230 408 274 c 1
 448 329 484 438 506 467 c 0
 512 474 515 481 515 487 c 0xfc
 515 493 512 497 506 497 c 0
721 274 m 0
 721 245 557 129 556 129 c 1
 563 125 570 119 576 112 c 0
 606 74 618 61 618 35 c 0xfa
 618 9 606 -25 601 -50 c 0
 587 -114 582 -113 558 -156 c 0
 512 -237 482 -248 444 -248 c 0
 395 -248 367 -245 367 -120 c 0
 367 -83 369 -36 374 25 c 2
 385 153 l 1
 329 116 l 2
 263 73 220 52 178 52 c 0
 105 52 84 107 84 165 c 0
 84 364 288 574 508 574 c 0
 543 574 593 562 593 514 c 0
 593 453 515 295 487 195 c 0
 484 182 485 176 485 172 c 1
 521 190 641 291 700 291 c 0
 713 291 721 284 721 274 c 0
EndSplineSet
Validated: 1
Layer: 2
SplineSet
522 -77 m 1,0,1
 523 -74 523 -74 530.5 -20 c 128,-1,2
 538 34 538 34 538 35 c 0,3,4
 538 45 538 45 522 63 c 128,-1,5
 506 81 506 81 490 81 c 0,6,7
 473 81 473 81 468 55 c 0,8,9
 458 8 458 8 458 -42 c 0,10,11
 458 -113 458 -113 472 -153 c 1,12,13
 475 -148 475 -148 492.5 -119 c 128,-1,14
 510 -90 510 -90 522 -77 c 1,0,1
506 497 m 0,15,16
 462 497 462 497 406 475.5 c 128,-1,17
 350 454 350 454 295.5 415.5 c 128,-1,18
 241 377 241 377 204 312 c 128,-1,19
 167 247 167 247 167 171 c 0,20,21
 167 116 167 116 197 116 c 0,22,23
 226 116 226 116 301.5 175.5 c 128,-1,24
 377 235 377 235 408 274 c 0,25,26
 430 304 430 304 463.5 379.5 c 128,-1,27
 497 455 497 455 506 467 c 0,28,29
 515 478 515 478 515 487 c 0,30,31
 515 497 515 497 506 497 c 0,15,16
721 274 m 0,32,33
 721 261 721 261 679.5 225 c 128,-1,34
 638 189 638 189 598 159 c 128,-1,35
 558 129 558 129 556 129 c 1,36,37
 567 123 567 123 576 112 c 0,38,39
 611.545188408 66.9760946829 611.545188408 66.9760946829 615.717917434 52.4430698328 c 0,40,41
 618 44.4948991197 618 44.4948991197 618 35 c 0,42,43
 618 23 618 23 615 8.5 c 128,-1,44
 612 -6 612 -6 607.5 -24 c 128,-1,45
 603 -42 603 -42 601 -50 c 0,46,47
 597 -69 597 -69 594 -81 c 128,-1,48
 591 -93 591 -93 586.5 -103 c 128,-1,49
 582 -113 582 -113 579.5 -117.5 c 128,-1,50
 577 -122 577 -122 570 -135 c 128,-1,51
 563 -148 563 -148 558 -156 c 0,52,53
 526 -212 526 -212 501 -230 c 128,-1,54
 476 -248 476 -248 444 -248 c 0,55,56
 422 -248 422 -248 411 -245.5 c 128,-1,57
 400 -243 400 -243 388 -231 c 128,-1,58
 376 -219 376 -219 371.5 -192.5 c 128,-1,59
 367 -166 367 -166 367 -120 c 0,60,61
 367 -60 367 -60 374 25 c 2,62,-1
 385 153 l 1,63,-1
 329 116 l 2,64,65
 231 52 231 52 178 52 c 0,66,67
 84 52 84 52 84 165 c 0,68,69
 84 263 84 263 143.5 358 c 128,-1,70
 203 453 203 453 302 513.5 c 128,-1,71
 401 574 401 574 508 574 c 0,72,73
 541 574 541 574 567 560 c 128,-1,74
 593 546 593 546 593 514 c 0,75,76
 593 479 593 479 545 354.5 c 128,-1,77
 497 230 497 230 487 195 c 0,78,79
 485 186 485 186 485 172 c 1,80,81
 495 177 495 177 540 209 c 128,-1,82
 585 241 585 241 629.5 266 c 128,-1,83
 674 291 674 291 700 291 c 0,84,85
 721 291 721 291 721 274 c 0,32,33
EndSplineSet
EndChar

StartChar: r
Encoding: 114 114 93
Width: 578
Flags: W
HStem: 412 76<506.966 594.75> 521 20G<257.5 268>
VStem: 131 138<72.9696 163.5>
LayerCount: 3
Fore
SplineSet
285 514 m 0
 285 507 269 431 269 313 c 2
 269 293 l 1
 277 301 288 313 300 327 c 0
 367 409 492 488 557 488 c 0
 595 488 604 463 604 452 c 0
 604 436 587 424 551 412 c 0
 465 382 316 238 272 130 c 0
 222 6 201 -38 166 -38 c 0
 138 -38 131 -19 131 5 c 0
 131 19 157 266 195 448 c 0
 203 484 210 512 237 532 c 0
 245 538 254 541 261 541 c 0
 275 541 285 531 285 514 c 0
EndSplineSet
Validated: 1
Layer: 2
SplineSet
285 514 m 0,0,1
 285 513 285 513 283.5 502.5 c 128,-1,2
 282 492 282 492 279.5 474 c 128,-1,3
 277 456 277 456 274.5 433 c 128,-1,4
 272 410 272 410 270.5 378 c 128,-1,5
 269 346 269 346 269 313 c 2,6,-1
 269 293 l 1,7,8
 282 306 282 306 300 327 c 0,9,10
 350 389 350 389 429 438.5 c 128,-1,11
 508 488 508 488 557 488 c 0,12,13
 582 488 582 488 593 476 c 128,-1,14
 604 464 604 464 604 452 c 0,15,16
 604 430 604 430 551 412 c 0,17,18
 485 389 485 389 394.5 299 c 128,-1,19
 304 209 304 209 272 130 c 0,20,21
 232 30 232 30 211.5 -4 c 128,-1,22
 191 -38 191 -38 166 -38 c 0,23,24
 131 -38 131 -38 131 5 c 0,25,26
 131 15 131 15 138.5 82.5 c 128,-1,27
 146 150 146 150 162 258 c 128,-1,28
 178 366 178 366 195 448 c 0,29,30
 202 481 202 481 210.5 499.5 c 128,-1,31
 219 518 219 518 237 532 c 0,32,33
 249 541 249 541 261 541 c 0,34,35
 285 541 285 541 285 514 c 0,0,1
EndSplineSet
EndChar

StartChar: s
Encoding: 115 115 94
Width: 544
Flags: W
HStem: -56 72<210.671 334.072> 464 72<360.128 497.016>
VStem: 96 79<47.3664 100.088> 140 86<315.331 372.299> 410 74<91.7549 168.602>
LayerCount: 3
Fore
SplineSet
96 50 m 0xe8
 96 87 121 109 138 109 c 0
 152 109 167 98 175 74 c 0xe8
 184 47 236 16 279 16 c 0
 341 16 410 113 410 132 c 0
 410 141 405 168 367 180 c 0
 303 200 281 216 244 225 c 0
 222 230 140 275 140 331 c 0
 140 381 250 501 378 527 c 0
 383 528 480 536 480 536 c 1
 514 536 526 532 548 499 c 0
 563 477 570 458 570 446 c 0
 570 434 561 417 539 417 c 0
 491 417 511 464 449 464 c 0
 352 464 226 367 226 344 c 0xd8
 226 329 254 301 327 278 c 0
 436 243 484 216 484 160 c 0
 484 130 465 76 446 48 c 0
 424 14 349 -56 285 -56 c 0
 247 -56 168 -44 134 -27 c 0
 112 -15 96 19 96 50 c 0xe8
EndSplineSet
Validated: 1
Layer: 2
SplineSet
96 50 m 0,0,1
 96 76 96 76 110 92.5 c 128,-1,2
 124 109 124 109 138 109 c 0,3,4
 163 109 163 109 175 74 c 0,5,6
 182 53 182 53 214.5 34.5 c 128,-1,7
 247 16 247 16 279 16 c 0,8,9
 320 16 320 16 365 64 c 128,-1,10
 410 112 410 112 410 132 c 0,11,12
 410 166 410 166 367 180 c 0,13,14
 335 190 335 190 298.5 205.5 c 128,-1,15
 262 221 262 221 244 225 c 0,16,17
 218 231 218 231 179 262.5 c 128,-1,18
 140 294 140 294 140 331 c 0,19,20
 140 374 140 374 214.5 441.5 c 128,-1,21
 289 509 289 509 378 527 c 1,22,-1
 480 536 l 2,23,24
 507 536 507 536 519.5 529.5 c 128,-1,25
 532 523 532 523 548 499 c 0,26,27
 570 467 570 467 570 446 c 0,28,29
 570 435 570 435 562 426 c 128,-1,30
 554 417 554 417 539 417 c 0,31,32
 523 417 523 417 513.5 424.5 c 128,-1,33
 504 432 504 432 499.5 440.5 c 128,-1,34
 495 449 495 449 482.5 456.5 c 128,-1,35
 470 464 470 464 449 464 c 0,36,37
 405 464 405 464 350 438.5 c 128,-1,38
 295 413 295 413 260.5 384.5 c 128,-1,39
 226 356 226 356 226 344 c 0,40,41
 226 331 226 331 251.5 312.5 c 128,-1,42
 277 294 277 294 327 278 c 0,43,44
 413 250 413 250 448.5 225 c 128,-1,45
 484 200 484 200 484 160 c 0,46,47
 484 138 484 138 472 103.5 c 128,-1,48
 460 69 460 69 446 48 c 0,49,50
 425 15 425 15 376.5 -20.5 c 128,-1,51
 328 -56 328 -56 285 -56 c 0,52,53
 254 -56 254 -56 206 -47.5 c 128,-1,54
 158 -39 158 -39 134 -27 c 0,55,56
 118 -18 118 -18 107 4 c 128,-1,57
 96 26 96 26 96 50 c 0,0,1
EndSplineSet
EndChar

